<svg xmlns="http://www.w3.org/2000/svg" viewBox="0 0 512 512"><path fill="#556F87" fill-rule="evenodd" d="M221.259 107.303l7.769 2.183c2.95.796 4.874 1.948 7.053 2.675 12.823 4.275 25.34 8.385 38.313 12.173 2.728.708 3.837.965 5.583 1.792.706.192 3.022.894 3.72 1.128 7.479 2.19 13.311 4.057 20.781 6.275 10.477 3.876 20.261 6.467 30.413 9.972 1.452.624 2.928-.075 3.831 1.299.375.69.54 1.434.526 2.217-.063.975-.547 1.853-.678 2.815-.035 2.239-2.3 4.711.708 6.617.554.279 1.147.448 1.751.579.783.213 1.474.68 2.283.829.635.075 1.268.145 1.885.341.432.147.821.366 1.193.627 1.508.889 2.524 2.086 2.491 3.946-1.341 6.196-3.256 12.244-5.481 18.157-1.558 4.141-.571 6.332 3.717 7.119.938.346 1.812.819 2.721 1.228.445.28.805.645 1.097 1.079.659 1.161.61 2.429.548 3.694-.155 1.61-.762 3.112-1.166 4.666-.652 2.501-.176 4.475 2.625 5.271.887.25 1.645.801 2.523 1.074.865.397 1.729.798 2.685.955 1.332.364 2.313 1.157 2.962 2.37.433 1.023.431 2.097.363 3.178-2.602 11.578-6.599 22.728-10.477 33.912-.495 1.427-1.361 2.62-2.519 3.601-2.357 1.419-4.634.29-6.926-.225-3.905-1.758-6.534-.986-7.635 3.548-.496 2.044-1.402 4.042-3.544 5.052-2.701.915-5.191-.175-7.686-.909-3.145-.924-3.982 1.075-4.84 3.399-.891 2.417-.01 3.719 2.257 4.489 3.985 1.355 7.995 2.727 7.533 8.198-.544 3.359-1.645 6.511-3.474 9.396a3.863 3.863 0 0 1-1.91 1.393c-5.305.205-9.971-2.518-15.064-3.294-6.047-3.296-12.916-4.044-19.331-6.202-2.687-.904-4.022.183-4.847 2.638-.84 2.504-1.27 5.147-2.521 7.521-.921 1.04-2.083 1.522-3.459 1.516-8.538-2.779-17.188-5.231-25.619-8.354-8.26-2.346-16.387-5.097-24.428-8.094-3.632-.194-7.147-3.487-10.428-2.043-3.249 1.43-2.287 6.247-4.156 9.154-.535.832-1.019 1.699-1.678 2.456-6.67 3.582-10.122 9.682-13.25 16.238-5.432 11.387-11.23 22.599-16.871 33.885-.593 1.188-1.12 2.419-1.89 3.505-.778 1.097-1.709 2.301-3.153 2.116-1.478-.189-2.017-1.607-2.337-2.921-.724-2.966-2.071-5.551-4.188-7.782-2.775-2.926-6.024-4.451-10.14-4.415-10.296.091-20.595.075-30.891-.002-2.403-.019-5.166.419-6.192-2.8.06-2.036.102-3.497.086-5.263.654-2.773 2.895-2.913 5.059-2.864 7.767.178 15.542-.498 23.309.479 3.763.474 7.543-.962 11.354-.469 10.021 2.126 16.866-5.259 14.23-15.392-.176-.679-.193-1.287.095-1.916.523-.56 1.177-.867 1.922-.999 1.522-.191 2.978.211 4.392.666 2.715.873 4.8.786 5.831-2.511.999-3.193-.9-4.024-3.257-4.937-7.5-2.902-8.009-3.771-5.971-11.897.781-3.117-.112-4.637-3.053-5.548-3.801-1.179-7.568-2.477-11.329-3.78-2.622-.909-4.375-.586-5.433 2.34-1.108 3.065-.18 4.672 2.828 5.567 2.59.772 5.165 1.825 5.467 5.043.239 2.551-.689 4.563-3.386 5.383-6.901-.131-13.795-.027-20.688-.077-1.95-.015-3.967.283-5.742-.895-2.417-1.931-1.869-4.465-1.161-6.855 1.176-3.976 2.366-7.952 3.726-11.863 2.862-5.967 2.843-6.003-4.258-8.042-4.138-1.95-4.918-5.205-3.62-9.271 2.041-5.383 2-5.819-3.229-7.326-4.885-1.407-9.435-3.707-14.351-4.99-1.457-.438-3.021-1.02-4.22-1.996-.594-.547-.838-1.179-1.035-1.964 1.94-8.238 5.047-13.372 8.047-21.272.957-2.856.644-4.217 5.644-2.607.776.018 4.248 1.151 5.021 1.245 16.605 4.808 33.291 9.04 49.834 14.054 2.712.822 4.065-.053 4.916-2.525 4.385-12.751 8.474-25.597 12.454-38.479.889-2.878-.259-4.224-2.578-5.57-8.013-4.656-6.555-4.194-3.623-12.967a1412.458 1412.458 0 0 0 7.599-23.494c2.69-8.556 4.04-7.69 8.591-6.567.808.2 3.462.955 4.254 1.179 3.462 1.152 3.092.916 5.119-4.041.938-2.295 1.393-4.519 2.354-6.822.763-2.305 1.752-4.947 2.61-7.373.665-1.869 1.25-3.519 1.64-4.619z" clip-rule="evenodd"/><path fill="#FEFEFE" fill-rule="evenodd" d="M163.04 311.161c-13.056 1.027-26.116-.235-39.172.097-.562.015-1.112.479-1.668.732 1.363 1.695 1.339 3.37-.073 5.024.987 1.848 2.665.802 3.977.813 10.627.097 21.257.014 31.885.096 10.346.079 16.406 5.746 17.2 16.111 1.4-.55 1.607-1.867 2.125-2.902 6.836-13.647 13.832-27.219 20.397-40.996 2.719-5.705 6.354-10.017 12.306-12.243 9.92-.831 12.706 2.265 11.873 1.701 1.573.961 2.486 1.547 3.829 2.937 1.271 2.104 3.13 3.342 4.153 5.619 3.403 9.372 10.022 17.584 14.335 26.516 2.122 6.684 5.74 12.652 8.98 18.801 1.592 3.935 3.914 7.544 5.211 11.611 1.405 2.22 2.112 6.661 5.718 1.774 2.187-2.702 5.2-4.07 8.315-5.203.152-.26.213-.53.055-.845-4.119-4.077-8.344-8-10.473-13.561-.943-2.464-1.948-4.889-1.564-7.618-2.131-12.535 1.887-22.906 10.984-31.545 1.629-1.546 3.365-2.681 5.615-2.939 1.052-.762 1.624-1.079 2.42-1.595 6.739-2.839 11.364-3.778 17.683-4.355 3.221-.184 6.409-.606 9.823-.371 5.135.845 10.169 2.045 14.922 4.234 5.589.677 9.279 4.525 13.251 7.907 1.337 1.197 2.503 2.529 3.254 4.289-.442-3.224.538-6.043 2.037-8.741.423-1.434 1.284-2.572 2.361-3.571 1.507-.907 2.624-2.271 3.964-3.384.881-.69 1.906-1.113 2.881-1.644 2.759-1.531 5.781-1.03 8.694-1.021 7.383.024 14.772-.354 22.148.252 1.213.098 2.426-.276 3.639-.019 2.418.075 4.998-.471 6.871 1.746l14.812-.098c1.794-1.32 3.572-1.348 5.333.065 7.471.367 11.562 5.191 14.761 11.191 3.03 9.172 1.756 11.513-6.543 18.575-.509.272-.779.788-1.353 1.024-4.118 2.206-8.593 1.413-12.958 1.543-6.924.327-13.862.449-20.735 1.382-2.889.162-5.887-.718-8.633.829-1.209 1.497-.271 2.055 1.085 2.435 5.274.654 10.636.439 15.787 1.931 4.622.043 9.273.439 13.858.055 9.202-.773 15.545 2.96 19.434 11.188 3.343 6.034 2.082 11.427-2.278 16.391-1.404 2.171-3.251 3.849-5.581 4.989-2.1 1.049-4.236 1.949-6.671 1.64-11.791-.985-23.546-.835-35.217 1.111-2.237 1.351-1.374 3.596-1.599 5.522-.032 4.77.067 9.534-.063 14.296-.548 4.539-3.455 7.695-6.371 10.848-1.236 1.423-2.58 2.724-4.231 3.672-3.317 1.798-6.902.802-10.373.993-2.044-.395-4.123-.694-5.85-2.011a54.528 54.528 0 0 1-5.664-5.71c-.861-1.148-1.869-2.208-2.26-3.646-.42-2.12-1.393-4.121-1.425-6.29-.019.044-.409-.116-.409-.116s-.402.135-.408.181c-1.592 2.17-3.634 3.873-5.346 5.877-1.068 1.143-2.316 2.105-3.322 3.316-1.08.88-2.045 1.914-3.357 2.479-1.631 1.205-3.535 1.683-5.473 2.079-5.084 2.151-10.528 2.303-15.891 2.892-2.377.453-4.79.785-6.947 1.984-1.373.767-2.304 1.869-2.807 4.047 2.531-3.479 5.369-5.565 9.197-6.012.506-.015 1.002-.027 1.507-.04 7.296-.407 14.253-2.301 21.103-4.699 8.153 1.317 17.726 11.882 17.82 20.051.047 3.991 1.428 8.345-1.988 11.801a3.93 3.93 0 0 1-1.477.607c-1.576.212-2.975-.324-4.156-1.294-5.01-4.111-10.619-4.097-16.424-2.363-1.982.592-3.951 1.025-5.834.154-5.585-2.586-10.172-1.136-14.498 2.883-1.566 1.455-3.32 2.726-4.723 4.37-3.916 3.204-7.982 3.661-12.403.079-1.157 6.389-4.806 10.737-9.497 13.9-4.264 2.873-5.889 6.411-5.457 11.286.117 1.31.074 2.647-.167 3.965-.813 1.937-.794 3.999-.937 6.039-.927 4.172-1.045 8.801-6.025 10.688-2.458-.224-3.841-1.952-4.88-3.858-3.546-6.502-8.037-12.627-8.321-20.48-.058-1.614-.033-3.403-1.699-4.467-3.008-4.886-5.926-9.792-10.762-13.275-1.914-1.378-2.327-3.901-2.168-7.011-2.716 2.04-4.996 3.823-7.987 3.283-4.102-.74-5.993-4.401-8.825-6.823-6.638-8.111-15.176-9.77-24.955-7.469-4.169.981-7.934 3.446-12.388 3.361-3.704-1.167-5.887-4.222-8.281-6.93-1.819-2.057-.866-4.384.129-6.554 1.042-2.271 2.852-3.967 4.504-5.863-1.256-.13-2.425-.156-3.544-.514-1.443-.319-2.634-1.144-3.854-1.913-.877-.455-1.782-.868-2.456-1.631-1.823-2.404-4.456-4.192-5.509-7.191-2.043-4.739-2.063-9.47.039-14.19.423-1.696 1.754-2.981 2.147-4.694.438-2.37 3.211-4.171 1.685-6.994-2.351.029-4.605 1.574-6.987.324-9.684-1.114-19.382-.472-29.072-.371-.998.011-1.904.481-2.724 1.05-1.948 3.31-.472 6.921-.934 10.355-.018 3.063.038 6.124-.045 9.184-.008 1.669-.867 3.131-1.159 4.73-2.086 4.142-5.631 6.962-9.009 9.946-5.792 3.144-11.682 3.113-16.974-.668-6.08-4.343-10.278-10.002-8.996-18.18-.602-4.597-.488-9.209-.436-13.823.024-2.063.46-3.912 1.97-5.402.041-16.449.086-32.897.12-49.346.028-13.405 2.245-16.398 14.695-20.992 2.532-.229 3.021-.262 5.271-.104 5.938-.063 12.479.154 18.417.251 1.797-.016 3.542-.001 5.354.062 1.689-.153 2.833.083 4.525.07 9.185.465 18.428-.87 27.57.908 5.928-.639 7.982 3.854 10.418 7.854.349 1.28 1.091 2.498.64 3.909 1.457 10.223-1.32 15.883-9.494 19.276-1.051.436-2.13 1.017-3.327.394z" clip-rule="evenodd"/><path fill="#959FAA" fill-rule="evenodd" d="M425.98 350.849c5.323.057 10.65.252 15.969.114 4.069.006 4.069.006 4.069 3.808 0 6.542-.009 11.313-.009 18.646 0 7.625 0 7.632 5.332 7.632 4.423 0 13.307.048 13.575.618.334.708.007 8.67.053 12.97.045 4.188-.22 8.363.238 8.947.483.616 4.016.415 9.233.415 9.56 0 9.56 0 9.559 9.744 0 5.826.044 11.653.044 17.479 0 3.832.005 3.832-3.584 3.832-8.054.071-15.772.134-23.97.002-3.552 0-3.552 0-3.525-3.884.021-2.992-.002-5.991-.002-8.986 0-2.331.226-2.326-1.271-2.326-1.608 0-1.657 0-1.657 2.354 0 3.496.049 6.881.049 10.478 0 5.375.198 5.375-5.6 5.375-3.108 0-5.984-.002-8.98.03-2.819 2.176-3.116 5.627-4.342 8.605-1.832 4.451-2.612 4.708-6.168 1.783-1.926-1.584-4.097-2.757-6.242-3.982-.934-.295-1.716-.87-2.551-1.351-2.744-2.571-5.634-5.003-8.004-7.962a4.05 4.05 0 0 1-.22-1.444c.656-2.618 2.093-2.251 4.015-1.252 3.196 1.661 5.297 4.834 8.729 6.117 6.397 4.351 6.974 4.532 9.256-2.699 3.459-10.958 10.441-17.817 20.701-22.667 9.599-4.537 10.225-3.866 1.164-11.449-2.171-1.816-4.17-3.831-6.42-5.552-3.596-2.749-4.876-6.618-5.271-10.896-.398-4.31-1.056-8.582-1.757-12.848-.808-4.909-1.012-4.966-5.609-2.658-3.825 1.92-8.58 6.08-13.242 5.825-.749-.138-1.345.564-1.863 0-.764-1.759 2.994-2.744 4.223-3.661 2.567-1.915 2.849-1.537 2.938-5.984 0-4.54-.051-8.461 0-12.917.208-1.244-.356-2.311 1.14-2.256z" clip-rule="evenodd"/><path fill="#FECFCB" fill-rule="evenodd" d="M390.469 278.852c-2.318-.007-4.107.006-6.426-.001-1.342-1.748-1.032-3.803-1.033-5.78-.014-28.167-.021-56.333-.001-84.5.005-7.118 1.38-8.607 8.362-8.693 11.999-.146 24-.041 35.999-.053 2.359-.002 4.635.438 6.906.981.638.241 1.16.636 1.567 1.182 4.764 4.878 9.503 9.781 14.305 14.621 1.549 1.561 2.888 3.144 3.377 5.391 1.001 4.594-.025 5.962-4.765 6.044-17.813.308-35.626.643-53.44.896-2.536.036-4.399-.014-4.4 3.553-.006 21.313-.232 42.624-.356 63.937-.004.812.03 1.633-.095 2.422z" clip-rule="evenodd"/><path fill="#959FAA" fill-rule="evenodd" d="M88.852 348.88l-.045 20.239c-3.158 1.696-5.336-.852-7.768-1.938-2.637-1.178-3.94-.92-4.323 2.234-.521 4.287-1.4 8.537-1.721 12.847-.404 5.423-2.306 9.82-6.824 13.248-3.425 2.598-6.636 5.535-9.866 8.411-2.08 1.853-1.979 3.018.478 4.426 4.186 2.399 8.349 4.877 12.663 6.996 5.271 2.588 8.67 6.434 10.624 11.911 1.114 3.124 2.592 6.134 3.518 9.327.816 2.815 2.378 4.25 5.412 3.668 1.062.233 1.896.772 2.392 1.77.032 4.079-3.611 4.9-6.154 6.214-1.714.886-2.515-1.495-3.198-3.014-1.393-3.096-1.554-6.809-4.533-9.115-2.827-.035-3.755.001-8.469-.025-6.13 0-6.13 0-6.1-6.362.015-3.061-.062-5.936.051-8.976.103-2.776-.175-2.772-1.947-2.865-1.29-.067-1.291.062-1.291 1.718 0 8.281.129 12.544-.5 13.125-1.28 1.182-8.7.465-12.125.531-5 .098-9.594-.031-14.517-.201-3.679.076-3.679.076-3.655-3.756.049-7.816-.013-14.06-.023-21.876-.007-5.459 0-5.417 4.046-5.464 3.487-.04 6.993.097 10.47.116 4.367.024 4.433.122 4.43-4.601-.003-4.373.051-6.5.051-13.198 0-5.146.033-5.146 5.384-5.31 3.189-.098 5.72.044 8.714.038 5.333-.01 5.435-.061 5.422-5.624-.015-6.793-.348-15.438-.348-22.448 0-2.294 1.875-1.886 3.288-1.906 5.487-.079 10.975-.098 16.464-.14z" clip-rule="evenodd"/><path fill="#CBF2FE" fill-rule="evenodd" d="M128.093 278.844c-6.447-.033-12.709-.374-19.156-.406-1.769-2.479-2.313-2.813-4.737-5.464L75.023 244.05c-1.232-1.091-1.232-1.091-3.44-2.508-1.25-1.458-2-1.792-2-5.917 0-4.605 0-4.605 7.297-4.686.996-.011 1.992-.048 2.988-.073 1.757 1.259 2.945 2.928 4.311 4.289 13.62 13.572 26.021 25.767 39.591 39.388 1.378 1.382 2.98 2.686 4.323 4.301z" clip-rule="evenodd"/><path fill="#959FAA" fill-rule="evenodd" d="M123.888 65.706c.75-2.509 2.894-1.867 4.585-1.87 27.306-.044 54.613.036 81.918-.102 4.33-.021 5.398 1.85 5.366 5.72-.074 8.82.126 17.643.215 26.463-.238.15-.477.301-.714.453-3.84-.979-3.497-4.303-3.673-7.062-.282-4.405-.035-8.837-.105-13.257-.028-1.748.34-3.688-1.612-4.815-.526-.21-1.019-.454-1.53-.681-3.467-.693-6.958-.363-10.428-.369-20.38-.031-40.76-.035-61.141.008-2.437.006-5.021-.466-7.119 1.373-2.005 3.104-2.169 6.569-2.165 10.104.024 21.151-.191 42.305.079 63.452.201 15.818-1.741 31.568-1.104 47.387.066 1.646.097 3.377-1.394 4.601-3.073-.87-1.472-3.388-1.479-5.008-.121-29.49-.159-58.981-.056-88.472.047-12.641-.52-25.29.357-37.925z" clip-rule="evenodd"/><path fill="#97A2AD" fill-rule="evenodd" d="M124.997 197.004c1.309-41.26.954-82.533 1.023-123.804.003-1.755-.55-3.746 1.375-5.009 1.721 1.687 1.74 3.871 1.743 6.046.051 40.938-1.97 81.696-2.029 122.635-.274 3.262-.39 3.44-1.546 5.784-2.688.625-4.691.474-7.409 1.002-.41.34-2.428-.058-2.862.249-2.312 1.138-3.2 2.177-5.694 2.176-12.599-.006-25.198-.036-37.797.026-1.594.008-3.641-.505-4.531 1.229-1.089 2.123.985 3.303 2.172 4.521 5.669 5.816 11.473 11.502 17.195 17.263 1.134 2.091 3.075 3.421 4.716 5.052 12.967 12.896 25.921 25.804 38.776 38.81 1.54 1.558 3.746 3.025 2.713 5.868l-4.75-.008-48.226-47.978L64.862 215.3c-1.721-3.492-4.795-6.62-2.98-11.07.697-3.456 3.309-3.715 6.118-3.72 10.979-.019 21.958.012 32.937-.018 2.157-.006 4.328.182 6.46-.293 3.788-.415 7.599-.282 11.387-.14 2.765.105 4.804-.685 6.213-3.055z" clip-rule="evenodd"/><path fill="#6EB9C8" fill-rule="evenodd" d="M246.228 434.86c3.031.737 2.963 3.529 3.033 5.569.324 9.404 6.218 16.172 10.671 23.636 2.457 1.396 3.682-2.398 6.039-1.444 1.287.251 2.339.894 3.16 1.915.545 1.211-.103 1.862-1.109 2.343-4.895 2.5-9.683 2.909-14.625-.123-10.365-6.357-21.437-4.736-32.451-2.361-3.25.701-6.502 2.104-9.769 1.599-10.65-1.646-20.458 3.623-30.992 3.308-10.069-.302-19.068-2.769-26.568-9.587-2.028-1.844-3.914-2.087-6.337-1.338-7.991 2.47-15.813 1.634-23.276-1.865-2.473-1.159-4.195.078-6.113.789-5.479 2.03-10.87 4.275-16.923 2.562-7.307-2.069-9.77-5.215-9.896-12.851 1.044-2.739 2.556-5.134 5.016-6.848a3.757 3.757 0 0 1 1.55-.096c2.548.501 4.762 1.315 4.313 4.616-.213.752-.633 1.374-1.215 1.885-.649.511-1.403.762-2.227.862-1.479.182-3.029.385-3.353 2.21-.331 1.865 1.432 2.335 2.451 3.292.363.328.668.698.938 1.101 3.381 3.046 6.971 3.934 11.314 1.837 2.967-1.432 6.341-1.942 9.294-3.527 1.89-1.014 3.798-.997 5.711.034 8.059 4.345 16.131 5.746 24.355.309 1.569-1.037 3.471-.629 4.426.955 5.028 8.338 13.662 9.713 22.02 11.8 7.295 1.82 14.053-.087 20.782-2.502 1.719-.617 3.34-1.476 5.271-.833 6.92 2.301 13.534 1.294 20.217-1.362 3.943-1.566 8.349-1.75 12.48-3.002 2.366-.717 5.183-.694 7.694.895 1.928 1.219 4.197 1.741 6.324.189-.449-3.155-2.019-5.857-3.198-8.699-1.579-3.806-2.809-7.665-2.027-11.881.693-1.408.412-3.696 3.02-3.387z" clip-rule="evenodd"/><path fill="#97A1AB" fill-rule="evenodd" d="M336.955 63.8c1.395-.929 2.729-.586 4.042.189 22.679 24.101 46.901 46.676 69.733 70.63 10.332 10.841 20.983 21.388 31.806 31.737 3.62 3.462 4.27 7.25 3.956 11.69-.234 3.319-1.762 3.154-3.857 1.396-.576-.88-.468-1.856-.41-2.825.05-3.219-1.446-5.644-3.674-7.87-31.795-31.776-63.559-63.582-95.39-95.321-4.239-4.227-5.093-4.202-9.387.06-15.362 15.245-30.62 30.596-45.942 45.881-1.645 1.642-3.155 3.444-5.191 4.661-.92.468-1.854.679-2.825.158-1.596-2.128.063-3.155 1.358-4.517 15.918-16.735 32.568-32.745 48.859-49.109 2.269-2.28 3.549-5.612 6.922-6.76z" clip-rule="evenodd"/><path fill="#6CB7C5" fill-rule="evenodd" d="M268.021 466.879L269 465c3.873-3.9 8.256-1.939 12.433-.909 4.446 1.096 8.8 2.568 13.292 3.505 1.758.48 3.51 1.008 5.367.924 1.313-.114 2.615.683 3.922.132 6.885-2.898 13.619-1.899 20.771-.421 10.073 2.081 19.415-1.582 28.209-6.438 2.881-.774 3.952-3.24 5.138-5.567 1.379-2.706 3.395-3.885 6.417-2.897.997.185 2.012.19 3.016.312 6.598 1.878 13.071.324 19.558-.725 6.712-1.907 12.042 2.651 17.986 4.153 4.821 1.218 8.027-.744 11.426-2.923 2.255-1.446 2.177-3.761 1.164-6.206-.759-1.83-2.683-3.684-.706-5.898.636.334 1.173.898 1.837 1.365 1.465 1.833 2.858 3.344 3.297 4.725 1.365 5.081-.174 8.57-4.835 11.062-6.062 3.239-12.186 2.805-18.255.162-4.2-1.828-7.896-2.282-12.619-.434-5.947 2.327-12.652 2.906-19.065.662-3.411-1.193-5.549-.767-8.396 2.264-6.547 6.962-15.731 8.908-24.866 10.111-4.432.584-8.964.425-13.364-.788-4.072-1.122-7.924-.978-12.146.244-5.979 1.729-12.251 1.021-18.107-1.284-7.261-2.859-14.682-4.147-22.453-3.252z" clip-rule="evenodd"/><path fill="#6685A2" fill-rule="evenodd" d="M83.688 142.479c0-3.708 0-3.708-2.375-3.729-4.02-.036-3.344.656-3.344-6.682 0-7.349 0-7.347 3.469-7.347 2.75 0 2.811.079 2.811-3.041 0-2.743 0-2.743 7.658-2.743 7.375 0 7.375 0 7.359 2.955.068 2.919.069 2.999 3.256 2.919 2.459-.062 2.459-.062 2.459 7.564 0 6.916 0 6.916-1.823 6.916-3.028 0-3.027.042-3.027 2.125 0 3.596-.041 3.469-8.051 3.469-8.892.001-8.392.022-8.392-2.406z" clip-rule="evenodd"/><path fill="#939FA8" fill-rule="evenodd" d="M442.999 178.999c1.752.834 2.869.598 2.981-1.64.144-2.896-.034-5.681-2.144-7.955a77.348 77.348 0 0 0-1.733-1.799c-31.387-31.722-62.765-63.452-94.179-95.146-2.591-2.613-6.189-5.808-8.045-9.003 3.138.605 5.376 4.105 7.312 6.033 31.758 31.629 63.432 63.344 95.083 95.08 1.954 1.959 4.405 3.604 4.953 6.688 1.497 8.422.141 10.119-8.412 10.4-.993.032-1.981.216-2.972.33l-.454.01-.428-.157c-1.002-.548-2.202-1.056-1.956-2.458.236-1.343 1.464-1.717 2.609-1.728 2.533-.023 5.257-.908 7.385 1.345z" clip-rule="evenodd"/><path fill="#8C9AA2" fill-rule="evenodd" d="M124.997 197.004c-.35 3.046-2.066 4.166-5.088 4.033-3.962-.174-7.938-.04-11.908-.039-6.388 1.106-12.836.555-19.237.412-7.572-.168-15.139-.435-22.716-.341-1.413.018-3.777.522-4.863-.914 1.858-1.077 4.635-.82 6.599-.825 16.635-.034 33.272-.159 49.904.076 4.336.062 5.645-1.086 5.626-5.559-.172-40.589-.105-81.18-.072-121.77.001-2.128-.448-4.337.646-6.37.049 41.681.09 83.362.17 125.045.005 2.105-.57 4.352.939 6.252z" clip-rule="evenodd"/><path fill="#959FAA" fill-rule="evenodd" d="M61.375 348c-7.371-.208-7.371-.208-7.344-6.874.029-7.144-.049-7.144 7.092-7.095 6.893 0 6.816 0 6.852 7.34.031 6.629.031 6.629-6.6 6.629zM461.111 343.091c-.103 7.946.861 6.952-7.323 7.01-6.897.049-6.952.008-6.877-6.437.103-8.824-1.126-7.685 7.556-7.763 6.645-.059 6.645-.007 6.644 7.19zM481.984 386c-8.044-.141-6.955 1.054-6.954-7.265 0-7.781-1.08-6.71 7.483-6.704 7.532.005 6.441-1.091 6.461 7.73.017 7.128.854 6.137-6.99 6.239zM40 377.318c-.14 7.726 1.036 6.662-7.567 6.649-7.455-.012-6.398 1.144-6.406-7.783-.006-7.164-.932-6.165 7.54-6.156 7.388.008 6.321-1.027 6.433 7.29zM468.014 368.828c-.022 7.308-.022 7.308-6.96 7.308-6.129-.219-6.129-.219-6.129-6.849 0-6.519-.053-6.519 6.66-6.466 6.406 0 6.406 0 6.429 6.007zM53.83 374c-6.906 0-6.906 0-6.912-6.414-.006-6.771.006-6.771 6.262-6.716 6.817 0 6.817 0 6.807 6.549-.01 6.581.014 6.576-6.157 6.581z" clip-rule="evenodd"/><path fill="#B13535" fill-rule="evenodd" d="M428.102 329.9l4.771 1.083c2.128.851 4.154 1.476 5.035 2.12.002.295-1.436 4.298-1.323 4.57-2.022 6.034-2.98 6.951-4.651 9.547l-1.022.089c-2.197-.069-3.785-1.143-5.824-2.225 1.57-4.798 2.398-9.686 1.874-14.763-.06-.565.668-.495 1.14-.421z" clip-rule="evenodd"/><path fill="#929DA7" fill-rule="evenodd" d="M338.355 63.262c-16.298 17.904-35.49 34.875-52.291 52.282-2.414 2.501-5.707 4.631-5.93 8.718.996.723 1.778 1.507.799 2.794-.645-.024-5.784-2.017-6.428-2.042 1.32-1.412 1.474-1.618 2.56-2.738 17.701-17.752 35.361-35.546 53.161-53.199 1.989-1.973 4.372-6.02 8.129-5.815z" clip-rule="evenodd"/><path fill="#6F5A59" fill-rule="evenodd" d="M274.506 125.014c-1.026-.431-2.045-.776-2.859-1.056-14.375-4.918-27.935-8.539-42.054-14.223 1.546-1.517 3.321-1.168 5.096-.586 13.797 4.53 27.952 9.246 41.747 13.784-.281.287-1.639 1.826-1.93 2.081z" clip-rule="evenodd"/><path fill="#A8C9D4" fill-rule="evenodd" d="M104.817 139.047c-.016-2.145.218-5.219.151-7.484-.055-1.87.014-3.776-.127-5.039-.11-.982-.68-1.565-1.964-1.565-.605 0-1.407-.115-2.458-.193-1.47-.109-1.297-1.726-1.152-2.872-.034-1.303.436-1.936 5.276.356 2.152 1.02 2.975 2.56 4.791 4.058 4.173 3.442 2.871 8.284 2.283 12.562-.502 3.652-8.619 9.329-12.396 9.065-3.886-.271-8.684 1.805-11.376-3.065.669.014 1.582.002 2.25.017 9.797 0 9.797 0 9.781-2.198-.021-2.962.038-2.47.64-3.119.064-.069.968-.355 2.063-.413.346-.019 1.131.411 2.238-.11z" clip-rule="evenodd"/><path fill="#6B5857" fill-rule="evenodd" d="M431.934 347.221c2.653-4.024 4.009-9.465 5.975-14.117 2.841.608 1.922.368 5.112 1.438 3.247 1.089 3.105.438.347 8.06-3.117 7.774-1.242 8.002-11.434 4.619z" clip-rule="evenodd"/><path fill="#959FAA" fill-rule="evenodd" d="M23.392 348.931c-4.518-.051-4.518-.051-4.464-5.63.042-4.407-.076-4.402 5.523-4.387 4.694.013 4.694.013 4.64 5.786-.041 4.257-.216 4.231-5.699 4.231zM491.137 341.141c4.99 0 4.99 0 4.99 4.888 0 5.133.024 5.133-5.404 5.133-4.844-.099-4.844-.099-4.841-5.687-.023-4.334-.023-4.334 5.255-4.334z" clip-rule="evenodd"/><path fill="#6F5A59" fill-rule="evenodd" d="M425.901 345.168c1.67.714 4.362 1.339 6.032 2.053-.587 1.506-.808 1.594-1.84 3.626-4.453 0-5.255 0-5.269 10.154l.002.503s-3.041 4.912-4.039 5.724c-2.236-1.771-2.857-9.604-5.288-11.218-1.159-3.088.875-5.041 2.529-7.129l4.322-4.161c1.606.206 1.849.236 3.551.448z" clip-rule="evenodd"/><path fill="#CAF1FD" fill-rule="evenodd" d="M221.156 107.592c-1.416 3.997-4.899 14.418-6.315 18.416.434-1.867.994-7.578 1.01-9.07.065-6.031-.31-11.144.106-17.122.086-1.238.007-1.982.016-3.644v-.255c5.274-.019 4.98-.02 5.119 5.045.064 2.335.022 4.305.064 6.63z" clip-rule="evenodd"/><path fill="#959FAA" fill-rule="evenodd" d="M51.904 325.511c0 4.51.004 4.605-4.649 4.605-4.392 0-4.38 0-4.381-4.611-.001-4.713-.001-4.713 4.875-4.622 4.459.083 4.155 0 4.155 4.628zM467.711 323.126c4.4 0 4.346 0 4.355 4.948.008 4.016.008 4.016-4.89 4.016-4.321 0-4.255 0-4.255-5.165.001-3.882.001-3.882 4.79-3.799zM61.919 199.972c15.36.342 30.721.685 46.082 1.026-1.715 1.475-3.795.975-5.743.981-11.138.041-22.277.096-33.415-.03-2.886-.032-5.237.513-6.844 3.051-.681-.479-.354-1.883-1.46-2.031.001-1.516-.086-2.997 1.38-2.997zM42.75 346.998c-.032-4.094.166-4.093 4.301-4.093 4.052 0 4.051 0 4.051 3.898 0 4.297 0 4.288-4.156 4.288-4.225.001-4.225.001-4.196-4.093zM471.875 348.825c0 4.144 0 4.27-3.712 4.27-4.281 0-4.281-.188-4.281-4.181 0-3.989-.002-3.989 4.452-3.989 3.541 0 3.541.169 3.541 3.9zM436.981 333.123c-4.108-.081-4.108-.081-4.108-2.14v-4.691c0-1.521 0-1.521 4.613-1.488 3.775.027 3.774-.095 3.667 4.654-.084 3.706-.064 3.665-4.172 3.665zM81.931 327.127c0 3.97 0 3.968-3.787 3.968-4.144 0-4.258 0-4.261-4.2-.002-3.979-.002-3.979 4.471-3.979 3.723-.001 3.577-.001 3.577 4.211zM455.125 309.188c0 3.97 0 3.907-3.981 3.907-4.273 0-4.259.001-4.261-4.2-.002-3.979-.002-3.979 4.471-3.979 3.722-.001 3.771-.001 3.771 4.272zM68.093 306.998c.047 4.097.161 4.097-4.201 4.097-3.993 0-3.993.001-3.993-3.953 0-4.24 0-4.24 4.209-4.235 3.999-.006 3.985.156 3.985 4.091z" clip-rule="evenodd"/><path fill="#CBA6A3" fill-rule="evenodd" d="M418.894 308.939c6.718-4.68 8.052-11.354 7.009-18.91 5.129 7.319 2.307 15.721-5.137 19.143-.696.229-1.203 0-1.872-.233z" clip-rule="evenodd"/><path fill="#B95E5E" fill-rule="evenodd" d="M392.553 317.748l-18.473.023c.011-5.725.011-5.725 5.587-5.262 1.272-.018 2.491.25 3.672.708.716.18 1.445.293 2.181.373 2.273.114 3.416 1.785 4.625 3.363.802.266 1.605.53 2.408.795z" clip-rule="evenodd"/><path fill="#929EA5" fill-rule="evenodd" d="M96.086 441.03l-5.017 5.979c-5.168 3.319-5.712 3.166-8.196-2.598-1.182-2.743-2.247-5.536-3.366-8.307 2.984.888 3.799 3.349 4.555 5.991.56 1.958.267 4.837 2.852 5.28 2.129.365 3.107-2.159 4.574-3.42.612-.525 1.013-1.297 1.511-1.957.667-1.473 1.63-2.006 3.087-.968z" clip-rule="evenodd"/><path fill="#939EA5" fill-rule="evenodd" d="M421.669 447.133c-1.108-1.525-1.692-2.396-2.769-4.092 2.433.1 3.625 2.053 5.119 3.501 4.54 4.403 5.252 4.24 6.867-2.07.714-2.789 1.472-5.406 4.614-6.376-1.226 3.03-2.376 6.096-3.698 9.085-2.165 4.898-2.884 5.018-7.462 1.774-.62-.439-1.695-.892-2.671-1.822z" clip-rule="evenodd"/><path fill="#ECC5C2" fill-rule="evenodd" d="M390.391 317.035c-1.749-.647-3.745-1.377-5.495-2.024-.682-.876-1.62-1.534-2.155-2.536l-.103-.667c.11-.195.236-.617.347-.813 7.361-.226 7.346 0 7.346 0-.098 1.803-.039 2.631 0 3.172.125 1.737.306 2.949.06 2.868z" clip-rule="evenodd"/><path fill="#959FAA" fill-rule="evenodd" d="M65.088 278.852c0 3.184.058 3.184-3.149 3.184-2.98 0-2.98 0-2.979-2.85 0-3.223 0-3.223 3.104-3.223 3.026 0 3.075.08 3.024 2.889zM456.188 280.875c-.094 3.163-.204 3.163-3.008 3.163-3.223 0-3.22 0-3.22-3.112 0-2.957 0-2.957 2.861-2.957 3.224 0 3.367-.001 3.367 2.906z" clip-rule="evenodd"/><path fill="#953635" fill-rule="evenodd" d="M425.901 345.168c-1.185-.147-2.37-.294-3.553-.444 4.8-4.439 3.685-10.188 3.496-15.732l2.256.91c-.269 5.155.436 10.451-2.199 15.266z" clip-rule="evenodd"/><path fill="#959FAA" fill-rule="evenodd" d="M49.542 257.041c2.542-.029 2.458-.03 2.458 2.709 0 2.104 0 2.104-2.5 2.104s-2.5 0-2.5-2.604c0-2.25-.002-2.25 2.542-2.209zM43.528 299.044c2.477 0 2.477 0 2.475 2.623-.001 2.337.001 2.337-2.564 2.337-2.441 0-2.441.003-2.441-2.315 0-2.678-.001-2.678 2.53-2.645zM442.366 247.952c-2.38.021-2.366.021-2.369-2.356-.003-2.601-.003-2.601 2.657-2.601 2.351 0 2.349 0 2.349 2.409 0 2.587 0 2.587-2.637 2.548zM473.949 303.333c.043 2.671.043 2.669-2.51 2.669-2.447 0-2.444 0-2.444-2.312 0-2.692.13-2.692 2.566-2.692 2.431 0 2.431 0 2.388 2.335zM467.95 261.281c.044 2.724.044 2.724-2.451 2.722-2.505 0-2.5 0-2.501-2.253-.001-2.752-.001-2.752 2.503-2.752 2.493 0 2.493 0 2.449 2.283z" clip-rule="evenodd"/><path fill="#8C9AA2" fill-rule="evenodd" d="M60.54 202.844c.935.28 1.315 1.263 1.46 2.156-1.385 4.084 3.369 6.46 2.864 10.299-1.54-1.603-3.898-4.29-3.989-4.736-.266-1.308-.191-4.593-.335-7.719z" clip-rule="evenodd"/><path fill="#909AA4" fill-rule="evenodd" d="M418.313 309.953c.281-.039.969-.006 1.971 0 1.701 0 1.701 0 1.701 2.419 0 1.378 0 1.378-1.968 1.378-1.863 0-1.86-.125-1.86-2.404.089-.593.052-.7.156-1.393z" clip-rule="evenodd"/><path fill="#959FAA" fill-rule="evenodd" d="M84.004 270.834c-1.952.013-1.952.013-1.952-1.835 0-1.814 0-1.811 1.95-1.811 1.954 0 1.947 0 1.95 1.876.004 1.783.004 1.783-1.948 1.77zM431.034 269.071c1.856-.009 1.911-.001 1.911 1.716 0 2.156.004 2.156-1.988 2.156-1.906 0-1.906.002-1.906-1.73 0-2.15-.003-2.15 1.983-2.142z" clip-rule="evenodd"/><path fill="#9BA4AF" fill-rule="evenodd" d="M411.142 278.838l-5.333-.065c-.001-2.8-.001-2.8 1.129-2.8l3.719-.004c.485 0 .485 0 .485 2.869z" clip-rule="evenodd"/><path fill="#959FAA" fill-rule="evenodd" d="M412.583 238.882c-1.466.001-1.464.001-1.465-1.42-.001-1.334-.001-1.334 1.538-1.334 1.225 0 1.213.122 1.214 1.174.002 1.581.002 1.581-1.287 1.58z" clip-rule="evenodd"/><path fill="#CBF2FE" fill-rule="evenodd" d="M211.013 68.353l.679-.299c.307.355.803.542.772 1.172-.848 17.372 2.49 34.627 1.49 51.985-.2 3.482.664 7.836-3.918 9.746-10.727-3.148-10.736-3.151-14.219 7.578-2.774 8.546-5.457 17.122-8.325 25.636-.869 2.579-.311 3.739 2.278 4.859 9.439 4.083 9.374 4.196 6.225 13.833-3.979 12.178-7.929 24.364-11.896 36.546-.625 1.923-.977 3.836-3.998 2.83a8871.884 8871.884 0 0 0-49.435-16.322c0-3.583.221-6.836.211-10.444-.081-30.777 1.59-61.534 1.018-92.32-.146-7.884 1.398-9.055 9.394-9.325 15.289-.517 30.567-1.364 45.876-1.006 4.984.116 9.948.059 14.928.771 5.172.74 6.559-.701 6.704-5.951.124-4.493-.026-8.989.085-13.483.054-2.169-.004-4.394 2.131-5.806z" clip-rule="evenodd"/><path fill="#A5684C" fill-rule="evenodd" d="M218.105 162.135c-11.712-3.549-11.712-3.549-8.074-14.917.254-.793.526-1.582.757-2.382 2.738-9.475 2.761-9.574 12.036-7.343 2.642.636 3.496-.363 4.358-2.573 4.037-10.352 4.081-10.295 14.845-6.792 23.922 7.785 47.869 15.499 71.781 23.315 7.07 2.311 6.76 1.242 4.402 8.344-.105.316-.189.639-.293.955-1.992 6.066-2.071 6.363 4.286 8.056 4.716 1.256 6.746 3.107 4.118 7.9-.627 1.146-.746 2.558-1.235 3.793-1.31 3.307-.425 5.025 3.163 6.184 8.705 2.81 8.646 2.995 5.762 11.724-1.307 3.956-2.495 7.955-3.959 11.852-1.047 2.787-.422 4.107 2.502 5.15 8.703 3.108 8.655 3.24 5.717 12.131-1.359 4.113-2.816 8.198-4.034 12.354-.802 2.736-2.251 3.318-4.853 2.412-5.664-1.975-11.414-3.698-17.071-5.692-3.31-1.166-5.201-.525-6.415 3.058-2.418 7.129-2.579 7.047-9.597 5.196-1.794-.613-3.249-1.344-5.126-1.841-2.152-1.634-1.076-3.657-.477-5.826 1.193-4.326 2.684-8.567 4.195-12.792.965-2.694.395-4.173-2.439-5.33-7.316-2.985-7.793-4.266-5.602-11.653 1.229-4.143 2.34-8.324 3.775-12.402 1.008-2.865.482-4.827-2.707-5.686-1.111-.299-2.205-.733-3.272-1.204-4.542-2-5.396-3.69-4.313-8.624.214-.977.428-1.976.833-2.87 1.7-3.761-.003-5.427-3.511-6.495-11.767-3.582-23.498-7.282-35.136-11.27-4.875-1.67-9.797-3.205-14.658-4.91-2.937-1.03-4.623-.521-5.551 2.729-.632 2.217-.897 5.126-4.207 5.449z" clip-rule="evenodd"/><path fill="#FEDDBA" fill-rule="evenodd" d="M218.105 162.135c1.039-2.97 2.235-5.897 3.069-8.924.703-2.552 1.87-2.961 4.32-2.15a7290.546 7290.546 0 0 0 56.411 18.393c2.351.756 3.522 1.714 2.281 4.215-.146.294-.197.634-.296.951-3.079 9.946-3.126 10.087 6.741 13.416 3.399 1.146 3.907 2.652 2.733 5.84-2.065 5.61-3.597 11.415-5.614 17.044-1.086 3.029-.41 4.442 2.684 5.527 8.314 2.916 8.246 3.041 5.444 11.67-1.692 5.213-3.302 10.452-4.948 15.678-1.027 3.146-2.127 6.271-3.058 9.447-.726 2.479-1.966 2.858-4.444 2.135-9.602-2.799-9.656-2.708-13.045 6.496-1.416 3.847-1.385 3.722-4.697 2.565a104.557 104.557 0 0 1-3.329-1.243c-4.765-1.851-4.765-1.851-3.298-6.176 2.306-6.048 3.936-12.351 6.008-18.494.892-2.645.18-3.931-2.479-4.776a4885.568 4885.568 0 0 1-46.026-14.91c-2.469-.813-3.775-.21-4.422 2.248-.338 1.283-.823 2.529-1.279 3.778-2.751 7.535-.767 7.354-9.425 4.84-3.428-.995-4.453-2.205-3.194-5.912 6.519-19.204 12.758-38.504 19.062-57.78.408-1.247.541-2.583.801-3.878z" clip-rule="evenodd"/><path fill="#FCFCFD" fill-rule="evenodd" d="M211.013 68.353c-.003 6.819-.005 13.64-.01 20.46-.005 7.283-.033 7.628-7.471 7.047-6.964-.543-13.917-.668-20.884-.896-14.805-.483-29.547 1.268-44.334.99-3.242-.061-4.43 1.159-4.355 4.381.152 6.483-.097 12.977.049 19.461.61 27.101-1.523 54.17-.862 81.261-.018 2.819-.28 5.58-.28 5.58-.709-.261-2.252-.617-4.878-1.485-4.642-1.094-6.723-1.618-7.378-1.841-.797-.107 4.281-.06 4.984-.998 2.101-2.801 1.369-9.437 1.365-12.354-.058-38.626.287-77.155.292-115.78 0-1.996.093-3.992.144-5.987l83.618.161z" clip-rule="evenodd"/><path fill="#CBF2FE" fill-rule="evenodd" d="M132.843 278.852c-.828-2.095-2.655-3.352-4.15-4.867-14.166-14.36-28.36-28.693-42.546-43.034.811.005 1.452.028 2.811.005 7.83-.135 14.557.389 21.932.389 2.979.139 3.534.378 5.811.378 4.364 3.848 8.153 3.556 13.502 5.114 4.038 1.176 5.387 3.24 3.782 7.143-1.402 3.588-1.797 6.801 3.009 8.076 2.705 2.438 6.921 3.945 5.338 9.278-1.988 6.25-3.927 11.354-5.485 17.49l-4.004.028z" clip-rule="evenodd"/><path fill="#FEFEFE" fill-rule="evenodd" d="M112.642 231.452c-8.923.048-18.11-.47-26.495-.501-6.76-6.589-13.128-13.42-19.923-19.974-1.818-1.754-1.842-3.844-1.299-5.974.504-1.975 2.344-1.521 3.751-1.517 16.243.041 32.487.127 48.73.201-.863 7.554-4.165 14.279-6.223 21.471-.23.804-1.588 3.85-1.088 5.059.311.908 2.547 1.235 2.547 1.235z" clip-rule="evenodd"/><path fill="#797CC5" fill-rule="evenodd" d="M230.008 288.15c-1.265-1.724-3.778-5.338-5.387-6.792 1.921.532 4.833 1.755 6.92 2.239 3.048.707 6.624-.163 9.617.753 5.983 1.83 6.014 1.84 8.154-3.852.651-1.73 1.343-3.371 2.983-4.402 6.407 2.066 12.813 4.135 19.222 6.196 2.039.656 4.396 1.302 6.225 2.317-6.688 6.121-13.315 13.17-15.232 22.494-.881 4.289-.324 8.624-.592 12.931-3.699 2.337-6.811-.491-10.153-1.192-2.086-.438-3.804-1.802-5.762-2.578-4.991-4.646-6.799-11.16-9.831-16.946-1.977-3.77-3.376-7.847-6.164-11.168z" clip-rule="evenodd"/><path fill="#FDDDBA" fill-rule="evenodd" d="M173.839 288.108c-2.329-3.531-5.151-6.529-9.037-8.38 1.948-4.624 2.136-5.169-3.74-6.896-5.813-1.708-5.813-1.708-5.227-3.428 1.021-2.998 1.67-6.364 2.954-9.401.582-1.377 2.092-.432 3.13-.101 5.855 1.867 11.667 3.877 17.548 5.653 2.588.782 2.772 2.116 2.131 4.474-2.571 9.456-2.536 9.575 6.6 12.912 2.664.973 3.155 2.176 2.379 4.806-2.346 7.949-2.583 8.092-12.579 4.164-2.036-.556-2.539-2.79-4.159-3.803zM252.159 276.097c-1.235 6.819-3.183 11.453-4.097 12.185-.781.625-4.326-.875-9.932-2.581-3.932-1.195-9.162-2.731-13.568-4.294-.438-.266-.438-.266-1.488-1.07 1.795-5.302 2.274-6.781 4.08-12.107l25.005 7.867z" clip-rule="evenodd"/><path fill="#6B5857" fill-rule="evenodd" d="M347.986 248.825l12.029-36.818c.442-.36.949-.529 1.521-.511 2.971.716 4.016 2.699 3.684 5.59-2.544 9.365-5.62 18.567-8.667 27.785-.629 1.91-1.459 3.742-3.082 4.977-2.117 1.61-4.183 2.128-5.485-1.023z" clip-rule="evenodd"/><path fill="#6E5A59" fill-rule="evenodd" d="M346.603 190.041c-7.228-1.854-7.228-1.854-5.422-8.122 1.84-6.386 4.217-12.604 6.326-18.906 4.627-.516 7.44 1.82 6.511 5.819-1.574 6.771-3.777 13.376-5.956 19.979-.218.661-.806 1.017-1.459 1.23z" clip-rule="evenodd"/><path fill="#CA5D5D" fill-rule="evenodd" d="M325.994 273.002c1.256-3.346 1.068-2.971-5.463-5.252-2.073-.725-5.844-1.502-5.844-2.602 0-3.117 1.832-7.069 3.113-10.076.642-1.506 2.287-.741 3.547-.372 2.845.833 5.693 1.651 8.541 2.476 2.152 1.996.766 4.246.393 6.381-.342 1.952-.996 3.893 1.384 5.063.837.832 2.125 1.164 2.614 2.375-1.924 4.125-5.232 2.536-8.285 2.007z" clip-rule="evenodd"/><path fill="#797CC5" fill-rule="evenodd" d="M227.154 268.229c-1.36 4.014-2.72 8.094-4.08 12.107-4.026-2.584-8.56-2.45-13.058-2.442 1.052-3.285 2.298-6.522 3.102-9.867.834-3.472 2.55-4.024 5.644-2.695 2.712 1.165 5.589 1.945 8.392 2.897z" clip-rule="evenodd"/><path fill="#95A1AB" fill-rule="evenodd" d="M210.036 130.957c1.384-1.191 1.729-2.796 1.728-4.506-.017-19.466-.044-38.932-.07-58.397 1.767 1.327 1.268 3.268 1.289 5.023.068 5.606-.16 11.228.189 16.814.141 2.245 2.801 3.796 2.801 6.28-.046 7.924.083 19.148-.14 26.981-1.022 3.006-1.022 3.006-2.182 6.077-.522 1.382-1.193 2.349-3.615 1.728z" clip-rule="evenodd"/><path fill="#CA5D5D" fill-rule="evenodd" d="M325.994 273.002c2.014-3.561 5.813-.229 8.182-2.18.348.009 0-.049.73.193 1.141.203 1.283.696 2.029 1.234.469.146 1.175.554 1.58.828 1.354.92.984.891 1.362 1.662-.816 3.516-.619 7.385-3.092 10.191-.856.678-1.772 1.243-2.858 1.478-4.418.422-7.855-1.521-10.855-4.514l2.922-8.892z" clip-rule="evenodd"/><path fill="#797CC5" fill-rule="evenodd" d="M307.097 278.841c-9.32-.108-20.367.951-28.382 5.159.75-3.375 2.471-7.378 3.436-10.843.523-1.878 1.867-2.076 3.551-1.487 7.055 2.469 14.569 4.011 21.395 7.171z" clip-rule="evenodd"/><path fill="#6F5A59" fill-rule="evenodd" d="M331.375 269.734c-4.236-2.101-4.625-1.766-3.518-5.077.815-2.438 1.732-4.865 2.393-7.365.891-2.792 1.423-3.945 2.109-5.938 2.129-6.184 2.561-6.368 8.664-3.402-3.137 6.225-7.031 17.568-7.536 18.544-.616 1.19-1.621 3.396-2.112 3.238z" clip-rule="evenodd"/><path fill="#FBDCBA" fill-rule="evenodd" d="M209.208 232.125c1.188-.229 12.872 4.129 13.042 5 .167.854-3.172 11.475-3.75 11.469-2.905-.032-11.042-2.675-13.021-4.489-.785-.721 2.75-11.48 3.729-11.98z" clip-rule="evenodd"/><path fill="#EBC0BC" fill-rule="evenodd" d="M349.945 191.241a7.996 7.996 0 0 0-.858-.455c-2.292-1.971-1.06-4.26-.503-6.423 1.072-4.164 2.99-8.04 4.227-12.159 1.979-6.597 1.965-6.665-3.902-10.213a22.991 22.991 0 0 0-3.975-1.923l-.011.036c-1.692-1.533-2.421-3.245-1.571-5.59.536-1.481.848-3.13.124-4.725-.44-1.339-1.608-2.595-.474-4.114.7-.449 1.451-.529 2.248-.33a4.02 4.02 0 0 1 1.877 1.454c1.207 1.844 1.34 3.96 1.539 6.058-.43 2.688.889 4.11 3.181 5.438 7.11 4.119 8.126 6.994 5.731 14.781-1.073 3.488-2.328 6.922-3.307 10.44-.68 2.44-.5 4.44 2.145 5.86 2.029 1.09 3.979 2.639 3.014 5.552-.48.627-1.137.894-1.902.944-2.352-.478-4.193-2.044-6.326-2.998-.477-.497-.716-1.182-1.257-1.633z" clip-rule="evenodd"/><path fill="#EEC3BF" fill-rule="evenodd" d="M344.99 146.002l-2.004.004c-3.406 2.313-5.292-2.007-8.197-1.881-10.41-2.984-20.762-6.146-30.899-9.972.005-.103 1.262-1.197 1.267-1.2.476-.281 1.323-.505 2.379-1.575 2.357-.32 3.602.488 5.819 1.287 8.691 3.13 17.614 5.555 26.362 8.518 2.394.811 5.33 1.235 5.273 4.819z" clip-rule="evenodd"/><path fill="#907673" fill-rule="evenodd" d="M355.008 244.002l8.94-27.027c1.712-3.269-.705-4.065-2.966-4.957-.322.003-.645-.001-.967-.012l.02-2.902a2.004 2.004 0 0 1 1.45-.64c6.479 2.33 7.683 4.473 5.635 10.759-2.256 6.922-4.035 13.995-6.612 20.812-.684 1.808-.969 3.942-3.228 4.689-.868.111-1.616-.163-2.272-.722z" clip-rule="evenodd"/><path fill="#957B7A" fill-rule="evenodd" d="M355.008 244.002c.692.009 1.385.017 2.078.024 1.562 4.612-.436 8.051-4.928 8.41a17.23 17.23 0 0 1-3.984-.156c-5.549-.853-6.509-.651-8.257 4.866-.065.511.341 1.081.14 1.555-2.463 3.82-2.293 8.737-5.15 12.395-.307.023-.561-.34-.859-.268-.954-.348-1.61-.729-2.562-1.078 3.658-4.509 3.517-9.938 5.745-15.015 1.049-2.389 1.228-5.246 3.793-6.783 2.357.006 4.537 1.415 6.963.875 5.223 2.587 5.812-1.569 7.021-4.825z" clip-rule="evenodd"/><path fill="#4E6274" fill-rule="evenodd" d="M163.04 311.161c9.264-3.465 13.105-10.223 12.099-19.924.843-.636.94-.088.951.599 2.773 4.31 2.595 9.251-.498 13.786-3.075 4.51-7.791 6.591-12.552 5.539z" clip-rule="evenodd"/><path fill="#CBA6A3" fill-rule="evenodd" d="M344.934 160.068c10.197 1.635 11.909 4.473 8.482 14.155-1.912 5.401-5.498 10.358-4.33 16.563a1457.9 1457.9 0 0 0-2.48-.745c.602-6.5 3.283-12.448 5.255-18.546 1.566-4.843.188-7.233-4.352-8.482-.062-1.68-1.921-1.785-2.575-2.945z" clip-rule="evenodd"/><path fill="#EBECEC" fill-rule="evenodd" d="M305.152 133.069c-.381.375-.883.709-1.264 1.084l-25.505-7.887c.673-.834.984-1.021 1.783-1.891.773-.616 1.188-.999 1.798-1.441 6.943 1.605 13.541 4.276 20.232 6.646 1.454.515 3.345 1.254 2.956 3.489z" clip-rule="evenodd"/><path fill="#A8C9D4" fill-rule="evenodd" d="M133.986 243.979c.5-3.329-.917-4.938-4.183-6.01-5.346-1.756-9.837-.501-13.102-6.247 6.029 2.146 10.342 2.605 16.364 4.772 5.206 1.873 1.683 4.857.921 7.485z" clip-rule="evenodd"/><path fill="#6C5A5A" fill-rule="evenodd" d="M352.813 206.172c-6.25-2.234-6.25-2.234-2.797-11.224 3.532-1.744 5.072.145 5.282 3.298.184 2.774-.248 5.787-2.485 7.926z" clip-rule="evenodd"/><path fill="#5F7289" fill-rule="evenodd" d="M323.072 281.896l10.795 3.192c3.661 2.207 3.18 4.461.077 6.745-4.194-3.708-7.757-6.208-12.048-8.778l1.176-1.159z" clip-rule="evenodd"/><path fill="#655556" fill-rule="evenodd" d="M338.998 158.873c-6.693-1.626-2.898-5.572-1.965-8.885 3.967-.858 5.668.518 4.973 4.096-.38 1.958-1.231 3.68-3.008 4.789z" clip-rule="evenodd"/><path fill="#FCFCFD" fill-rule="evenodd" d="M110.203 227.93c-2.09-2.392.399-4.323.919-6.265 1.609-6.008 3.839-11.851 5.828-17.758.201-.249 1.17-.355 1.543-.327-1.873 3.529-5.667 16.371-8.29 24.35z" clip-rule="evenodd"/><path fill="#937876" fill-rule="evenodd" d="M352.813 206.172c.279-1.925.561-4.028.934-5.934.609-3.118-.136-5.184-3.73-5.29-.023-1.236-.048-2.472-.07-3.708l1.102.725c7.275 3.174 8.4 7.512 3.907 15.066-.689-.341-1.455-.518-2.143-.859z" clip-rule="evenodd"/><path fill="#9A7E7C" fill-rule="evenodd" d="M337.916 148.013l-.048-1.794c3.091-.72 4.972 1.027 6.619 3.251 1.022 3.672-1.3 6.893-1.402 10.411l-2.112-.853c-.828-.817-.909-1.915-.449-2.781 1.96-3.692.529-6.209-2.608-8.234z" clip-rule="evenodd"/><path fill="#CCA7A4" fill-rule="evenodd" d="M354.954 207.031c.054-1.457-.288-3.075.229-4.344 2.03-4.986.46-8.391-4.136-10.723 2.492.054 4.595.884 6.041 3.024 2.049 1.164 2.464 2.812 1.717 5.008-.627 1.845-1.27 3.742-.816 5.768-.053.781-.381 1.429-.957 1.953-.969-.3-.874-.221-2.078-.686z" clip-rule="evenodd"/><path fill="#4E667E" fill-rule="evenodd" d="M124.936 312.167c6.327-.035 12.655-.074 18.982-.093.475-.002.95.148 1.423.925-4.5 0-9.013.218-13.494-.071-3.387-.219-5.723.694-6.897 3.979-1.405-1.577-1.493-3.156-.014-4.74z" clip-rule="evenodd"/><path fill="#B3D6E2" fill-rule="evenodd" d="M142.354 261.264c.918-4.469-4.51-5.73-5.358-9.209 7.58 2.339 7.832 2.976 5.358 9.209z" clip-rule="evenodd"/><path fill="#786362" fill-rule="evenodd" d="M337.916 148.013c3.611 1.182 4.85 3.481 3.586 7.169-.412 1.201-.365 2.56-.528 3.847l-1.976-.154c.414-1.397.741-2.827 1.258-4.184 1.213-3.181.03-4.629-3.223-4.702l.883-1.976z" clip-rule="evenodd"/><path fill="#C7A3A0" fill-rule="evenodd" d="M343.085 159.881c-.79-3.688 1.383-7.155.81-10.827.347-.47.719-.49 1.115-.062 2.188 3.721-2.046 7.392-.086 11.111l-1.839-.222z" clip-rule="evenodd"/><path fill="#D3ACA9" fill-rule="evenodd" d="M345.01 148.992l-1.115.062-6.025-2.836c-1.027-.697-2.053-1.396-3.079-2.094 2.958-.361 5.409 1.495 8.197 1.882l2.022 2.986z" clip-rule="evenodd"/><path fill="#4F5E6C" fill-rule="evenodd" d="M124.936 312.167l.014 4.74-2.823.107.073-5.023c.912.058 1.823.116 2.736.176z" clip-rule="evenodd"/><path fill="#E7CDB0" fill-rule="evenodd" d="M176.089 291.836l-.95-.599-1.298-3.13c3.04-.54 2.565 2.763 4.158 3.806l-1.91-.077z" clip-rule="evenodd"/><path fill="#D7AFAC" fill-rule="evenodd" d="M357.031 207.718l-.054-1.685c2.941-.812 5.221-.268 6.165 3.011-.735.517-1.079.559-2.16.248-.52-.116-.52-.116-.948-.189l-3.003-1.385z" clip-rule="evenodd"/><path fill="#FECFCB" fill-rule="evenodd" d="M344.9 145.948c-3.544-3.526-8.559-3.413-12.859-4.966-8.572-3.094-17.667-5.614-26.4-8.264 1.301-1.632 2.674-2.725 4.161-4.229 9.95-10.063 18.403-21.351 28.592-31.171 5.685-5.479 10.496-5.544 16.108.096 16.905 16.988 34.396 33.396 50.527 51.156 7.163 7.886 15.113 15.025 22.414 22.784 1.809 1.922 5.245 4.226.904 7.201-10.943 1.205-21.914.388-32.868.528-12.568.161-12.569.047-12.569 12.521-.001 26.765.006 53.53-.009 80.295-.001 2.461.421 5.071-1.952 6.871-8.425.048-16.85.102-25.275.141-2.314.011-4.635-.068-6.832.856-2.122-3.734-5.192-6.302-9.211-7.875-2.807-1.099-3.373-3.141-2.469-6.077 1.074-3.495 2.536-6.845 3.524-10.373.901-3.217 3.16-4.313 6.573-3.521 7.67 1.779 8.687 1.104 11.238-6.23 3.108-8.936 5.9-17.972 8.744-26.992 1.831-5.809.997-7.979-4.372-10.927-5.872-3.224-5.896-3.229-4.407-9.385.278-1.146.41-2.285.466-3.447-.349-2.509-2.08-3.6-4.29-4.253-3.186-.942-4.059-2.878-2.904-6.067 1.463-4.044 2.584-8.211 3.91-12.305 2.418-7.466 1.576-9.769-5.703-12.714-3.507-1.419-4.965-3.079-3.025-6.646 1.184-2.256.398-4.181-1.008-6.001l-1.008-1.006z" clip-rule="evenodd"/><path fill="#E26C57" fill-rule="evenodd" d="M165.953 363.898c2.046-4.338 4.019-8.714 6.153-13.009a15174.352 15174.352 0 0 1 28.571-57.234c1.181-2.352 2.013-4.962 4.126-6.763 8.344-4.879 12.493-4.664 19.435 1.009 5.074 8.229 8.797 17.144 12.928 25.84 7.334 15.437 15.439 30.513 21.817 46.398 1.453 5.403-.846 10.154-6.479 13.392-4.834 2.778-10.274 1.879-14.772-2.44-1.87-6.599-6.816-6.459-12.189-5.7-10.332 1.459-20.007 4.781-29.278 9.537-4.55 2.335-9.381 4.121-14.085 6.155-11.843 2.183-18.71-5.091-16.227-17.185z" clip-rule="evenodd"/><path fill="#3E83A9" fill-rule="evenodd" d="M118.141 346.407a.537.537 0 0 1-.232.601c-.928 6.435-.229 12.902-.391 19.353-.176 7-4.959 11.684-12.07 11.642-7.129-.041-11.923-4.696-11.933-11.767-.034-22.909-.015-45.818-.012-68.719 1.702-9.227 5.328-12.854 14.499-14.494l49.981.078c6.872 2.205 9.708 5.579 9.911 11.786.189 5.796-2.627 9.625-8.897 12.095-13.504.616-27.011.484-40.518.105-2.885 4.579-1.394 9.536-.981 14.306.191 2.213 2.627 2.108 4.492 2.108 8.151-.002 16.304-.023 24.455.006 6.998.025 9.694 3.079 9.629 10.813-.062 7.305-2.769 10.153-9.736 10.175-7.653.022-15.306-.01-22.958.015-1.955.006-4.101-.407-5.239 1.897zM289.382 355.855c5.175 3.04 10.757 3.04 16.458 2.228 2.934-.418 5.814-1.166 6.424-4.516.567-3.115-1.834-4.742-4.135-6.192-.693-.438-1.451-.775-2.18-1.158-6.648-1.793-13.543-2.63-19.932-5.444-14.805-6.522-21.902-19.002-18.035-33.057 3.425-12.451 11.934-19.933 24.535-22.667 3.387-.735 6.811-1.485 10.33-.981 2.303.594 4.723.315 7.023.927 4.584 1.223 9.234 2.284 13.017 5.435 4.156 2.659 5.649 6.274 4.196 11.099-1.598 5.303-5.195 8.356-10.445 9.62-1.559.375-2.883-.369-4.216-1.123-2.165-1.224-4.351-2.44-6.85-2.89-3.472-.083-6.939-.113-10.285 1.035-2.913.999-4.813 3.014-5.147 6.061-.322 2.931 2.411 3.53 4.214 4.872 2.211 1.645 4.935 2.064 7.669 3.189 4.935.75 8.175 1.788 12.439 2.778 2.279.934 4.287 2.45 6.676 3.161 7.223 4.72 12.238 11.008 13.953 19.644.676 3.331.534 6.654-.066 9.97-.379 3.944-2.134 7.332-4.303 10.55-1.997 2.401-4.087 4.711-6.536 6.673-4.313 3.425-9.181 5.47-14.692 5.925-7.271.451-14.488.932-21.668-1.257a41.497 41.497 0 0 1-11.557-5.566 5.256 5.256 0 0 1-1.407-.949c-2.711-5.061-2.434-10.042.766-13.786 3.787-4.435 7.926-5.512 13.754-3.581zM369.09 307.394c-1.063 14.496-1.063 14.469 12.998 14.5 8.965.021 17.93.135 26.895.207 6.871 2.205 9.708 5.579 9.911 11.786.189 5.795-2.628 9.624-8.898 12.095-11.916.119-23.833.221-35.749.379-1.783.023-3.655-.461-5.326.618a4.799 4.799 0 0 0-.787 1.633c-.288 4.494-.014 8.993-.15 13.486-.182 5.988-4.66 9.687-11.582 9.643-6.954-.045-11.345-3.713-11.369-9.836-.077-19.82-.153-39.643.023-59.461.094-10.616 6.672-17.569 17.073-18.451 13.294-1.128 26.622-.379 39.934-.408 5.545-.012 9.032 4.94 8.962 11.685-.071 6.885-3.442 11.085-9.405 11.187-9.325.16-18.655-.007-27.981.093-1.508.013-3.322-.92-4.549.844z" clip-rule="evenodd"/><path fill="#FED833" fill-rule="evenodd" d="M90.959 440.91c-4.218 4.376-3.974 4.099-6.264-1.712-.558-1.415-1.127-2.764-1.555-4.188-3.633-12.094-4.265-13.01-17.446-20.718-3.062-1.79-6.364-3.601-9.658-5.179-3.108-1.489-4.236-2.619-.754-5.231 4.248-3.187 7.92-7.145 12.19-10.295 3.558-2.625 5.012-5.933 5.449-10.105.604-5.783 1.532-11.533 2.117-17.318.31-3.062 1.343-3.8 4.096-2.203 3.158 1.833 6.442 3.448 9.672 5.158-.216 9.981 8.53 19.176 18.104 17.978 2.225-.278 4.072-1.237 6.097-1.867 4.635-1.625 7.82-4.734 9.555-9.329.589-1.561 1.143-3.146 2.872-3.869 4.449-.651 4.74 2.061 4.017 5.229-1.224 5.354-2.865 10.606-4.568 15.822-.886 2.715-.793 5.021.397 7.647 2.407 5.313 5.211 10.426 7.643 15.72 2.508 5.462 1.459 7.306-4.445 8.663-4.054.933-8.172 1.577-12.277 1.794-6.751.357-12.135 2.248-18.144 6.431-2.412 2.658-4.39 5.204-7.098 7.572z" clip-rule="evenodd"/><path fill="#95A0AA" fill-rule="evenodd" d="M90.959 440.91c.34-.352.723-.671 1.013-1.059 9.144-12.209 22.05-16.188 36.528-16.572 4.389-.116 5.312-1.73 2.932-5.355-.091-.139-.137-.307-.23-.442-8.898-12.852-10.714-26.315-3.692-40.645 1-2.04 1.642-4.517-2.355-3.666-.615.139-1.608.11-1.562-.487-1.059-3.082-.58-6.224-.36-9.349.21-.499.542-.915.974-1.24 5.365-.19 5.591-5.025 7.506-8.348.6-.328 1.24-.551 1.912-.366 8.95 2.464 17.817 5.19 26.497 8.494.464.177.694.694.922 1.141-1.557 4.972-1.701 9.939.034 14.904.38 2.447-1.578 2.584-3.087 2.962-6.291 1.574-12.318 3.604-17.215 8.171-1.758 1.64-4.163 1.773-6.51 1.987-2.375.218-5.131.115-5.782 3.396-.331 1.508-1.015 3.027.159 4.486 2.59 5.555 5.635 10.882 8.127 16.487.489 3.486 4.51 6.02 2.751 10.118-1.312 2.083-3.823 1.971-5.653 3.116-7.41 1.183-14.55-.032-21.93 1.324-2.918.581-5.213 1.653-7.019 3.045-.853 1.08-7.993 7.422-6.856 6.35-.313.002-1.665 1.673-1.978 1.667l-3.086.97-2.04-1.089z" clip-rule="evenodd"/><path fill="#CCE9ED" fill-rule="evenodd" d="M265.961 463.974c-2.018-.45-3.986 2.215-6.029.092 4.146-2.145 2.728-7.035 4.99-10.109 1.074-1.471.934-3.243 1.223-4.915.566-1.229.767-2.509.885-3.859.724-8.257 5.309-13.44 13.459-14.842 2.577-.442 4.251-1.269 5.119-3.862 1.465-4.378 5.958-5.541 9.108-8.139 1.093-.666 1.991-1.684 3.362-1.836 1.865-.254 3.602-1.002 5.43-1.418 4.822-1.176 9.793-1.218 14.676-1.979 7.205-1.124 14.087.512 20.707 3.376 4.387 1.528 8.793 2.886 13.357 3.916 10.082 2.276 15.219 11.881 11.351 20.415-2.109 1.214-2.975-.52-3.959-1.767-.821-1.041-1.224-2.355-1.934-3.479-5.595-8.856-9.675-10.315-19.599-6.813-3.857 1.36-7.338 1.155-10.931-1.026-9.477-5.755-19.97-4.575-28.3 2.971-2.463 2.229-4.726 4.674-7.245 6.846-1.651 1.424-3.405 2.627-5.558 3.207-5.564 1.498-9.879 7.734-9.738 13.503.06 2.455 1.381 2.689 3.182 2.692 5.055.006 9.845 1.265 14.572 2.941 5.322 1.889 10.875.987 16.32 1.001 4.643.012 8.879 1.114 12.857 3.342 1.521.852 3.46 1.611 2.729 4.062-1.216.916-2.43.591-3.722.12-4.932-1.796-9.882-2.004-14.815.026-2.612.179-5.256-.111-7.841.516-3.232.319-6.193-.802-9.123-1.862-7.955-2.883-16.056-4.433-24.533-3.12z" clip-rule="evenodd"/><path fill="#9CA2AC" fill-rule="evenodd" d="M381.039 278.825c-.079-24.249-.168-48.499-.234-72.748-.02-7.31-.032-14.619.047-21.928.067-6.172.565-6.793 6.897-6.896 9.964-.164 19.934-.046 29.9-.077 4.15-.013 8.301-.104 12.451-.159 4.508-3.437 9.106-2.899 13.752-.313l-.854 2.296c-2.438.003-4.878-.064-7.312.026-3.198.119-1.171 1.696-.725 2.815-14.799-.011-29.6.162-44.392-.137-4.745-.096-5.824 1.56-5.797 6.005.178 28.265.103 56.531.093 84.797-.001 2.143.008 4.088-.148 6.346-.998-.01-2.676-.018-3.678-.027z" clip-rule="evenodd"/><path fill="#B63636" fill-rule="evenodd" d="M418.029 348.881l-1.784 6.954c-6.156 5.293-6.206 5.455-3.731 12.252-.186.525-.238.751-.499 1.206-.608.26-.608.26-4.327-.681-3.97-1.234-7.655-1.467-10.287 3.124-.415.282-.925 1.061-1.409 1.18-3.212.428-6.435-.83-9.597.113-1.931.187-3.037 1.709-4.435 2.774-.942.5-1.94.581-2.978.435-1.304-.439-2.656-.738-3.875-1.411a2.851 2.851 0 0 1-.941-1.405c-.214-4.867-.38-9.735.088-14.594 1.584-2.442 3.818-1.411 5.817-.936 3.243.771 5.473.132 6.377-3.44.83-3.281.865-4.111 6.349-4.232 8.904-.116 13.495-.035 19.2-.042l6.032-1.297z" clip-rule="evenodd"/><path fill="#4386AC" fill-rule="evenodd" d="M369.09 307.394c1.281-1.876 3.255-1.366 5.02-1.375 8.154-.043 16.309-.001 24.463-.025 7.928-.022 13.011-8.608 9.447-15.881-2.07-4.226-4.888-6.575-10.128-6.215-11.921.819-23.948-1.024-35.832 1.063-9.84 1.728-15.901 8.638-15.999 18.696-.186 19.136-.098 38.274-.031 57.412.019 5.319 4.252 8.582 10.635 8.516 6.373-.065 10.056-3.344 10.377-8.842.269-4.585-.806-8.682 1.203-13.145.938.446.472 14.29-.009 21.688-.271 4.163-3.373 7.291-7.646 8.258-4.647 1.051-9.3 1.106-12.948-2.831-1.369-1.477-2.445-3.147-3.084-5.076-.13-23.786-.062-47.571-.033-71.357.011-8.504 4.165-13.056 13.475-15.224l50.99.037c7.179 2.384 9.835 5.53 9.915 11.744.077 5.995-2.632 9.693-8.905 12.157-13.638.132-27.273.266-40.91.4z" clip-rule="evenodd"/><path fill="#4184AB" fill-rule="evenodd" d="M118.141 346.407c-.331-3.214 1.757-3.423 4.137-3.415 8.166.028 16.332.062 24.498-.014 5.462-.05 7.217-2.308 7.223-8.939.006-6.68-1.729-8.964-7.145-9.016-8.332-.08-16.67-.201-24.995.054-3.917.12-5.943-1.653-5.667-5.122.343-4.317-2.52-9.33 2.285-12.868-1.233 4.063-.424 8.224-.558 12.337-.107 3.319 2.526 2.398 4.293 2.418 11.923.134 23.848.179 35.772.253 7.175 2.372 9.838 5.523 9.918 11.739.078 5.997-2.637 9.702-8.906 12.154l-40.855.419z" clip-rule="evenodd"/><path fill="#556F88" fill-rule="evenodd" d="M246.035 314.932l15.746 5.104c1.332 8.891 6.74 15.188 13.23 20.796.832 1.071-.09 1.521-.733 2.07-3.368 1.21-6.811 2.28-9.349 5.033-3.125 1.354-5.234-1.073-7.727-2.075l-5.439-11.736c-.393-5.476-4.155-9.623-5.766-14.618-.488-1.513-2.061-2.743-1.191-4.609.42-.329.83-.316 1.229.035z" clip-rule="evenodd"/><path fill="#71BCCA" fill-rule="evenodd" d="M362.865 441.021c.615-12.881-2.41-16.844-14.872-19.276-3.255-.635-6.249-1.835-9.084-3.501-1.179-1.763-.349-2.988 1.083-4.054.305-.102.614-.127.931-.075 1.749.506 3.7-.006 5.344 1.04.446.092.896.164 1.353.194.943-.111 1.85.045 2.736.354 3.552.818 6.902 2.096 10.018 4.046 4.467 2.798 6.33 2.587 10.489-.979 2-1.715 3.822-3.663 6.139-4.965 1.685-.946 3.403-2.237 5.439-.677 1.233 4.672-1.635 7.658-4.376 10.701-3.054 1.83-4.968 5.263-8.754 6.145-.749.175-.516 1.447-.529 2.266.489 5.408.762 10.795-.942 16.064-.431.941-.897 1.869-1.3 2.824-.442 1.46-1.318 2.655-2.324 3.771-2.596-1.235-3.817.17-4.871 2.341-1.178 2.427-1.992 5.305-5.344 5.762-.676-.921-.494-1.928-.305-2.938 2.914-5.199 5.781-10.418 7.164-16.301.269-1.152.942-2.117 2.005-2.742z" clip-rule="evenodd"/><path fill="#4B8BAF" fill-rule="evenodd" d="M333.995 347.001c-2.15-7.574-6.945-13.237-12.999-17.991-2.033-.936-4.212-1.582-6-3.007-4.486-1.06-10.204-2.586-14.36-4.231 3.697-.021 7.663.527 10.905 1.294 22.982 5.433 32.639 30.425 18.617 47.933-1.996 2.492-4.354 4.566-7.045 6.265-16.056 10.137-41.607 6.214-54.094-8.297-2.797-6.817-2.031-12.463 2.141-15.791 4.424-3.527 10.494-3.576 15.686-.126l1.543 1.81c-3.789.474-7.671.083-11.024 2.844-5.087 4.188-5.837 10.703-1.364 15.298 10.168 7.995 21.888 8.452 34 7 5.487-.084 9.699-3.142 13.996-6.003a23.14 23.14 0 0 0 6-6.003l3.997-8.996c.838-4.001.834-8 .001-11.999z" clip-rule="evenodd"/><path fill="#4788AE" fill-rule="evenodd" d="M321.998 291.002c-3.605-2.614-8.01-3.307-11.998-5.002-2.191-1.331-4.809.326-7.002-.999-10.574-.054-20.197 2.752-27.289 10.908-12.209 14.04-9.383 31.826 6.52 41.66 5.434 3.36 11.584 4.976 17.756 6.463 2.046.493 5.174.878 6.791 2.604-8.354-1.058-17.912-2.854-25.604-7.242-18.769-10.709-20.738-34.719-3.951-48.531 12.694-10.445 34.96-10.506 47.891-.13.232.272.325.556.277.85-.047.3-.105.45-.176.45-1.393.657-2.199-.514-3.215-1.031z" clip-rule="evenodd"/><path fill="#6EBAC9" fill-rule="evenodd" d="M339.992 414.19l-1.082 4.052c-7.041-1.7-13.881-4.42-21.438-2.904-4.705.943-9.553 1.18-14.336 1.733-1.586.995-3.508-.121-5.104.813l-2.959 1.163c-1.133.24-1.473-.253-1.209-1.306 4.049-3.683 6.809-9.088 13.389-9.325 2.539-.093 4.96-.527 6.988 1.411.936.895 1.971 1.267 3.152.687 8.412-4.124 15.851-2.367 22.599 3.676z" clip-rule="evenodd"/><path fill="#6FBAC9" fill-rule="evenodd" d="M178.188 407.279c7.539-3.679 15.32-6.004 23.893-5.271 6.855.587 11.369 4.411 15.08 9.686.452 1.201-.071 2.021-1.041 2.667-1.794.53-3.223-.393-4.678-1.196-10.658-5.885-20.949-5.479-30.934 1.663-2.007 1.436-3.946 3.101-6.49 3.63-2.969-.259-5.844.584-8.779.769a4.341 4.341 0 0 1-1.615-.394c-1.382-.822-1.754-2.046-1.406-3.554.904-1.689 2.448-2.64 4.063-3.506 4.049-1.273 7.463-4.252 11.907-4.494z" clip-rule="evenodd"/><path fill="#6098B8" fill-rule="evenodd" d="M94.103 296.158c-.02 22.964-.063 45.928-.043 68.892.005 6.31 5.084 11.012 11.591 10.931 6.282-.078 11.038-4.738 11.345-10.729.311-6.08-1.081-12.25.914-18.243-.031 7.645.214 15.302-.172 22.928-.381 7.523-5.589 12.277-12.489 12.168-6.677-.106-11.886-4.795-11.961-12.16-.257-24.927-.094-49.857-.051-74.786.001-.784.447-1.567.686-2.352.857 1.073.699 2.203.18 3.351z" clip-rule="evenodd"/><path fill="#70BBC9" fill-rule="evenodd" d="M293.865 417.742c.402.436.806.87 1.209 1.306-3.135 3.632-8.419 5.55-8.649 11.532-.062 1.606-2.264 1.701-3.743 1.821-8.492.684-12.924 4.496-14.641 12.649-.342 1.623-.726 3.238-1.09 4.856-1.826.123-1.541-.883-1.064-1.991.002-.167.025-.336.002-.499-1.115-7.889 1.191-14.149 8.295-18.424 3.963-2.386 6.147-6.006 5.922-10.83-.057-1.221.256-2.411 1.5-2.908 1.063-.426 2.088.044 2.463 1.087 2.41 6.684 6.201 3.279 9.796 1.401z" clip-rule="evenodd"/><path fill="#CBE8EC" fill-rule="evenodd" d="M345.832 416.911c-1.671-.872-3.813-.917-4.909-2.796 4.307-11.633-2.868-26.132-14.858-30.027-.407.323-.824.352-1.252.04-.257-2.631 2.722-2.376 3.58-4.017.596-.493 1.199-.966 1.973-1.163a4.294 4.294 0 0 1 2.382.142c7.423 2.926 12.188 8.288 14.182 15.966 1.363 5.252 2.53 10.577 1.755 16.091-.589 2.097-1.064 4.259-2.853 5.764z" clip-rule="evenodd"/><path fill="#E47764" fill-rule="evenodd" d="M237.731 371.091c11.418 5.626 19.509-.885 21.252-10.951 4.059 8.402 3.95 15.804-2.897 19.593-7.018 3.882-14.062.566-18.355-8.642z" clip-rule="evenodd"/><path fill="#E8BDBA" fill-rule="evenodd" d="M359.019 194.994c1.787 2.09.267 4.297-.222 6.162-.928 3.544.621 4.768 3.526 5.825 8.242 3.001 8.925 4.605 6.214 12.948-2.985 9.188-5.854 18.412-8.883 27.584-2.317 7.018-4.809 8.393-11.926 6.169-3.425-1.07-5.02-.02-5.856 3.183-.421 1.608-1.058 3.159-1.587 4.739-2.516 7.498-2.535 7.545 4.66 10.892 3.217 1.497 4.183 4.058 3.986 7.328-.65.369-1.301.74-1.95 1.111-1.542-4.486-4.548-7.474-9.095-8.885a1.678 1.678 0 0 1-.861-.152c-2.287-1.314-1.709-3.316-1.09-5.174.977-2.929 1.438-5.961 2.647-8.811l.209-.56c.377-1.628.51-1.898 1.086-2.639 2.062-2.65 3.024-4.709 6.912-3.761 8.437 2.057 8.61 1.776 11.339-6.375 2.737-8.179 4.917-16.55 7.975-24.605 1.8-4.74 1.16-8.219-3.053-11.005l-6.073-2.937c-1.524-1.632-.68-3.311-.108-4.99.68-1.993 1.475-3.988.219-6.054.643.004 1.287.005 1.931.007z" clip-rule="evenodd"/><path fill="#6FBBC9" fill-rule="evenodd" d="M215.969 414.113l1.191-2.419c1.092 1.012 2.221 1.986 3.269 3.042 3.998 4.027 7.196 3.842 10.749-.624.765-.963 1.08-2.936 2.776-2.254 1.879.757 1.072 2.567.652 3.931-.771 2.504-.445 4.69 1.783 6.175 4.779 3.186 7.45 7.921 9.839 12.897-1.391 1.165-1.191 2.816-1.334 4.363-2.565.039-3.086-2.131-3.978-3.799-1.41-2.637-2.818-5.23-5.686-6.581-1.987-1.402-4.012-.914-6.046-.109-1.142.296-2.586.615-3.32-.194-3.944-4.35-8.647-8.221-9.895-14.428z" clip-rule="evenodd"/><path fill="#9EB3B6" fill-rule="evenodd" d="M346.941 410.883c-.566-9.641-.545-19.497-8.931-26.476-1.904-1.585-4.006-2.933-6.017-4.39-.29-2.54 1.598-2.778 3.34-3.179 2.993-.008 4.926 2.499 7.611 3.234 1.535 1.542 3.159 3.24 4.947 4.965.6 3.212 1.76 6.227 3.232 9.143 2.707 6.018 1.916 12.38 1.813 18.655-.031 1.893-.828 3.563-2.868 4.242l-3.032-.113c-.878-2.014-.747-4.043-.095-6.081z" clip-rule="evenodd"/><path fill="#CCE9ED" fill-rule="evenodd" d="M352.955 387.026c3.638.179 7.215-.239 10.75-1.081 3.021-.484 5.388.834 7.533 2.747 1.33 1.186 2.355 2.742 4.148 3.359 4.963-.074 9.729.465 13.532 4.147 1.181 1.784 1.721 3.534-.292 5.132-2.174.527-3.771-.802-5.521-1.702-5.726-2.944-10.47-1.929-14.381 3.117-1.563 2.019-3.115 4.344-6.045 2.964-2.912-1.371-2.197-4.033-1.568-6.524 1.64-6.5 1.62-6.518-5.425-7.168-1.666-.153-3.317-.266-4.628-1.496-1.049-2.078.391-2.803 1.897-3.495z" clip-rule="evenodd"/><path fill="#CBE8EB" fill-rule="evenodd" d="M198.695 378.729c.573-.408 1.423-.53 1.997-.938 4.396-2.121 8.662-3.604 12.075-4.326 1.101-.08 1.773.467 2.143 1.459 3.076 4.079 7.475 7.147 9.218 12.257.666 1.951 1.632 4.033-.693 5.27-2.135 1.135-3.066-1.017-4.374-2.247-5.645-5.31-11.23-10.837-19.945-10.157-.338-.155-.472-.343-.402-.563.073-.236-.117-.755-.019-.755z" clip-rule="evenodd"/><path fill="#CBE9EC" fill-rule="evenodd" d="M178.188 407.279c-2.931 3.396-6.996 4.577-11.098 5.688-2.49-1.184-3.16-3.521-2.926-5.837.563-5.567 1.231-11.158 3.331-16.425.688-1.728 1.698-3.243 3.664-3.781 2.458.181 5.025-.297 7.534 1.542-1.55.7-2.738 1.785-3.842 3.021-5.326 5.962-5.348 6.368.098 12.03 1.145 1.19 2.162 2.504 3.239 3.762z" clip-rule="evenodd"/><path fill="#C75D5D" fill-rule="evenodd" d="M406.292 350.185c-3.708 4.648-3.708 4.648-10.51 1.27-5.288-1.702-5.845-1.525-7.14 2.685-2.393 7.528-2.393 7.528-11.311 4.961-.79-.228-1.465-.757-2.195-1.139-.189-.102-.38-.203-.571-.304-1.327-2.098.239-4.742-1.286-6.803 4.708-1.389 9.515-.387 14.269-.52 8.324-.232 10.773-.116 18.744-.15z" clip-rule="evenodd"/><path fill="#9DB2B4" fill-rule="evenodd" d="M126.988 394.966c-.478-5.064 3.193-5.783 6.731-5.828 3.421-.044 5.811-1.27 8.329-3.503 4.298-3.813 9.779-5.442 15.341-6.571 1.285-.261 2.667-.075 3.688-1.144l4.775 6.086c-1.44 1.644-3.412 1.407-5.066.92-3.473-1.023-6.093.25-8.555 2.427-3.424 1.278-6.913 2.437-9.181 5.622-.28.394-.738.832-1.195.856-4.964.266-9.793 2.344-14.867 1.135z" clip-rule="evenodd"/><path fill="#6098B8" fill-rule="evenodd" d="M345.148 369.811c4.195 8.342 15.82 8.409 20.174 2.666 1.725-2.274 2.653-4.031 2.647-6.6-.015-6.295.306-12.144.312-18.439.313-.02.324-.47.639-.459-.051 7.82.205 15.657-.245 23.454-.398 6.892-5.364 12.012-11.633 12.317-7.472.364-12.152-5.213-12.704-10.188-.301-2.454-.006-1.987.81-2.751z" clip-rule="evenodd"/><path fill="#577087" fill-rule="evenodd" d="M331.038 328.812l-8.488-6.431c7.54-.888 13.611-3.458 17.317-10.418v18.968c-3.86 3.116-6.108-.486-8.829-2.119z" clip-rule="evenodd"/><path fill="#A0B5B7" fill-rule="evenodd" d="M171.158 386.924c-3.17 8.397-6.327 16.797-4.07 26.043-1.086 1.234-2.525 1.778-4.086 2.08-.513.309-.985.255-1.419-.156-3.22-5.742-.717-11.588-.21-17.373.184-2.098.675-4.22 1.351-6.257 1.319-2.345 1.973-5.272 5.149-6.037l3.285 1.7z" clip-rule="evenodd"/><path fill="#CDEAEE" fill-rule="evenodd" d="M261.275 417.834c-.281 2.927-.276 4.6-.646 6.186-.295 1.265-1.252 1.908-2.639 1.14-4.495-2.493-7.199-12.021-4.733-16.697.809-1.533 2.611-1.905 3.058-.564 1.292 3.874 6.808 5.99 4.96 9.935z" clip-rule="evenodd"/><path fill="#6098B8" fill-rule="evenodd" d="M345.148 369.811c-.081.835-.769 1.573-.851 2.41a46.642 46.642 0 0 1-.19-4.259c-.014-23.646-.128-47.295.063-70.94.075-9.344 5.034-14.011 13.828-13.967-10.169 3.57-13.346 10.976-13.111 21.364.49 21.788.22 43.594.261 65.392z" clip-rule="evenodd"/><path fill="#4487AC" fill-rule="evenodd" d="M321.623 291.002l3 .999c5.418 2.442 7.197 5.97 5.675 11.254-2.29 7.952-14.401 10.829-16.642 8.589-2.369-1.947-5.281-3.938-9.203-4.726 1.529-.189 3.668.225 5.076.823 5.761 2.445 10.24 1.431 13.431-2.955 3.699-5.084 3.327-8.968-1.337-13.984z" clip-rule="evenodd"/><path fill="#76A7C2" fill-rule="evenodd" d="M158.996 306.981c9.502-6.237 9.499-18.203-1.014-23.881 7.329.098 12.678 4.996 12.833 11.752.15 6.542-4.971 11.796-11.819 12.129zM409.995 345.981c9.502-6.236 9.499-18.203-1.013-23.881 7.329.098 12.677 4.995 12.832 11.752.151 6.542-4.969 11.795-11.819 12.129zM158.998 345.988c9.864-8.158 9.561-15.306-1.013-23.894 7.336.113 12.675 5.006 12.83 11.758.15 6.538-4.961 11.785-11.817 12.136z" clip-rule="evenodd"/><path fill="#75A6C2" fill-rule="evenodd" d="M409.998 306.993c10.863-6.274 8.843-17.923-1.01-23.901 7.341.135 12.664 5.02 12.818 11.762.15 6.529-4.943 11.765-11.808 12.139z" clip-rule="evenodd"/><path fill="#4587AC" fill-rule="evenodd" d="M276 373c-6.335-3.016-6.469-11.107-.318-16.097 3.871-3.141 8.164-3.276 12.707-2.045l.993.997c-9.306.419-13.407 3.459-14.731 10.546-.469 2.503.535 4.478 1.349 6.599z" clip-rule="evenodd"/><path fill="#CEEAEE" fill-rule="evenodd" d="M234.645 380.784c-.232 2.745-.347 4.877-.615 6.989-.183 1.446.704 3.985-1.854 3.644-1.742-.233-3.84-1.717-3.81-3.959.04-2.934.493-5.886 1.037-8.779.297-1.583 1.004-3.491 3.06-3.283 2.013.203 1.398 2.28 1.778 3.603.225.787.363 1.6.404 1.785z" clip-rule="evenodd"/><path fill="#71A4C0" fill-rule="evenodd" d="M286.846 353.049c-9.898-2.734-16.154.1-18.429 8.061-.806 2.818.624 5.229.603 7.856-1.668-1.631-2.713-3.587-3.083-5.896-1.209-3.377.36-6.288 1.556-9.262 3.68-5.18 8.689-6.448 15.661-3.965 1.603.818 2.595 1.644 3.692 3.206z" clip-rule="evenodd"/><path fill="#755D5C" fill-rule="evenodd" d="M335.924 284.024c1.641-2.957 1.705-6.586 3.954-9.284 2.337-1.269 4.348-.393 5.445 1.58 1.503 2.703.675 5.357-1.427 7.585l-2.266 3.242c-4.501 1.416-5.107 1.084-5.706-3.123z" clip-rule="evenodd"/><path fill="#8A939D" fill-rule="evenodd" d="M161.044 363.016c-9.87-2.183-19.328-5.688-28.85-8.99a1.957 1.957 0 0 1-.959-1.018c-.177-.746-.056-1.434.407-2.053a1.811 1.811 0 0 1 1.368-.3c.698.229 1.408.419 2.1.667 5.452 1.203 10.74 2.958 15.971 4.869 3.851 1.406 7.821 2.192 11.85 2.783-.587 1.589-1.087 2.401-1.887 4.042z" clip-rule="evenodd"/><path fill="#508EB1" fill-rule="evenodd" d="M313.9 312.041c5.193.322 9.98-.586 13.352-4.986 4.158-5.428 3.291-10.282-2.299-14.805.037-.423.121-1.095.158-1.518 2.482 1.393 4.248 2.893 5.995 5.058 3.593 7.911 3.138 11.043-2.21 15.836-4.332 3.884-8.958 4.509-13.979 1.416l-1.017-1.001z" clip-rule="evenodd"/><path fill="#7B7EC4" fill-rule="evenodd" d="M298.75 311.673c5.719-.642 9.654.404 15.855 7.403-5.963-1.597-11.609-.288-16.617-3.163-1.193-1.71.258-2.901.762-4.24z" clip-rule="evenodd"/><path fill="#6B6DA6" fill-rule="evenodd" d="M246.035 314.932l-1.037.067c-.68.755-1.547.356-2.29.293-4.578-8.876-8.625-18-12.836-27.142 3.448.617 4.021 3.79 5.227 6.205 3.474 6.954 5.808 14.502 10.936 20.577z" clip-rule="evenodd"/><path fill="#5A738A" fill-rule="evenodd" d="M288.469 347.854c5.271.803 10.827 1.867 15.303 2.21 1.403.107 3.896.854 3.52 2.911-.325 1.78-2.688 1.708-4.062 1.714-5.438.021-11.341.045-14.761-6.835z" clip-rule="evenodd"/><path fill="#E57B69" fill-rule="evenodd" d="M165.953 363.898c.216 11.644 4.863 16.564 16.225 17.185-5.69 2.692-10.94 1.903-14.793-2.226-3.935-4.216-4.415-9.235-1.432-14.959z" clip-rule="evenodd"/><path fill="#75BCC9" fill-rule="evenodd" d="M167.872 385.224c-1.174 1.968-1.648 4.377-3.67 5.81-1.008.72-1.977.411-2.939-.104-1.632-1.656-3.255-3.155-5.907-3.073-1.416.044-2.993-.425-3.376-2.276 4.241-3.9 9.054-2.763 13.873-1.574a721 721 0 0 1 2.019 1.217z" clip-rule="evenodd"/><path fill="#5C7084" fill-rule="evenodd" d="M162.931 358.975c-1.786 1.073-3.773 1.438-5.7.819-7.798-2.504-15.552-5.145-23.322-7.734 2.836-2.2 5.734-.559 8.529.007 4.718.956 9.054 3.302 13.848 4.026 2.061-.116 3.816-.795 4.734-2.798.811-1.77 2.618-2.311 3.98-3.399.855-.354 1.292-.354 2.188-.688.702-.262.702-.262-.122 1.619-1.197 2.734-2.747 5.437-4.135 8.148z" clip-rule="evenodd"/><path fill="#C56061" fill-rule="evenodd" d="M335.924 284.024c.768 3.12 3.428 2.774 5.709 3.121-1.539 3.769-1.773 7.763-1.745 12.601l-5.942-7.912c.609-2.257 2.025-4.521-.077-6.746l2.055-1.064z" clip-rule="evenodd"/><path fill="#92B9CF" fill-rule="evenodd" d="M333.944 300.136c2.745 4.306 2.22 9.694-1.307 13.376-3.775 3.941-9.548 4.58-14.842 1.643.888-1.131 2.149-.53 3.237-.672 7.598-.984 10.977-4.369 11.988-12.115.111-.848.291-1.623.924-2.232z" clip-rule="evenodd"/><path fill="#699EBC" fill-rule="evenodd" d="M333.944 300.136c.006 11.385-3.351 14.506-16.148 15.019-1.117-.531-1.765-.998-2.878-2.112 4.479 1.046 8.701.881 12.58-2.073 5.412-4.12 4.994-9.506 3.608-15.179 1.649 1.919 1.957 2.553 2.838 4.345z" clip-rule="evenodd"/><path fill="#526577" fill-rule="evenodd" d="M242.708 315.292c.674-.839 1.523-.669 2.29-.293 3.703 5.145 4.97 11.459 8.098 16.888.669 1.16-.499 1.714-1.333 2.236-3.616-6.022-6.555-12.31-9.055-18.831z" clip-rule="evenodd"/><path fill="#D0EBEF" fill-rule="evenodd" d="M284.824 388.882c-.575 1.323.348 4.796-2.799 4.631-3.133-.165-3.116-3.348-2.934-5.823.111-1.513-1.039-4.102 1.947-3.993 2.608.094 4.267 1.597 3.786 5.185z" clip-rule="evenodd"/><path fill="#76B7C4" fill-rule="evenodd" d="M374.023 394.036c-3.205-2.997-6.269-6.172-10.318-8.091l3.07-2.812c1.033-.113 2.061-.172 3.028.333.635.146 1.252.334 1.825.658a7.346 7.346 0 0 1 1.572 1.271c1.397 1.533 3.521 2.39 4.26 4.544.395 2.658-2.02 2.957-3.437 4.097z" clip-rule="evenodd"/><path fill="#CEEAEE" fill-rule="evenodd" d="M303.049 388.035c-3.77 1.731-5.75 5.382-8.646 8.049-.573.527-1.124 1.439-2.068.875-.79-.472-.876-1.374-.646-2.216.741-2.719 1.612-5.385 3.426-7.624 2.553 1.094 5.406-.412 7.934.916z" clip-rule="evenodd"/><path fill="#43474C" fill-rule="evenodd" d="M165 349.896c-.93 1.869-1.925 3.709-2.773 5.614-1.065 2.393-3.073 2.575-5.264 2.456-3.008-1.976-3.27-4.259-.767-6.852l.776-.308 8.028-.91z" clip-rule="evenodd"/><path fill="#4F545C" fill-rule="evenodd" d="M342.945 380.073c-3.268 2.578-4.699-1.747-7.234-1.926-.72-1.087-1.727-.48-2.639-.453-1.184.034-2.436.137-2.084-1.708a44509.4 44509.4 0 0 0 5.93-7.101c.434.228.777.551 1.035.967.332.646.432 1.344.454 2.055-.509 2.417 1.384 3.572 2.663 5.051.431 1.105 1.118 2.188 1.875 3.115z" clip-rule="evenodd"/><path fill="#E78574" fill-rule="evenodd" d="M224.238 287.901c-6.299-3.787-12.804-3.622-19.435-1.009 5.988-6.779 14.263-6.349 19.435 1.009z" clip-rule="evenodd"/><path fill="#173C2C" fill-rule="evenodd" d="M131.98 351.01l-.12 1.932c-3.151 1.084-5.373 2.799-5.051 6.621.113 1.337-.743 2.478-1.819 3.339a3.14 3.14 0 0 1-.859.288c-.722.407-1.392.408-1.976-.255l-.072-11.869c3.294-.955 6.594-.852 9.897-.056z" clip-rule="evenodd"/><path fill="#6098B8" fill-rule="evenodd" d="M94.103 296.158l-.182-3.353c1.63-7.002 6.283-10.235 14.08-9.783-6.779 2.109-11.39 6.511-13.898 13.136z" clip-rule="evenodd"/><path fill="#E7E8E8" fill-rule="evenodd" d="M324.938 383.959l1.126.128c-7.109 2.696-14.462 4.015-22.067 3.906-.649-.298-.658-.614-.026-.948 5.393-1.425 11.236-.979 16.266-3.912 1.421 1.101 3.361-.737 4.701.826z" clip-rule="evenodd"/><path fill="#F7DAB8" fill-rule="evenodd" d="M331.038 328.812c2.943.705 5.887 1.411 8.83 2.118.001 2.357.001 4.713.003 7.068-2.398.537-2.383-2.377-4.075-2.849-2.137-1.699-3.448-4.018-4.758-6.337z" clip-rule="evenodd"/><path fill="#C9CACA" fill-rule="evenodd" d="M198.813 378.654c.025.309.23 1.09.302 1.393-5.092 3.451-10.763 5.435-16.782 6.568 5.171-3.344 10.605-6.198 16.48-7.961z" clip-rule="evenodd"/><path fill="#CCB13B" fill-rule="evenodd" d="M124.131 373.055c.431.059.641-.01 1.022.116-2.182 5.898-4.356 11.806-12.146 12.058 3.244-2.188 5.734-5.085 7.837-8.346 1.433-.906 1.139-2.944 2.536-3.872.276.05.541.118.751.044z" clip-rule="evenodd"/><path fill="#434548" fill-rule="evenodd" d="M369.046 384.778c-1.251.131-1.702-.838-2.27-1.646 2.474-2.817 4.722-5.786 6.115-9.315.753-.447 1.505-.436 2.256.006.329.038.655.091.979.159.664 1.087.406 2.238.241 3.385-.517 1.28-1.088 2.533-1.96 3.622-1.47 1.705-3.129 3.155-5.361 3.789z" clip-rule="evenodd"/><path fill="#95A0AA" fill-rule="evenodd" d="M131.98 351.01c-3.299.019-6.599.037-9.897.057.321-1.352 1.447-1.153 2.378-1.151 10.269.018 20.396.701 30.664.788.571.005 1.266.063 1.847.104l.238.179-.16.251c-4.418 2.113-9.131 1.355-13.695 1.084-3.418-.204-6.905-.429-10.275-1.282-.367-.012-.733-.02-1.1-.03z" clip-rule="evenodd"/><path fill="#75ADB9" fill-rule="evenodd" d="M257.203 345.859c3.1-1.263 5.342.674 7.727 2.075l-3.929 5.599-3.798-7.674z" clip-rule="evenodd"/><path fill="#E8E8E8" fill-rule="evenodd" d="M265.942 376.885c.749-.653 1.601-1.485 2.578-.833.749.5.415 1.521.126 2.298-1.426 3.831-7.445 7.374-13.779 7.26 3.517-.896 4.58-3.372 7.08-3.635 2.087-1.104 3.487-2.746 3.995-5.09z" clip-rule="evenodd"/><path fill="#D8B0AD" fill-rule="evenodd" d="M343.896 283.905c1.844-6.655 1.492-7.456-4.017-9.163-1.052-1.352-3.083-2.538-4.039-3.293 8.108 1.108 11.163 2.696 11.141 9.487-.807 1.218-1.595 2.459-3.085 2.969z" clip-rule="evenodd"/><path fill="#732B2B" fill-rule="evenodd" d="M375.147 373.738l-2.256-.004.274-15.798c.725-.062 1.108-.202 1.756-.155l.214.096c.006 5.287.009 10.574.012 15.861z" clip-rule="evenodd"/><path fill="#78BCCA" fill-rule="evenodd" d="M352.955 387.026l-1.725 3.084c.147 1.756.177 3.412-2.412 2.857-.322-2.642-4.499-4.833-.926-7.93l5.063 1.989z" clip-rule="evenodd"/><path fill="#A5C5D7" fill-rule="evenodd" d="M283.153 349.843c-5.651-.858-11.072-.884-15.089 4.172-.399.356-.785.325-1.16-.041 3.489-6.491 9.993-8.145 16.249-4.131z" clip-rule="evenodd"/><path fill="#C4C9C9" fill-rule="evenodd" d="M213.065 374.018c-3.965 1.801-7.077 6.318-12.374 3.889l.28.091c1.558-1.056 2.985-1.895 4.905-2.755 1.554-1.075 4.831-2.491 8.058-3.154.617 1.051-.087 1.507-.869 1.929z" clip-rule="evenodd"/><path fill="#E6E6E6" fill-rule="evenodd" d="M224.375 369.792c2.646-.625 4.671-1.033 6.752.286-4.749.933-9.191 3.087-14.124 2.935 1.822-3.248 4.844-1.859 7.372-3.221z" clip-rule="evenodd"/><path fill="#9B3636" fill-rule="evenodd" d="M341.07 376.958c-2.304-.902-6.104-.528-4.251-4.979.431-2.095.996-2.41 2.04-3.572.408-.249.563-.412.982-.459 0 1.615.123 2.727.346 4.365.186 1.359.516 3.265.883 4.645z" clip-rule="evenodd"/><path fill="#61676D" fill-rule="evenodd" d="M122.155 362.935l1.976.255c-.04 3.201-.081 6.402-.12 9.604l-.18.269c-.58.457-1.158.551-1.734-.007l.058-10.121z" clip-rule="evenodd"/><path fill="#869699" fill-rule="evenodd" d="M330.988 375.986c1.27 1.385 3.898-.2 4.723 2.161-1.487.13-2.76.687-3.717 1.87l-1.92.079c-1.185.533-2.168.688-2.105-1.12l3.019-2.99z" clip-rule="evenodd"/><path fill="#8C5656" fill-rule="evenodd" d="M380.035 313.993c-3.624-1.323-5.328.38-5.956 3.778-2.272-1.581-1.274-5.146-.981-5.743 1.756-1.047 3.661-.339 5.495-.473 1.093.451 1.851 1.099 1.442 2.438z" clip-rule="evenodd"/><path fill="#D7D7D7" fill-rule="evenodd" d="M224.905 369.668c-2.664.998-5.237 2.346-7.901 3.345l-2.093 1.913-1.846-.909.871-1.929c3.639-.942 7.377-1.692 10.969-2.42z" clip-rule="evenodd"/><path fill="#7D4040" fill-rule="evenodd" d="M375.136 357.877c-.59.005-1.38.139-1.97.144l.112-7.164c2.415 1.44 1.954 4.667 1.858 7.02z" clip-rule="evenodd"/><path fill="#9FC1D4" fill-rule="evenodd" d="M266.904 353.974l1.16.041c-.596 1.079-1.032 1.805-1.314 2.954-.447 1.822-.82 4.126-.813 6.101-1.007-3.132-1.007-6.07.967-9.096z" clip-rule="evenodd"/><path fill="#AFC4C7" fill-rule="evenodd" d="M324.938 383.959c-1.595-.123-3.353.68-4.703-.827 1.898-.002 3.257-1.243 4.792-2.08 1.34.79 2.647-1.702 3.996-.04-.75 1.83-2.865 1.768-4.085 2.947z" clip-rule="evenodd"/><path fill="#CFCFCF" fill-rule="evenodd" d="M265.942 376.885c.929 3.471-1.2 4.541-3.995 5.09 1.49-1.573 1.918-3.979 3.995-5.09z" clip-rule="evenodd"/><path fill="#E3CAAF" fill-rule="evenodd" d="M335.796 335.149c2.743-1.031 2.226 2.604 4.075 2.85-.141.939-.311 2.335-1.563 1.158-1.111-1.044-1.695-2.649-2.512-4.008z" clip-rule="evenodd"/><path fill="#908990" fill-rule="evenodd" d="M378.957 312.176l-5.859-.147c3.289-1.611 7.67-1.306 9.887-1.033.01.25-.002.725 0 .975-1.277 1.375-2.655.74-4.028.205z" clip-rule="evenodd"/><path fill="#C7E0E3" fill-rule="evenodd" d="M303.971 387.045a12 12 0 0 1 .026.948 21.44 21.44 0 0 1-.949.042c-2.639-.361-5.446.729-7.935-.917l8.858-.073z" clip-rule="evenodd"/><path fill="#A8D7DF" fill-rule="evenodd" d="M265.887 447.916c.355.664.711 1.328 1.064 1.992-.406 1.484-.107 3.321-2.029 4.048.172-2.037-.229-4.166.965-6.04z" clip-rule="evenodd"/><path fill="#98AEB1" fill-rule="evenodd" d="M205.877 375.242c-.716 2.554-2.831 2.618-4.905 2.755 1.736-1.378 2.945-1.913 4.905-2.755z" clip-rule="evenodd"/><path fill="#AF9731" fill-rule="evenodd" d="M122.098 373.055l1.736.007c-.365 1.438-.954 2.736-2.988 3.82.717-1.257 1.06-2.382 1.252-3.827z" clip-rule="evenodd"/><path fill="#536177" fill-rule="evenodd" d="M299.303 311.668c1.249.756-.698 3.527-1.314 4.245-.857-.154-1.155-.371-1.99-.911-.156-1.496.67-2.326 1.936-2.858.32-.126 1.047-.35 1.368-.476z" clip-rule="evenodd"/><path fill="#A5B8BB" fill-rule="evenodd" d="M329.023 381.012c-1.334-.131-2.65 1.393-3.996.04l2.941-2.075 2.104 1.119-1.049.916z" clip-rule="evenodd"/><path fill="#2D3A47" fill-rule="evenodd" d="M299.303 311.668c-1.193.41-2.659 2.381-3.305 3.334-1.123-.689-1.176-1.301-.665-2.085.792-1.216 2.605-1.246 3.97-1.249z" clip-rule="evenodd"/><path fill="#582C31" fill-rule="evenodd" d="M339.842 367.947c-.266.039-.451.162-.717.35-.745.589-.564.462-1.99 1.587l-.217-.998c1.055-2.029 1.229-2.304 1.379-2.636.246-.546.401-1.101.554-1.664.326-1.205.53-1.04.774.992.035.289.217 1.656.217 2.369z" clip-rule="evenodd"/><path fill="#C05757" fill-rule="evenodd" d="M274.278 342.901l.733-2.07c1.02.38 2.16 1.2 2.16 1.527.001.588-1.86.541-2.893.543z" clip-rule="evenodd"/><path fill="#FED833" fill-rule="evenodd" d="M421.173 372.953c5.492-1.132 9.86-4.616 14.69-7.111 2.791-1.44 3.854-.898 4.114 2.203.319 3.806 1.373 7.597 1.31 11.38-.16 9.458 4.498 15.867 11.928 20.927 2.46 1.675 4.438 4.05 6.88 5.758 3.17 2.216 2.1 3.437-.67 4.634-.913.395-1.721 1.051-2.648 1.389-14.438 5.25-23.497 15.422-27.483 30.15-1.3 4.801-3.168 3.489-5.54.873-1.093-1.205-2.439-2.179-3.672-3.257-.525-.41-.008.231-.404-.281-7.476-9.649-18.315-10.639-29.29-11.873-8.677-.978-13.058-2.274-6.81-12.043 7.064-11.045 8.332-21.908 2.734-33.693-.626-1.318-.91-2.852-.993-4.363-.143-2.607.943-4.182 3.688-4.222 2.662-.038 5.327-.135 7.983.12 2.508.915 5.119.896 7.733.854 5.52-.049 11.114.719 16.45-1.445z" clip-rule="evenodd"/><path fill="#96A1AA" fill-rule="evenodd" d="M430.618 368.937c-8.881 7.997-16.826 10.23-25.806 8.105-4.06-.762-4.521-.896-8.208-1.5-6.119-.323-8.548-.443-9.333.695-1.401 2.032.888 6.419 2.242 9.399 4.291 9.443 3.53 18.264-2.272 26.786-.927 1.363-1.492 2.975-2.206 4.479-4.458 9.395-4.271 7.165 4.568 8.89 2.936.573 5.943 1.196 8.905 1.135 10.04-.21 16.052 5.95 21.551 13.076-3.784-.867-5.503-4.62-8.748-6.275-1.081-.552-1.949-1.643-2.411.448-2.063.547-4.024-.771-6.088-.309-6.373-1.151-12.807-1.871-19.208-2.801-2.493-.361-4.917-.772-7.049-2.226-2.44-2.3-.992-4.305.48-6.308 2.276-3.783 3.308-6.314 4.995-9.486-.432-5.22 2.071-8.985 5.977-12.056 1.394-1.331.726-2.654-.015-3.977-1.015-2.444-2.929-3.645-5.421-4.377-1.94-.571-4.3-.491-5.526-2.636-2.4-.286-3.621-2.147-5.025-3.764.581-2.812 2.577-4.989 3.462-7.646 1.092-3.277 5.35-.658 7.126-2.547-.534-2.084-.452-3.576 2.36-4.305 9.359.742 17.188 2.26 26.594 2.572 2.313-.125 4.357-.841 7.34-1.591 1.393-.618 10.129-5.374 11.716-3.781z" clip-rule="evenodd"/><path fill="#72BBC9" fill-rule="evenodd" d="M416.992 442.041c.908 2.131 1.646 4.357 2.768 6.369 1.39 2.493.934 4.774-1.08 6.236-3.942 2.861-7.876 6.119-13.469 3.99-3.534-1.346-7.484-1.484-10.705-3.814-2.195-1.588-4.507-.037-6.768.037.308-4.388 3.267-4.455 6.393-3.668 3.194.805 6.141 2.42 9.366 3.207 3.463.845 6.907.954 10.189-.55 3.113-1.425 3.44-3.762.51-5.483-3.363-1.976-5.516-4.613-6.652-8.245a4.14 4.14 0 0 1-.048-1.576c.111-1.363.103-2.872 1.491-3.7 3.247 1.922 5.904 4.192 8.005 7.197z" clip-rule="evenodd"/><path fill="#C8E6EA" fill-rule="evenodd" d="M408.987 434.844c-.017 1.359-.034 2.819-.052 4.179-4.339-.451-5.45-3.166-4.926-7.026 2.429.646 2.6.623 3.966 1.941.399.338.849.674 1.012.906z" clip-rule="evenodd"/><path fill="#CBE9ED" fill-rule="evenodd" d="M235.977 426.953c5.584 2.19 6.102 8.064 8.918 12.27-.255 5.346 2.132 9.917 4.208 14.594.861 1.939 2.052 3.811 1.857 6.086-1.237 1.26-2.601 1.138-4.104.494-8.842-3.786-17.517-1.065-26.024 1.162-4.876 1.276-9.719 2.561-14.617 1.728-4.777-.813-8.984.12-13.515 1.399-12.573 3.548-24.507 1.837-35.363-5.805-.857-.604-1.515-1.261-1.633-2.335 2.363-3.212 5.288-1.416 7.571-.332 6.84 3.251 13.96 4.027 21.391 3.787 3.875-.126 7.611-.332 11.139-2.152 2.11-1.088 4.417-1.331 6.81-1.089 3.495.354 6.998.317 10.404-.691 6.994-2.072 13.916-4.096 21.437-3.298 3.397.359 5.236-2.899 4.316-6.714-.623-2.584-1.734-5.037-2.977-7.396-1.794-3.407-3.671-6.16-8.525-4.494-3.707 1.272-6.723-1.133-8-4.416-4.743-12.193-21.281-14.586-31.94-11.603-1.292.362-2.681.721-3.627 1.611-4.54 4.274-10.082 4.742-15.835 4.296-3.602-.279-7.053 2.573-10.711.432-.362-4.746 1.202-6.212 6.884-6.457l.994-.093c2.889-1.213 6.075.396 8.951-.943 9.023-7.109 18.499-12.485 30.689-8.963 4.259 1.23 7.999 3.184 11.296 6.082 3.197 3.99 7.488 7.115 9.345 12.174.699 1.902 2.209 1.685 3.678.729 2.319-.851 4.649-.724 6.983-.063z" clip-rule="evenodd"/><path fill="#71BBCA" fill-rule="evenodd" d="M164.039 418.03c-2.668 1.61-5.595 2.916-7.037 5.972.417 2.323-.869 4.151-1.781 6.083-3.563 7.547-5.161 15.069.105 22.586.684.976.827 2.154.647 3.348 10.313 10.013 22.844 10.578 35.797 7.776 4.726-1.022 9.195-2.41 14.144-1.826 5.684.671 11.124-1.103 16.687-2.082 8.336-1.469 16.914-3.904 25.409-.175.848.372 1.96.142 2.95.19-.082 1.207 1.148 3.875-1.671 2.523-2.904-1.394-6.224-.902-8.974-2.767-1.854-1.257-4.225-.868-6.324-.348-6.7 1.663-13.363 3.477-20.052 5.185-1.118.285-2.419.739-3.425.431-9.314-2.855-17.825 2.521-26.635 2.559-11.705.049-23.696-1.423-31.167-12.724-.954-1.444-1.817-1.52-3.242-.515-7.889 5.565-16.04 4.072-23.971.29-2.542-1.212-4.293-1.396-6.877-.154-3.723 1.79-7.737 3.219-11.781 4.028-4.003.802-7.837-.123-9.761-4.497.912-.952 2.123-1.096 3.23-.756 5.786 1.773 11.135.314 16.371-2.06 3.703-1.679 7.292-1.79 10.957.228 4.217 2.32 8.964 2.208 13.552 2.247 3.158.027 5.039-1.583 3.056-5.085-.729-5.633-.402-11.211.85-16.729.047-2.025-1.616-2.078-2.938-2.646-1.771-.761-3.829-1.434-3.187-4.117l-3.868-9.31c2.042-1.15 3.471.172 4.904 1.274 1.446 1.113 2.663 2.522 4.224 3.485 3.089 1.904 5.733 2.563 8.514-1.062 2.053-2.676 4.35-6.227 8.924-4.58l1.332.243c-.002 1.118.098 2.197 1.038 2.985z" clip-rule="evenodd"/><path fill="#CBE9ED" fill-rule="evenodd" d="M146.175 448.854c2.665 3.942 1.466 6.206-3.128 6.305-6.063.13-12.346.835-17.786-2.743-2.137-1.405-3.785-1.217-5.932-.208-7.166 3.368-14.46 6.054-22.249 1.706l-.012.036c-1.751-.999-3.284-2.194-2.92-4.504.522-3.325 3.743-2.358 5.675-3.449.491-.308.786-.354 1.177-.705 1.805-1.269-.428-5.289 3.089-5.541 4.991 6.488 11.372 7.325 18.669 4.645 1.554-.571 3.122-1.183 4.783-1.403 1.743-.232 3.264-.03 4.234 1.785 2.686 5.024 4.302 5.739 9.971 4.508 1.469-.32 2.911-.717 4.429-.432z" clip-rule="evenodd"/><path fill="#73BBC9" fill-rule="evenodd" d="M354.904 460.707l-.904 2.294c-10.539 5.9-21.578 9.629-33.674 5.944-4.809-1.464-9.125-.896-13.547.677-2.264.805-4.465 1.221-6.779.378-1.49-1.216-3.508.21-5-.998-3.746.209-7.108-1.438-10.534-2.474-5.116-1.545-10.151-2.595-15.466-1.528l-3.039-1.026c6.478-2.723 12.9-1.438 19.324.251 4.912 1.291 9.438 4.143 14.787 3.671 2.265-.66 4.537-.549 6.813-.069 6.388-3.576 12.763-.841 19.143.036 1.059-1.521 2.652-1.863 4.34-1.875 6.389-.044 12.256-2.07 18.018-4.585 2.065-.902 4.164-2.197 6.518-.696z" clip-rule="evenodd"/><path fill="#71BBCA" fill-rule="evenodd" d="M103.899 439.88c-1.478 1.396-.79 3.948-2.683 5.227.408-3.064-3.378-3.063-4.726-4.342 2.001-2.726 5.678-6.282 8.428-7.751-.041 1.591.05 3.653-.388 5.33-.264.511-.115 1.278-.631 1.536zM99.823 445.997c-3.377 1.8-6.821 3.575-2.755 7.953-2.67-.426-4.269-1.907-3.838-4.688.622-4.019 3.897-3.162 6.593-3.265z" clip-rule="evenodd"/><path fill="#FEFEFE" fill-rule="evenodd" d="M443.853 176.703c-4.562 1.117-9.161.595-13.753.313-.736-.895-1.408-1.854-2.22-2.675a87912.197 87912.197 0 0 0-74.326-75.265c-5.324-5.383-8.712-5.428-13.913-.19-11.249 11.328-22.517 22.317-33.734 33.677-.127.181-1.093.619-.754.506-5.886-3.111-12.563-4.415-18.723-6.769-1.826-.697-3.973-.92-4.465-3.366 17.514-17.558 35.072-35.071 52.5-52.714 3.142-3.18 5.383-2.688 8.314.253 32.806 32.9 65.659 65.752 98.621 98.495 2.402 2.386 2.217 4.98 2.453 7.735z" clip-rule="evenodd"/><path fill="#CBE9ED" fill-rule="evenodd" d="M409.099 439.881c1.299 2.893 2.512 5.682 6.171 6.571 2.188.532 3.723 2.391 3.546 4.872-.173 2.44-1.962 3.732-4.069 4.6-7.024 2.891-13.48.527-19.672-2.511-3.131-1.536-5.326-1.272-7.334 1.447-6.935 1.037-13.853 3.587-20.83.211-1.096-1.125-1.811-2.423-1.837-4.035.257-.72.515-1.439.771-2.159 1.855-.564 3.612.026 5.4.423 5.524 1.224 7.257.45 9.993-4.542.857-1.564 2.165-1.941 3.765-1.83 1.347.095 2.612.537 3.848 1.032 7.645 3.059 14.576 2.629 20.248-4.079z" clip-rule="evenodd"/><path fill="#D6ECEF" fill-rule="evenodd" d="M365.073 451.036c.787 1.266 2.707 2.015 1.837 4.034-.899-.057-1.798-.113-2.695-.171-.428-1.447.083-2.684.858-3.863z" clip-rule="evenodd"/><path fill="#6EB9C8" fill-rule="evenodd" d="M295 469.002c1.71.113 3.546-.401 5 .998-1.711-.114-3.547.4-5-.998z" clip-rule="evenodd"/><path fill="#F9D539" fill-rule="evenodd" d="M91.605 138.094c-6.473 0-6.473.048-6.469-5.486.004-6.566-.03-6.593 6.467-6.566 7.087.03 7.087.03 7.043 6.5-.039 5.738.006 5.552-7.041 5.552z" clip-rule="evenodd"/><path fill="#8C9AA2" fill-rule="evenodd" d="M102.578 139.156c2.531 0 2.312-.073 2.312-12.146 3.703 2.688 6.462 9.053 3.914 12.59-5.633 7.816-11.405 9.615-18.813 5.376 1.981-.088 3.961-.215 5.944-.266 3.938-.101 3.914-.101 3.938-2.397.033-3.157.033-3.157 2.705-3.157z" clip-rule="evenodd"/><path fill="#959FAA" fill-rule="evenodd" d="M421.157 362.083c0 6.188.141 6.051-4.235 6.053-3 .003-2.108.012-5.153.016-2.938 0-2.938-.063-2.823-5.439.144-6.696 0-6.698 6.214-6.698 5.997-.001 5.997-.001 5.997 6.068z" clip-rule="evenodd"/><path fill="#787175" fill-rule="evenodd" d="M378.957 312.176l4.027-.206.055.036c.749.946.806 1.889-.018 2.825l-2.986-.838-1.078-1.817z" clip-rule="evenodd"/><path fill="#908990" fill-rule="evenodd" d="M383.021 314.831l.018-2.825c1.979.161 2.479 1.949 2.579 3.271-.625-.06-1.972-.386-2.597-.446z" clip-rule="evenodd"/><path fill="#556F88" fill-rule="evenodd" d="M240.238 185.64c-2.659 7.841-5.262 15.701-8.024 23.505-.55 1.553-2.114 2.005-3.755 1.713-.487-.087-.957-.266-1.438-.39-10.222-2.637-10.239-2.641-7.053-12.595 1.516-4.734 3.284-9.396 4.606-14.183 1.064-3.854 3.143-4.587 6.6-3.165 2.141.88 4.392 1.491 6.58 2.263 1.287.455 2.548.988 2.484 2.852zM253.937 219.223c-2.54-.891-5.875-1.914-9.083-3.243-1.693-.702-1.547-2.344-1.043-3.887 2.322-7.104 4.675-14.198 6.927-21.325.853-2.698 2.48-3.278 4.939-2.272a4.3 4.3 0 0 0 .473.158c10.42 2.915 10.425 2.917 7.127 13.084a2530.755 2530.755 0 0 1-4.505 13.732c-.651 1.965-1.479 3.764-4.835 3.753z" clip-rule="evenodd"/><path fill="#816B6A" fill-rule="evenodd" d="M360.982 212.018c3.326.253 5.143 1.41 2.967 4.957.417-2.495-1.45-3.621-2.967-4.957z" clip-rule="evenodd"/><path fill="#D2ABA8" fill-rule="evenodd" d="M339.263 255.697c.082 3.01-1.683 7.89-2.558 10.636-.631 1.982-.729 3.494.37 5.295a4.618 4.618 0 0 1-2.169-.533c.098-4.764 2.782-11.178 4.357-15.398z" clip-rule="evenodd"/><path fill="#EEC3BF" fill-rule="evenodd" d="M345.998 147.009c2.408 1.652 2.591 3.679 1.008 6l-1.008-6z" clip-rule="evenodd"/><path fill="#D2ABA8" fill-rule="evenodd" d="M363.051 208.97c4.623 1.741 5.701 4.806 4.141 9.47-3.31 9.892-6.282 19.896-9.447 29.835-1.178 3.696-3.883 5.931-7.566 4.418-6.063-2.489-9.213-.136-11.226 5.29.84-7.503 2.279-8.838 9.313-7.372 6.087 1.27 7.414.278 8.82-6.584 4.027-8.938 6.215-18.494 9.225-27.771 1.466-4.519-3.181-5.094-5.364-7.228l2.104-.058z" clip-rule="evenodd"/><path fill="#FDFBFB" fill-rule="evenodd" d="M202.508 345.024l11.433-22.985c3.018 6.288 5.528 11.59 8.108 16.858.91 1.858-.16 2.343-1.618 2.63-5.642 1.11-11.287 2.203-17.923 3.497z" clip-rule="evenodd"/><path fill="#4587AC" fill-rule="evenodd" d="M310 380c-11.474 2.74-28.152.644-34-7 10.449 6.631 22.021 7.797 34 7z" clip-rule="evenodd"/><path fill="#4889AE" fill-rule="evenodd" d="M333.995 347.001c1.553 3.999 1.556 7.998-.002 11.997l.002-11.997zM329.996 367.994c-.879 3.122-2.879 5.123-6 6.003a22.704 22.704 0 0 1 6-6.003z" clip-rule="evenodd"/><path fill="#4487AC" fill-rule="evenodd" d="M302.998 285.001c2.345.261 4.863-.706 7.002.999-2.344-.262-4.863.704-7.002-.999z" clip-rule="evenodd"/><path fill="#FEFEFE" fill-rule="evenodd" d="M103.899 439.88c.024-.292.08-.577.167-.857 1.222-3.482 2.556-6.89 5.993-8.877 7.895-1.506 15.823-2.765 23.854-3.267 4.71-.522 8.057 4.255 12.875 3.312.349 6.239-1.77 12.398-.614 18.664-4.028 3.504-11.786 4.03-16.118 1.132-1.107-.741-1.909-1.459-.581-2.666.746-.679 1.694-1.434.946-2.461-.879-1.207-2.081-.474-3.133-.022-5.711 2.446-11.502 4.302-17.74 2.054-3.27-1.18-6.049-2.836-5.649-7.012zM161.67 414.804c-4.438 1.626-7.433 4.914-9.852 8.771-1.078 1.718-1.761 1.657-3.836 1.017-5.359-1.656-8.116-6.666-12.878-8.904-3.037-5.398-5.87-10.894-8.067-16.696 2.798-5.305 12.344-6.418 17.68-2.104 1.108.896 1.753 2.238 3.146 3.141-1.119-3.219-3.375-6.393-.049-9.252 3.222-2.771 7.076-3.352 11.157-2.221 1.11.309 2.132.889 3.233 1.246l1.998 1.233-2.532 23.769z" clip-rule="evenodd"/><path fill="#CCE9ED" fill-rule="evenodd" d="M162.203 389.8c-3.77.452-7.638-.385-11.347 1.063-3.061 1.195-4.565 2.686-2.092 5.832.704.895 1.165 2.022 1.556 3.108.609 1.688 1.603 3.764-.63 4.799-2.244 1.04-2.59-1.357-3.411-2.654-4.386-6.93-11.528-8.036-19.244-2.958-.252-1.864-.244-2.553-.048-4.024 3.953-.956 7.796-2.532 12.017-1.923 1.179.17 2.283-.243 2.876-1.442 2.069-4.187 5.982-5.272 10.1-6.019 3.845.346 7.954.054 10.223 4.218z" clip-rule="evenodd"/><path fill="#1A533A" fill-rule="evenodd" d="M124.99 362.901c.002-1.645 0-3.288.007-4.933.03-6.396.686-6.875 6.863-5.027l.334 1.084c-.063.813-.165 1.627-.181 2.442-.135 6.652-.13 6.652-7.023 6.434z" clip-rule="evenodd"/><path fill="#C9E7EB" fill-rule="evenodd" d="M146.789 430.19c-5.641 4.144-8.765-1.501-12.875-3.312l5.057-1.884c1.033 1.663 2.446 2.866 4.479 2.534 2.261-.368 2.98.833 3.339 2.662z" clip-rule="evenodd"/><path fill="#C9E6EB" fill-rule="evenodd" d="M110.059 430.146c-2.083 2.902-3.262 6.413-5.993 8.877.05-1.643.244-4.048.296-5.69 1.544-1.239 2.599-2.029 5.697-3.187z" clip-rule="evenodd"/><path fill="#FEFEFE" fill-rule="evenodd" d="M354.904 460.707c-9.041 4.746-18.377 8.302-28.877 7.155-5.383-3.059-10.85-5.404-17.359-4.991-6.591.417-13.145.467-19.549-2.444-4.174-1.896-9.076-1.678-13.756-1.435-2.263.117-2.99-.109-2.042-3.105 1.417-4.478 2.578-9.005 4.622-13.276.842-1.763 1.822-3.626 3.82-3.414 6.115.651 9.329-3.617 12.705-7.306 5.836-6.375 12.899-9.444 21.479-9.971 5.021-.308 9.116 1.153 12.72 4.297 2.318 2.022 4.77 2.323 7.385 1.155 14.02-6.264 20.141-.594 25.492 11.555.329.747.876 1.398 1.32 2.095-.499 7.432-3.185 13.981-7.96 19.685z" clip-rule="evenodd"/><path fill="#DBEEF2" fill-rule="evenodd" d="M306.885 467.826l-6.813.07c2.258-1.338 4.53-1.293 6.813-.07z" clip-rule="evenodd"/><path fill="#7CC1CE" fill-rule="evenodd" d="M298.033 417.885c1.541-1.272 3.357-.815 5.102-.813-1.548 1.223-3.35.859-5.102.813z" clip-rule="evenodd"/><path fill="#6C747C" fill-rule="evenodd" d="M381.983 374.983c.818 1.005 1.365 2.705-.397 2.389-4.209-.756-5.13 1.863-6.229 4.781-.636 1.691-1.321 3.464-3.338 4.083l-1.049-1.087c-.36-2.148 1.727-3.294 2.105-5.14l1.934-3.018c1.06-1.334 1.858-3.191 4.145-2.064l2.829.056z" clip-rule="evenodd"/><path fill="#6F5A59" fill-rule="evenodd" d="M411.078 372.563c-.541 1.832-.671 1.705-.671 1.705s-8.313-.393-10.267-.83c-.657-.147-1.189-.044-4.149-.521 1.551-7.161 1.498-6.935 5.854-6.045 6.322 1.292 10.17 2.422 10.17 2.422s-.471 1.879-.937 3.269z" clip-rule="evenodd"/><path fill="#67646B" fill-rule="evenodd" d="M379.154 374.928c-1.672.105-2.786 1.33-4.145 2.064.371-1.004.742-2.007 1.115-3.011 1.14-.093 2.182.119 3.03.947z" clip-rule="evenodd"/><path fill="#6685A2" fill-rule="evenodd" d="M258.191 341.211c-1.611-.486-2.193-1.327-2.598-2.18-.593-1.252-2.122-2.519-.952-4.103.851-1.151 2.163-.095 3.194.229 2.271.711 1.848 2.383 1.238 4.036-.221.608-.516 1.189-.882 2.018z" clip-rule="evenodd"/><path fill="#FEFEFE" fill-rule="evenodd" d="M388.008 400.991c-1.554 4.236-3.531 8.262-5.977 12.056-4.042 2.013-7.618 4.591-10.719 7.939-3.202 3.458-7.129 3.621-10.961.922-3.14-2.213-6.707-3.535-10.281-4.831 1.656-8.144 1.17-16.177-1.252-24.109l2.412-2.858c3.639-.143 7.283-.587 10.841.742 2.999 1.121 4.66 2.52 2.22 5.793-.968 1.297-1.563 2.936-2.053 4.505-.387 1.239-.584 2.774.979 3.47 1.625.725 2.226-.527 3.022-1.705 6.086-8.999 13.85-9.656 21.769-1.924zM409.099 439.881c-.693 5.71-6.209 9.026-13.542 7.922-3.445-.519-6.82-1.451-9.981-3.018-.881-.437-1.899-.98-2.776-.16-1.021.956-.29 1.781.486 2.476 1.982 1.774.494 2.687-.985 3.132-5.632 1.698-11.308 3.143-16.455-1.354 1.457-5.863 1.339-11.838 1.271-17.81 3.146-1.502 6.207-3.271 9.882-3.065l27.013 3.993c1.894 2.166 2.469 5.256 4.926 7.026.085.28.14.566.161.858z" clip-rule="evenodd"/><path fill="#C7E6EA" fill-rule="evenodd" d="M376.997 428.003c-2.831 2.514-5.782 4.643-9.882 3.065-.196-1.297-.488-3.561.886-3.333 4.685.776 5.782-3.968 9.035-5.199.073 1.821-1.446 3.634-.039 5.467z" clip-rule="evenodd"/><path fill="#84BAC3" fill-rule="evenodd" d="M346.941 410.883l.096 6.082-1.205-.053c.318-2.019-.296-4.211 1.109-6.029z" clip-rule="evenodd"/><path fill="#71BBCA" fill-rule="evenodd" d="M173.984 416.994c-2.832 1.761-5.964.667-8.952.943 2.829-1.789 5.973-.583 8.952-.943z" clip-rule="evenodd"/><path fill="#75BDCB" fill-rule="evenodd" d="M235.977 426.953l-6.984.063c2.314-1.514 4.643-1.481 6.984-.063z" clip-rule="evenodd"/><path fill="#9DB2B5" fill-rule="evenodd" d="M377.046 390.002c8.042.25 10.402 1.762 10.947 7.012-4.334-2.507-9.01-3.41-13.97-2.979l3.023-4.033z" clip-rule="evenodd"/><path fill="#516980" fill-rule="evenodd" d="M133.08 351.038l23.971.198c-1.412 2.226-1.333 4.471-.087 6.73-6.158-.778-11.619-3.97-17.671-5.102-1.782-.334-3.587-.541-5.382-.806-.279-.339-.555-.679-.831-1.02z" clip-rule="evenodd"/><path fill="#44474A" fill-rule="evenodd" d="M373.076 380.01c.154 2.063-1.244 3.492-2.105 5.14l-1.925-.371c1.343-1.591 2.686-3.18 4.03-4.769z" clip-rule="evenodd"/><path fill="#8B2C2B" fill-rule="evenodd" d="M337.135 369.884c.637-.605 1.245-1.134 1.99-1.587-.026 1.71-.485 2.99-2.305 3.682.104-.699.209-1.397.315-2.095z" clip-rule="evenodd"/><path fill="#FEFEFE" fill-rule="evenodd" d="M155.973 456.019c-8.252-8.593-7.817-22.133 1.028-32.017 6.11-1.775 12.339-2.437 18.688-2.034 1.383.087 2.453-.441 3.556-1.396 12.225-10.584 33.72-6.743 41.226 7.411 2.036 3.84 4.03 6.362 8.805 3.564 2.468-1.447 4.604-.408 6.186 2.253 2.136 3.593 3.935 7.314 5.366 11.212 2.324 6.325-.291 10.61-6.881 9.789-7.526-.938-14.066 1.951-20.992 3.447-.325.07-.659.271-.965.229-9.852-1.317-18.875 3.733-28.608 3.656-7.061-.056-13.897-.404-20.31-3.851-2.15-1.155-4.72-1.531-7.099-2.263z" clip-rule="evenodd"/><path fill="#61778B" fill-rule="evenodd" d="M214.866 333.97c2.688 3.799.267 4.532-2.894 4.822.056-2.153.262-4.216 2.894-4.822z" clip-rule="evenodd"/><path fill="#3C4F60" fill-rule="evenodd" d="M214.866 333.97l-2.894 4.822c-2.91.521-1.848-1.589-.988-3.323 1.061-2.141 1.724-4.052 3.882-1.499z" clip-rule="evenodd"/><path fill="#D0EBEF" fill-rule="evenodd" d="M158.043 402.566c-.332 1.928.141 4.958-2.749 4.842-2.374-.095-2.271-2.93-2.25-4.893.021-2.085-.214-5.049 2.654-4.943 2.387.089 2.111 2.937 2.345 4.994zM360.033 402.617c-.324 1.911.146 4.94-2.771 4.787-2.356-.124-2.264-2.96-2.219-4.917.047-2.064-.204-5.053 2.699-4.902 2.392.123 2.096 2.952 2.291 5.032z" clip-rule="evenodd"/><path fill="#5C7084" fill-rule="evenodd" d="M147.486 354.125c.059-.617.061-.884.087-.887 2.278-.209 4.611-.833 6.716.588.219.147.22 1.178.027 1.29-2.672 1.555-4.488-1.077-6.83-.991z" clip-rule="evenodd"/><path fill="#FED833" fill-rule="evenodd" d="M90.959 440.91c-3.129 3.246-4.75 2.204-6.264-1.712-.549-1.42-1.127-2.764-1.555-4.188" clip-rule="evenodd"/></svg>