<svg xmlns="http://www.w3.org/2000/svg" viewBox="0 0 1440 200"><g fill-rule="evenodd" clip-rule="evenodd"><path fill="#B2DDED" d="M913.002 68.833c-2.842.256-2.143 2.448-2.268 4.104-.057 6.606-.297 13.125.015 19.819.001 5.181.002 5.005 5.312 5.112 1.691.034 2.626.109 3.941.184.791.75 1.605 1.479 2.073 2.502.129.434.163.875.112 1.322-.198 1.611-.777 3.013-2.184 3.957-9.129 0-9.129 0-9.163 9.606-.014 3.799-.043 7.599.006 11.397.119 9.247-1.169 7.837 7.747 7.992 2.803.049 5.605.146 8.407.223 1.725 1.972.565 3.521-.724 5.052a4.768 4.768 0 0 1-.943.891c-.849.51-1.596 1.167-2.33 1.839-6.991.054-13.984.046-20.973.197-2.326.051-3.23-.707-3.226-3.117.059-25.314.057-50.628.003-75.941-.003-3.166-.003-3.098 3.219-3.157 3.656-.067 7.315.167 10.974.238 2.669 2.593 2.796 5.187.002 7.78z"/><path fill="#BBE0ED" d="M991.354 116.167c-1.213.463-3.271.875-4.771 1.188 1.229 1.021 2.628 2.227 3.619 3.266.08 4.146-2.245 6.193-7.288 6.417l-11.964-9.061v19.019c-3.691 1.124-7.878 2.653-11.575-.078-.032-7.792.189-15.522.134-23.33-.108-15.314-.064-30.63-.023-45.945.046-6.673.046-6.802 7.038-6.799 1.824.001 3.664-.075 5.477.203 2.239 2.527 3.781 7.22 3.778 7.813-.559-.018-2.544-.188-3.682.597-1.346.928-1.001 1.754-.965 7.336.024 7.769.298 16.607.113 24.374-.158 6.664-.158 6.664 8.38 7.192 2.123.132 5.156-.124 7.188-.165 1.725 1.441 1.628 3.183 3.818 4.316 1.222.632 4.127 2.705.723 3.657z"/><path fill="#B0DBEB" d="M872.906 70.85l12.286-11.675c.72 1.112.609 2.672.612 4.025.05 24.977-.096 49.955.151 74.929.046 4.625-1.825 5.249-5.562 4.913-3.232-.291-6.836 1.272-6.696-4.77.415-17.974.194-35.962.222-53.943-2.336-1.2-3.133-3.096-2.56-5.615 2.639-2.193 1.067-5.234 1.547-7.864z"/><path fill="#A6D7E8" d="M844.111 102.956l-20.277-19.295v31.37c.006 4.755-3.727 4.922-6.98 5.751-2.314.59-3.818-.019-4.331-2.476-.034-16.201-.019-32.399-.022-48.599.426-2.853-.223-6.404 4.292-6.595 4.375 3.804 8.217 7.482 12.242 11.306 6.082 5.777 11.966 11.764 17.934 17.661a13.424 13.424 0 0 1 2.889 6.622c.259 1.828 1.735 4.034-.077 5.528-2.082 1.715-3.85-.441-5.67-1.273z"/><path fill="#CBDDEB" d="M1084.947 79.994c.071 4.304.251 8.547.125 12.906-.123 5.1-.123 4.88 4.928 5.159 2.671 2.591 2.795 5.181-.001 7.771-4.968 0-4.934-.236-4.934 4.99 0 9.085.035 18.18.186 27.266.082 4.953.187 4.953-4.845 4.953-1.906 0-4.258-.279-6.391-.401-.546-1.055-.504-2.23-.505-3.367-.014-24.855-.014-49.711 0-74.567 0-1.137-.255-2.335.503-3.368.661-.094 1.323-.188 1.985-.28 2.257 1.18 3.207 3.268 3.74 5.574 1.091 4.711 3.497 8.9 5.209 13.364z"/><path fill="#85B8D7" d="M662.859 72.003c.046 16.03.124 32.062.108 48.093-.003 2.688.287 5.261 1.307 7.743-.111 1.302-.313 2.559-1.606 3.279-3.619 1.13-6.714-.538-9.873-1.867-1.015-1.923-1.772-4.288-1.772-6.596-.001-13.903.084-27.807.14-41.71.554-.979.867-1.958-.013-2.931l.021-2.078c3.122-3.607 6.912-5.237 11.688-3.933z"/><path fill="#C1DDEB" d="M988.054 61.971c10.03 1.311 18.28 6.002 24.511 13.824 6.928 8.699 6.204 20.026-1.448 28.724-3.31 3.762-7.132 6.909-11.988 8.556-3.58.157-4.371-1.46-2.704-4.433 1.184-2.11 1.389-4.095 2.423-6.279.986-.92 2.173-1.974 3.067-3.375 5.386-8.442 5.78-15.92-3.955-23.371-2.606-1.995-5.189-3.151-8.053-4.757-1.797-.859-3.649-2.292-3.884-4.088-.248-1.898-1.381-4.373 2.031-4.801z"/><path fill="#BEC8DC" d="M1250.945 91.012c8.323 14.415 16.034 28.342 23.198 42.973-2.94 4.669-5.667 5.749-9.981 3.954-7.961-14.743-15.526-29.386-23.453-44.147-.606-1.13-1.297-2.53-1.73-3.752-.322-2.401 1.688-1.804 2.374-1.346 2.96 1.978 6.357 1.739 9.592 2.318z"/><path fill="#FEFEFE" d="M236.95 114.873l.202-9.861c1.406-1.341 1.236-2.684.007-4.028l.005-17.979c3.063-1.477 3.636-4.676 5.046-7.312 2.292-1.563 4.526-1.993 6.611.34l.007 59.926c-2.872.678-3.816-1.465-4.939-3.326-.3-.379-.637-.727-1.188-.707-1.3.633-2.309 2.169-4.036 1.247l-1.711-2.064c-1.955-2.569-1.434-5.306-.377-7.976.952-2.403 1.445-4.724.034-7.097-.106-.447.012-.837.339-1.163z"/><path fill="#D4DAE8" d="M1146.904 142.812l-3.847-.001c-5.322-6.311-7.604-13.86-8.889-21.815-.055-18.979-.123-37.96-.136-56.939-.001-1.284.093-3.034 1.943-2.983 3.405 3.501 3.152 8.336 4.07 12.557 3.252 14.965 3.933 30.272 4.925 45.517.322 4.955.411 9.927.909 14.873.104.294.104.564.204.777 2.32 2.461 2.756 5.116.821 8.014z"/><path fill="#E6EDF4" d="M117.725 92.891l18.526-35.223 15.795 30.308c-3.743 3.187-6.947 3.485-11.065 1.033-.77-1.233-1.557-2.456-2.305-3.703-.735-1.226-1.429-2.476-2.399-4.166l-6.289 10.83c-2.728 2.622-6.363 1.912-9.617 2.634-1.157-.146-2.129-.581-2.646-1.713z"/><path fill="#F7D3E1" d="M1337.973 68.845l-4.934.003c-2.816-2.588-2.741-5.175.001-7.762 11.308-.429 22.616-.396 33.924.007 3.417 4.299-.353 5.802-3.01 7.738l-8.949.129c-1.049 5.517-.316 11.087-.504 16.629-.078 2.29.123 4.569-.602 6.838-.733 2.296-2.028 2.792-4.097 1.881-.775-.465-1.217-1.283-1.762-2.139-.823 1.688-.204 3.501-1.508 4.729-1.155.893-2.331 1.096-3.541.113-.055-8.095-.082-16.19-.19-24.285-.02-1.483.754-3.485-1.779-3.88-1.016-.846-2.033-.845-3.049-.001z"/><path fill="#CFDBE8" d="M411.983 142.848c-10.295 0-10.295 0-14.021-7.764-6.652-13.862-14.098-27.353-21.24-40.984.805-.863 1.718-.703 2.657-.283 2.242 1.952 4.217 4.153 5.98 6.537.688.736 1.513 1.212 2.542 1.281.78.133 1.519-.105 2.27-.25.587-.081 1.188-.021 1.761-.208 5.818 10.115 10.818 19.811 16.302 29.762-.838 1.45-.566 2.662.519 3.946 1.04 1.231 1.236 2.634-.315 3.71-.221.086-.389.227-.446.405.249.052.497.105.784.168 2.037.417 3.528 1.268 3.207 3.68z"/><path fill="#FDFDFD" d="M288.966 139.021c-13.652-5.58-24.71-13.788-29.222-28.693-.689-2.723-.874-5.452-.689-8.309.823-.867 1.453-1.979 2.786-2.202 2.715.743 2.955-1.504 3.969-3.074 1.178-1.825 2.267-4.999 5.259-1.729-2.401 12.554 2.497 22.227 11.891 30.124 1.383 1.598 1.657 3.596 2.012 5.562.355 1.1 1.407 1.607 2.081 2.438.824 1.399 2.297 2.219 3.175 3.571.144 1.08.906 2.5-1.262 2.312z"/><path fill="#BBC6DC" d="M1250.945 91.012c-2.895 3.183-5.854 3.207-9.004.313-.782-.72-1.508-1.955-2.963-1.286-1.694-2.81-3.371-6.26-5.197-9.289-.975 1.491-1.769 2.993-2.614 4.354-4.187.454-6.624-2.445-9.046-5.1 3.64-7.024 7.278-14.05 11.483-22.167 6.128 11.686 12.011 22.143 17.341 33.175z"/><path fill="#FCF2F7" d="M226.932 119.174c-7.885-9.211-15.866-18.339-23.728-27.566-2.142-2.514-2.017-2.889-3.262-1.625-.848.624-1.721.534-2.609.094-.964-.706-2.01-1.268-3.114-1.74-1.771-1.251-3.325-2.667-3.756-4.942-.143-2.117 1.034-3.722 2.835-4.029 4.529-.773 9.225-2.722 13.579.679l10.919 13.002c-.163 1.543.548 3.103-.024 4.563.058-.074.095.22.143.139 1.003-.596 2.067-.646 3.107-.804 3.016 3.265 5.585 6.232 8.103 9.69 1.018 4.484 1.357 8.851-2.193 12.539z"/><path fill="#83B8D7" d="M635.06 107.981c4.845 10.232 3.857 20.599-1.726 30.103-3.208 5.04-3.208 5.04-11.612 4.992-2.351-.014-5.558-.071-9.568-.071 13.681-9.321 17.003-20.85 10.86-35.006 3.963-2.436 5.225 1.436 7.321 3.228 2.044-.513 1.114-5.187 4.725-3.246z"/><path fill="#BFC3DA" d="M1288.852 96.252c-4.998-10.44-4.824-20.497 2.112-30.121 2.707-3.756 5.88-5.178 10.896-5.371 2.89-.111 5.828.072 9.015.5-10.909 5.955-13.712 15.475-12.836 26.729-2.529 3.348-3.768 8.129-9.187 8.263z"/><path fill="#FBF4F8" d="M140.981 89.009l11.065-1.033c6.256 10.369 11.761 21.144 17.247 31.93-3.061 3.622-5.675 4.12-10.926 2.082-6.009-10.881-12.092-21.721-17.386-32.979z"/><path fill="#FBEDF4" d="M302.009 142.933c-1.149-.151-1.556-.245-3.084-.715-2.452-3.524.298-5.727 2.08-8.174 5.994.981 5.976.981 6-5.495.016-4.159.092-8.319.141-12.479 3.883-.418 7.617-2.514 11.668-1.042.061 8.823.037 17.648.233 26.469.059 2.646-.841 3.657-3.424 3.37-4.348-.483-7.74-.905-12.752-1.796-.216-.491-.499-.561-.862-.138z"/><path fill="#B9CCDF" d="M1216.071 113.185c-4.074 7.899-8.487 15.648-12.097 23.755-2.49 6.106-2.49 6.106-10.16 6.106-1.861-.057-3.258-.04-5.897-.04l15.3-27.997c2.389-.839 3.229-3.096 4.55-4.928 1.649-2.285 3.807-4.023 6.698-2.855 2.755 1.114 2.107 3.679 1.606 5.959z"/><path fill="#82B2D2" d="M711.949 94.006l-.001 4.98c-3.921.929-5.947-1.577-7.834-4.258.004.069-.313-.144-.313-.144s-.264.283-.26.354c-.351 7.648.038 15.258-1.007 22.806-.074 1.686.05 3.373-.149 5.053-.286 1.163-.692 2.205-2.176 2.16.043-19.605.079-39.21.146-58.815.006-1.626.006-3.259.658-4.833 1.634 1.15 2.41 2.64 1.949 4.167.438-3.015 3.88-2.714 6.02-4.227 3.179 0 3.179 0 3.178 2.799-.116 8.652-.147 17.306-.21 25.958-1.337 1.335-1.507 2.668-.001 4z"/><path fill="#B9C9DD" d="M1216.071 113.185c-.589-1.615-.304-4.089-2.387-4.413-2.291-.356-4.051 1.521-4.938 3.4-1.218 2.577-2.494 4.187-5.529 2.837l18.904-35.005c4.107-.313 6.54 2.594 9.046 5.1-3.462 7.175-7.145 14.102-11.18 20.894-1.887 1.256-3.26 2.779-2.739 5.284l-1.177 1.903z"/><path fill="#A2D4E7" d="M798.833 115.281c.002 8.625-.275 17.218.088 25.946.083 1.979-1.61 1.754-2.896 1.755-2.653.003-5.308-.071-7.962-.113-1.254-10.849-.234-21.736-.557-32.596.334-2.879 2.145-1.765 3.51-1.152 2.205.989 4.22 2.349 6.187 3.761.557.608 1.534 1.598 1.63 2.399z"/><path fill="#C2C6DB" d="M1288.852 96.252c2.904-2.93 4.553-7.256 9.187-8.263.983 5.775 4.365 10.388 7.267 15.261 1.766 2.967 3.32 6.1 3.812 9.61.205 4.146-5.05 9.17-9.045 8.692-1.604-.192-1.444-1.57-1.875-2.564-.435-6.438-3.385-11.698-6.696-17.113-.917-1.875-2.044-3.625-2.65-5.623z"/><path fill="#F8ECF3" d="M348.785 118.995c-3.366 6.483-6.904 12.886-10.028 19.484-1.923 4.587-1.923 4.587-7.614 4.587-2.35 0-4.514-.063-7.675-.063l15.512-28.05c4.301-1.131 7.124.031 9.805 4.042z"/><path fill="#8EBBD8" d="M661.937 130.025l2.337-2.187c6.978 8.094 15.824 9.223 25.604 6.871 5.37 1.943 5.891 2.87 4.166 7.406-13.008 3.812-25.544 3.717-36.06-6.097-.244-1.751-1.714-2.281-2.991-3.003l-.795-1.081c.554-1.811 1.874-2.022 3.486-1.712 1.426.277 2.872.648 4.253-.197z"/><path fill="#81B1D1" d="M726.009 142.646c-.218-.779-.624-1.56-.625-2.34-.014-17.864.3-35.525.345-53.39.002-.643-.02-1.486.123-2.128 1.795-.501 1.332-2.914 2.985-3.539a3.11 3.11 0 0 1 1.983-.178c.623.265 1.153.26 1.336-.623.172-.417.422-.738.739-1.031 2.75-.999 5.405.519 8.128.264 1.135.419 1.861 1.407 2.843 2.041.883.721 1.853 1.352 2.483 2.34.771 1.896 2.716 2.243 4.221 3.178.72.695 1.1 1.533 1.062 2.547-.429 2.028-1.837 3.195-3.594 4.052-3.256-3.022-6.826-6.327-10.507-9.744-.344 5.156-.182 9.43-.523 13.873-1.281 2.381-2.271 5.107-5.76 4.868-2.998 1.418-2.832 4.474-3.631 7.042 1.139 6.727.792 13.47.418 20.218-.251 4.254 1.858 8.887-2.026 12.55z"/><path fill="#FAEDF4" d="M348.785 118.995c-3.552-.659-6.563-2.632-9.806-4.041l19.172-35.936c3.631-1.583 4.019 1.178 4.728 3.518.054.479-.003.952-.138 1.414-1.932 1.938-3.731 4.013-5.663 5.959-1.098 1.107-1.995 2.18-1.065 3.809.281.342.56.675.875.988.346.321.673.646 1.01.973 1.733 1.789.899 3.618.179 5.518-2.581 6.201-5.962 11.987-9.292 17.798z"/><path fill="#C7E4F0" d="M494.838 85.975l-.007 18.01c-1.081 1.351-2.065 2.702.001 4.052l-.011 14.973c-1.37 4.042-2.367 8.252-5.482 11.476-1.079 1.116-2.2 2.117-3.835 1.677-1.659-.446-1.427-2.032-1.585-3.286-.892-7.058-.22-14.148-.401-21.217 3.848-7.455 4.485-15.844 6.855-23.729-.004-1.963.425-3.742 2.11-4.987 2.961-.686 1.486 2.082 2.355 3.031z"/><path fill="#82C0DC" d="M519.848 94.953c.057 3.353 2.528 2.871 4.634 2.876 9.655.024 19.31.075 28.963-.01 2.996-.026 5.029.211 5.044 4.153.016 4.035-2.162 4.099-5.083 4.063-9.817-.122-19.637-.13-29.455-.182-.583-.679-1.229-1.298-1.867-1.926-.976-1.024-2.057-1.876-3.469-2.245-2.096-1.093-3.243-2.757-2.47-5.101.558-1.685 1.76-2.701 3.703-1.628z"/><path fill="#EBF5F8" d="M49.992 61.052c11.145-.072 22.293-.021 33.433-.287 3.679-.088 3.369 1.972 3.46 4.419.096 2.575-.332 3.931-3.444 3.881-11.481-.18-22.967-.093-34.451-.105-.768-.858-.754-1.951-.937-2.991-.114-.413-.149-.835-.161-1.262a4.254 4.254 0 0 1 .008-1.299c.165-1.257 1.171-1.768 2.092-2.356z"/><path fill="#ADCBE0" d="M1146.904 142.812c-1.214-2.575-.91-5.306-.819-8.016 10.812.014 21.631.296 32.429-.078 5.144-.178 5.479 1.345 5.438 6.283-3.056 1.666-7.171 1.476-10.909 1.832l-26.139-.021z"/><path fill="#F9FBFB" d="M52.004 66l-3.014 2.959c-.334 6.697-.193 13.775-.178 20.049-.959.672-2.216 1.838-3.474 2.102-.503.335-.981.706-1.446 1.123-2.235 1.714-4.512 2.419-6.886.279-.799-1.314-.503-2.73-.375-4.117.506-.777.089-1.527-.114-2.303-.035-4.988-.014-9.96-.013-14.925a3.009 3.009 0 0 1 .326-1.417c.216-.243.461-1.477.763-1.578.307-.103 2.279-.149 1.092-1.248 3.193-4.315 6.177-5.158 10.316-2.926l-.001.001c.591 1.282 3.331-.659 3.004 2.001z"/><path fill="#FAF1F6" d="M158.367 121.987l10.926-2.082 12.734 23.093c-4.067 0-7.193-.083-10.312.033-1.715.063-2.748-.541-3.524-2.065-3.231-6.349-6.543-12.656-9.824-18.979z"/><path fill="#D0DAE8" d="M1089.999 105.83l.001-7.771c10.107-.074 20.216-.056 30.32-.277 3.361-.073 3.219 1.899 3.221 4.166.003 2.26.178 4.193-3.215 4.115-10.105-.232-20.218-.176-30.327-.233z"/><path fill="#F8EFF4" d="M199.963 92.002l-.019 14.011c-1.379 2.996-1.519 5.991.007 8.985l.023 5.006c-1.66 1.494-3.306 1.143-4.951-.019-2.548-3.316-3.315.711-4.939 1.215-.944.174-1.493-.179-1.57-1.173-.032-9.792-.028-19.575.015-29.357.005-1.235-.701-3.008.789-3.588 1.675-.652 2.584.945 3.423 2.159.719 3.283 2.913 1.824 4.772 1.455 1.009.078 1.764.627 2.45 1.306z"/><path fill="#8DCBE2" d="M616.011 71.026c4.742-9.83 4.708-9.745 23.464-9.745-10.569 5.531-14.421 14.82-13.605 25.67-6.089.813-10.143-2.397-10.02-8.158.056-2.587-1.182-5.211.161-7.767z"/><path fill="#8BB7D5" d="M694.044 142.116c.233-3.38-2.922-4.855-4.165-7.405 4.329-2.313 8.434-4.862 10.33-9.753l.933-2.029c1.807-1.322 3.614-2.525 5.455.245-.203-3.592-2.667-6.346-2.361-9.794 3.117-4.175 4.184-4.226 7.708-.379-.319 16.124-1.569 21.388-17.9 29.115z"/><path fill="#A7C7DE" d="M1145.881 134.019c-1.793-6.612-1.459-13.48-2.422-20.194-2.521-17.58-4.992-35.168-7.482-52.752l2.006-.051c5.28 5.202 6.512 12.086 7.861 18.922.216 5.648-.043 11.29.365 17.837.39.433 1.125.275 1.125.275s.521 4.691-.824 6.144c-1.439 1.554-1.94 2.984-.674 4.796l.045 25.023z"/><path fill="#EEF7F9" d="M37.316 91.933c2.459.149 4.846.052 6.67-1.96l-.009.014c1.393-.326 3.442-.652 4.835-.979.087.312-.02 1.957 0 2.273.477 7.596.071 6.259 7.187 6.772 2.507 1.456 3.58 3.714 3.657 6.531a2.857 2.857 0 0 1-.65 1.253l-10.035.158c-.919.982-.019 2.516-1.054 3.468-.965.635-2 .69-3.084.399-2.643-1.783-7.009-.509-8.313-4.674.469-4.408-1.054-8.933.796-13.255z"/><path fill="#83BAD7" d="M616.011 71.026c.117 3.421 2.51 6.349 1.867 10.034-.333 1.91 2.052 2.236 3.388 3.069 1.527.951 3.068 1.882 4.604 2.821l3.06 9.08c1.89 6.261-2.993 7.824-6.955 10.026-2.488-3.669-4.327-6.918-5.905-11.047l.392-.303c.01-.486-.207-.631-.652-.435-2.678-7.771-3.393-15.188.201-23.245z"/><path fill="#CADAE9" d="M434.967 71.136c1.845 1.708 3.189 3.083 4.902 4.897-.342 2.115-2.046 2.657-3.715 3.344-3.13 1.288-2.68 3.123-2.658 6.685-.195 1.737-.021 3.439-.225 5.235-.021.828-.021.828-.063 1.537.063 4.417.052 8.229.26 12.383-1.103 2.654-3.049 1.925-4.848 1.071-2.989-1.418-5.679-3.238-7.03-6.468-.194-3.245-.046-6.497-.085-9.744 2.558-7.681 5.409-15.159 13.462-18.94z"/><path fill="#C9C6DB" d="M1343.055 125.002l-.011-11.033c.708-2.041.629-4.2.941-6.301.097-.651-.108-1.832.181-1.902 4.006-.981 1.604-5.071 3.498-7.035.563-.617 1.053-1.285 1.609-1.888 1.101-1.191 2.518-1.653 4.04-1.142 1.702.572 1.167 2.17 1.163 3.387-.028 9.227.166 18.453-.086 27.677-2.045 2.429-4.109 3.628-6.252.108-.183-1.284-.128-2.584-.126-3.871-.036-1.192.439-2.292.684-3.386-.522 1.631-.808 3.242-.696 4.919-.005.669.006 1.33-.026 1.989-.05.997-.069 2.141-1.214 2.449-1.48.399-1.946-.795-2.374-1.9-.301-.779-.787-1.445-1.331-2.071z"/><path fill="#B8DFED" d="M920.004 105.834c-.062-1.694.209-3.319.998-4.837.538-.407 1.158-.615 1.81-.751-.647.144-1.271.342-1.807.752-.791-.826-.988-1.854-1.003-2.945 8.624-.072 17.252-.032 25.871-.272 3.413-.095 3.152 1.921 3.149 4.156-.002 2.223.299 4.223-3.142 4.125-8.62-.246-17.25-.173-25.876-.228z"/><path fill="#FAF5F8" d="M94.012 137.027c5.938-11.922 12.214-23.662 18.936-35.162 1.592.85 1.827 2.271 1.506 3.834-2.538 12.343-6.139 24.313-12.494 35.313-6.12.886-7.645.121-7.948-3.985z"/><path fill="#DFE7F0" d="M206.878 80.043c-4.128.37-8.264.673-12.38 1.147-1.478.17-3.122.568-2.479 2.795-1.318 1.123-3.245 2.516-3.379-.43-.345-7.565-.249-15.157-.026-22.735.021-.728.715-1.012 1.464-.867 5.893 6.451 11.523 13.123 16.8 20.09z"/><path fill="#D7E4ED" d="M293.887 62.924c7.151-2.938 14.713-3.491 22.312-3.96 3.278-.202 3.098-.05 3.208 4.099.125 4.719.125 4.719-3.132 4.765-6.881.097-13.438 1.599-19.98 3.432l-.667-.162c-4.918-2.758-5.283-4.473-1.741-8.174z"/><path fill="#F8F0F5" d="M271.069 95.014c-3.454-.422-3.455 2.628-3.949 4.492-1.003 3.787-2.541 3.949-5.109 1.494-1.797-2.02-1.648-4.618-2.093-7.039.239-1.43.567-2.367 1.141-3.94 2.579-.854 1.642-3.589 2.698-5.255 1.483-.921 3.153-1.371 4.78-1.93.793-.296 1.53-.652 1.708-1.588 1.412-7.443 2.884-6.98 10.178-7.768 1.031-.021 2.058-.035 3.089.018 1.64.13 3.493-.051 3.476 2.435-7.147 4.826-12.847 10.857-15.919 19.081z"/><path fill="#C8DAE8" d="M493.002 83.001c-.053 1.725.231 3.514-.976 5.014-2.821 1.563-4.262 5.475-8.339 4.902-.755-2.856.654-5.91-.788-8.705l-2.749 1.901-.671-.242c-1.062-.966-2.306-1.781-2.697-3.301-.185-1.319.174-2.435 1.233-3.286 3.661-.304 3.961-2.656 3.362-5.556.172-1.42 1.484-2.307 1.726-3.695a54.488 54.488 0 0 1 2.944-2.914c3.605 2.113 5.58-2.585 8.794-2.106l-.006 8.034c-1.251 3.2-.834 6.708-1.833 9.954z"/><path fill="#86B4D4" d="M711.944 113.001c-2.541-1.245-4.966-1.681-6.944.997-.268 1.439-.458 2.856-.353 4.356.097 1.372-.625 2.84-2.176 2.733-1.523-.104-.609-1.984-1.321-2.835-.042-6.971-.048-13.942-.148-20.912-.03-2.109.428-3.936 2.03-5.381 1.105-.513 1.542.248 1.965 1.033 1.619 2.807 5.045 3.518 6.95 5.993l-.003 14.016z"/><path fill="#C0DFEC" d="M998.094 126.962l19.242 15.25c-16.43 2.507-18.629-2.108-26.768-9.058.082-1.547.695-2.885 1.605-4.113 1.363-2.434 3.105-3.798 5.921-2.079z"/><path fill="#FAF0F5" d="M199.937 128.002l.033 5.004c-1.589 1.992-1.141 3.994-.03 5.999.095 4.007.095 4.007-3.128 3.948-2.579-.047-5.211-.161-7.795-.266-.782-6.619-.997-13.233.173-19.835 5.651-4.719 8.934-3.146 10.747 5.15z"/><path fill="#86B2D3" d="M726.167 130.029l.039-22.145c3.572-.133 7.145-.215 10.712.117l.028 18.002c-1.581 1.87-2.448 4.41-4.966 5.402-2.238.883-4.223.552-5.813-1.376z"/><path fill="#C9D9E8" d="M463.008 103.022c-4.56 5.009-4.566 5.016-9.078.493-4.054-4.064-8.091-8.146-12.136-12.219a5.107 5.107 0 0 1 .133-1.194c.455-.951.591-1.993.852-3.006 1.037-1.772 1.785-3.846 4.248-4.154l5.995 6.034c.714.567 1.431 1.102 2.271 1.856 3.457 3.104 3.457 3.104 6.642.001 2.153 1.475.877 3.392.277 4.843-1.021 2.469-.788 4.387 1.206 6.116.08.483-.058.893-.41 1.23z"/><path fill="#C3C9DD" d="M1310.073 124.999c-2.732 13.01-6.099 19.376-25.564 17.584 4.926-2.905 8.387-6.524 11.254-10.711 2.697-3.253 6.171-5.395 10.021-6.999 1.441-.332 2.89-.921 4.289.126z"/><path fill="#C2E0EE" d="M519.814 114.981l.02 2.036c-.381 1.677-1.457 3.354-.001 5.03a779.4 779.4 0 0 0-.255 12.773c.363.883-.431 1.547-1.038 2.148a8.62 8.62 0 0 1-1.468.746c-3.148 1.621-6.278 3.119-8.529-1.268-.097-5.275-.018-10.551-.042-15.819-.038-1.202.098-2.76 1.288-2.949 2.785-.443 4.67-2.224 6.832-3.676 1.248-.835 2.546-.71 3.193.979z"/><path fill="#D0D8E7" d="M1099 61.053c7.109-.073 14.224-.03 21.328-.27 3.354-.113 3.227 1.887 3.219 4.153-.009 2.238.21 4.261-3.198 4.124-6.442-.26-12.898-.168-19.349-.223-3.146-1.957-5.343-4.159-2-7.784z"/><path fill="#C0DDEC" d="M519.848 94.953c-1.486.496-2.901 1.143-2.429 3.076.445 1.827 2.13 1.796 3.574 2.045.162 5.919-3.235 9.397-8.128 11.857-3.325 1.621-4.447.353-4.397-3.08.107-7.406.032-14.815.034-22.212.055-2.656 1.555-2.465 2.604-.896 1.12 1.674 2.307 2.165 4.103 1.816 2.729.241 3.575 2.463 4.661 4.433l-.022 2.961z"/><path fill="#A6D7E8" d="M823.819 123.017c.054 4.817.147 9.634.148 14.451.002 5.787.008 5.367-6.199 5.484-5.411.103-3.769.01-4.22-.921-2.617-4.646-.918-9.658-.709-14.525 1.14-7.482 4.623-8.906 10.98-4.489z"/><path fill="#FCFDFD" d="M101.992 140.005c1.241-6.067 4.268-11.5 6.154-17.338 2.196-6.796 4.494-13.569 4.801-20.802 1.165-3.219 2.851-6.16 4.777-8.975l3.276.087c2.892-.989 3.829 1.083 3.394 2.999-.687 3.021-.228 6.177-1.367 9.092l-2.063 3.921c-3.526.867-5.138 3.243-6.342 6.628-2.819 7.922-6.371 15.569-9.659 23.313l.01.059c-.915.57-1.054 3.415-2.981 1.016z"/><path fill="#CBC9DD" d="M1343.055 125.002c1.606.1 2.354 1.396 3.334 2.482 1.095-1.073.393-2.385.628-3.522 1.896-.565 1.129 1.505 1.968 1.986 1.01 2.891 3.163.692 4.739 1.064 1.444 5.228.976 10.479.209 15.736-11.104.899-11.118.899-11.087-9.806.008-2.646.136-5.293.209-7.94z"/><path fill="#C6D3E3" d="M482.9 84.212c2.301 2.634.563 5.817 1.181 8.681 1.838 1.156 2.172 2.978 2.195 4.938-1.027 3.199-.464 6.588-1.134 9.831-.438 1.097-.528 2.304-1.054 3.374.292 7.882-1.063 15.859 1.271 24.217 4.248-3.652 5.774-8.817 9.463-12.243l-.004 15.978c-.24.305-.491.598-.758.88-.408.429-.76.907-1.202 1.306-.645.497-1.304.967-2.097 1.204-1.631-.276-3.252-.455-4.767.46-2.723 0-2.816-.086-2.816-4.088-.058-16.364-.027-32.729-.046-49.095-.003-1.816-.151-3.63-.232-5.443z"/><path fill="#B8DFEE" d="M925.005 139.997l1.996-4.944c6.297-.072 12.6-.014 18.889-.267 3.428-.139 3.123 1.947 3.132 4.164.01 2.235.277 4.274-3.152 4.106-5.624-.276-11.266-.182-16.9-.243-1.278-1.001-3.753-.317-3.965-2.816z"/><path fill="#ACDAEA" d="M873.003 77.979c-.091 2.174.145 4.301.917 6.35-4.612 3.395-7.951 6.796-12.051 10.615-4.683 1.004-7.823-1.097-7.744-5.476.137-.233.281-.359.531-.611 1.266-1.134 3.471-.521 3.012-2.991 3.958-3.783 7.196-7.295 11.149-10.949 3.048-1.237 4.638-.482 4.186 3.062z"/><path fill="#ACC7DD" d="M1163 98.054c5.97-.069 11.942-.029 17.906-.251 3.274-.121 3.281 1.813 3.284 4.144.003 2.329.017 4.226-3.282 4.104-6.296-.234-12.604-.16-18.906-.215-3.173-3.044-1.991-5.529.998-7.782z"/><path fill="#A2D5E8" d="M798.835 117.25c-.366-.349-1.476-2.912-1.842-3.262-3.404-1.744-5.774-5.02-9.438-6.383-.017-4.104-.425-8.246 1.317-12.153 1.249-1.011 3.528-1.222 2.878-3.718.125-.98.647-1.765 1.221-2.524.96-.897 1.873-1.84 2.791-2.778 1.141-1.165 2.318-1.164 3.071.545l.002 16.972c-2.191 1.68-.281 3.361-.002 5.042-.013 2.043.002 5.447.002 8.259z"/><path fill="#CBD7E6" d="M422.24 88.666l.002 11.679c1.768 2.901 2.634 6.484 6.129 8.079 1.791 2.43 3.765 4.744 4.994 7.548.146.684.164 1.364-.06 2.037-.199.275-.473.649-.737.605-3.496-.588-1.498 1.581-1.4 2.788.087 1.697-1.014 2.651-2.21 3.542-2.305 1.598-4.586 1.469-7.01.344-.198-12.601-.354-25.599-.527-38.374-.12-8.808-.02-17.618-.015-26.428 0-.164.035-.328.054-.491l.49.209c2.515 2.091 1.992 5.006 2.104 7.749-.443 3.332-.917 6.667.354 9.941.284 3.793-.985 7.273-2.168 10.772z"/><path fill="#8CCAE1" d="M798.833 86.977c-2.638-.632-2.877 2.565-4.832 3.024-.866.819-1.66.587-2.42-.165-.483-1.688-.566-3.511-1.681-4.994.016-1.929-.986-2.272-2.778-2.991-2.573-1.032-7.398.396-7.155-4.901l5.941-5.987c6.803-3.116 8.262-2.535 11.066 4.523.495 1.247 1.423 2.237 1.867 3.497l-.008 7.994z"/><path fill="#ABC4DC" d="M1162.001 61.053c6.298-.068 12.599-.031 18.892-.249 3.257-.113 3.3 1.792 3.296 4.134-.003 2.323.021 4.256-3.278 4.108-5.296-.236-10.606-.156-15.91-.21-2.802-1.9-5.695-3.766-3-7.783z"/><path fill="#CDDAE8" d="M1099 61.053c-.498 2.895 1.027 5.269 2 7.785-2.776.054-5.553.147-8.329.154-7.229.02-7.229.005-7.722 6.996-.331.067-.752.231-.968.077-3.677-2.635-5.369-11.247-2.98-15.015 5.999.002 11.999.002 17.999.003z"/><path fill="#89B4D4" d="M726.167 130.029c4.583 1.31 6.893-3.47 10.779-4.025.067 4.122-.065 8.26.261 12.362.299 3.771-1.163 5.118-4.803 4.663-2.114-.266-4.263-.264-6.395-.383l.158-12.617z"/><path fill="#A8C5DC" d="M1162.001 61.053l2.999 7.783-18.949.205c-4.578-1.258-5.406-3.388-3.091-7.952l19.041-.036z"/><path fill="#86C3DE" d="M519.869 91.992l-4.761-3.104c-2.837-.604-3.832-2.475-3.598-5.197.25-1.751 2.512-3.171.833-5.224-.874-.963-2.188-1.417-2.924-2.528-.217-.453-.389-.961-.249-1.427.952-3.172 4.647-5.414 2.92-9.586-.402-.97 1.172-2.209 2.521-2.663.755-.172 1.476-.037 2.182.236a4.55 4.55 0 0 1 1.248.82c1.032 1.816 3.948 2.607 3 5.504-1.19 3.618-1.169 7.175-1.134 10.989.037 4.077.005 8.095-.038 12.18z"/><path fill="#DFF0F7" d="M248.822 76.032c-2.273.323-4.546.646-6.819.971-1.606 1.781-3.223 1.506-4.846.023-.05-3.266-.128-6.53-.146-9.796-.035-6.687-.004-6.37 6.974-6.17 1.49 1.779 3.4 3.149 4.853 4.967l-.016 10.005z"/><path fill="#B9E0ED" d="M930.001 61.057c5.294-.072 10.596-.007 15.881-.267 3.414-.168 3.141 1.922 3.139 4.146-.003 2.213.313 4.294-3.131 4.118-5.285-.271-10.59-.167-15.887-.223-2.799-2.59-2.673-5.182-.002-7.774z"/><path fill="#EBF1F7" d="M59.003 105.001c-3.035-1.437-1.841-4.701-3.004-6.947 8.319-.072 16.638-.173 24.958-.211 6.67-.03 7.264.938 5.038 7.923-2.207-2.522-4.852-2.64-8.061-2.198-6.262.862-12.528 2.239-18.931 1.433z"/><path fill="#9FC4DE" d="M854.125 89.469c2.266 2.378 4.911 3.87 7.744 5.476-2.229 2.149-3.041 2.954-5.509 5.157-1.797.398-2.879 1.502-3.26 3.3-4.018 3.974-4.018 3.974-8.989-.445l4.368.756c-.691-3.912-2.168-7.642-1.512-11.632 3.002 2.013 3.002 2.013 7.158-2.612z"/><path fill="#A9C8DE" d="M1163 98.054c-.766 2.538-1.173 5.123-.998 7.781-4.295.057-8.595.254-12.883.114-2.367-.078-3.358.767-3.283 3.046-2.451-1.188-1.885-3.151-1.209-5.046.711-1.993 1.576-3.932 2.373-5.894 5.334.001 10.667 0 16-.001z"/><path fill="#CFEAF4" d="M422.24 88.666l.022-10.709c.924-2.337.838-4.884 1.474-7.264.741-2.775 1.704-5.572 5.587-4.854 1.995 1.681 3.709 3.316 5.645 5.296L422.24 88.666z"/><path fill="#8CC9E0" d="M621.975 106.058c.271-2.076.155-4.063 3.307-4.408 2.869-.313 2.662-3.561 3.647-5.618 2.445 4.261 4.407 7.55 6.13 11.95-2.302.797-.607 2.929-1.414 4.231-.944 1.524-1.794 3.408-3.997 2.865-1.521-.375-2.994-1.038-2.478-3.411.72-3.311-2.788-2.397-4.158-3.668l-1.037-1.941z"/><path fill="#B5DFED" d="M930.001 61.057l.002 7.775-17.001.001-.001-7.779 17 .003z"/><path fill="#80AED0" d="M751.003 89.956l-.994-1.9c-.148-.975-.035-1.866.812-2.52 2.646-1.182 3.205 2.19 5.219 2.393.269.19.565.474.805.696 5.466 5.084 5.466 5.084 11.027.334.219.145.438.289.66.433 1.54 2.239.027 3.899-1.063 5.64-1.854 2.165-3.06 4.811-5.016 6.909-.93 1.142-1.986 2.09-3.533 2.271-2.993-2.301-5.164-4.962-8.028-7.872-1.16-2.149.779-4.243.111-6.384z"/><path fill="#86C2DC" d="M798.842 78.982c-1.815-1.606-4.14.299-6.071-.769 3.107-6.114 2.138-7.115-6.862-7.252 3.885-3.872 7.765-7.749 11.671-11.599.179-.176.597-.109 1.263-.21l-.001 19.83z"/><path fill="#F9F4F7" d="M104.964 138.931c2.623-10.247 6.045-20.236 9.689-30.157 2.363-6.434 4.233-.522 6.312.216-5.001 10.157-10.213 20.203-16.001 29.941z"/><path fill="#BDDDEC" d="M988.054 61.971c-1.184 3.385.61 6.122 1.948 8.959-3.596-.977-10.002-1.898-15.003-2.09-2.096-2.176-5.018-4.791-4.546-7.955 5.339-.029 12.068.434 17.601 1.086z"/><path fill="#CEE1ED" d="M190.062 123.025c-1.608 5.423-.749 19.662-.749 19.662s-.536.01-.792.003c-.323-6.878.002-14.158-.085-21.226-.243-19.422-.075-38.85.011-58.274.006-1.284-.199-2.628.987-3.853.062-.063.248.172.348.271.114.113.209.202.296.344-2.126 7.411-.577 14.977-.909 22.463-.089 1.999 1.51 1.739 2.85 1.569l3.973 3.029c.91 4.284.318 5.025-3.982 4.979l-2.783-4.245v32.919c.833.59.845 1.471.835 2.359z"/><path fill="#92CCE3" d="M662.859 72.003c-4.159.529-7.113 4.642-11.689 3.934l.004-8.912c1.309-2.234 2.626-4.464 4.836-5.969 6.771 0 6.771 0 6.809 3.954-1.014.314-.184.63-.001.945l.041 6.048z"/><path fill="#C4C2D8" d="M1333.04 61.086l-.001 7.762c-3.822.051-7.657-.079-11.461.205-3.286.245-3.819-1.294-3.813-4.113.006-2.815.554-4.389 3.824-4.146 3.804.28 7.633.21 11.451.292z"/><path fill="#CCD7E6" d="M432.972 142.657c-2.981.648-5.985.328-8.983.206-1.149-.856-1.696-1.701-1.957-3.218-.043-1.397.177-3.67.24-5.067 1.007-1.743.338-2.724-.239-4.504-.076-.463 0-.907-.15-1.315l.093-2.748c.942-.673 1.774-.195 2.606.25 1.259 1.176 1.602 3.325 3.768 3.532 1.339.708 3.603-2.221 4.86-1.354.285-.136.266 1.079.266 3.813-.001 4.165-.11 6.686-.504 10.405z"/><path fill="#E7E8F0" d="M47.983 142.646c-3.66.574-7.317.576-10.974-.025-1.059-4.215-.278-8.499-.485-12.743.48-1.923 2.052-1.758 3-.975 2.964 2.449 6.916 3.723 8.895 7.351-.091 2.134.587 4.32-.436 6.392z"/><path fill="#87C4DE" d="M509.021 85.082c-.033 7.425.021 14.852-.137 22.273-.075 3.504.841 4.797 4.151 2.61 2.976 2.245 2.946 4.429.144 6.708-1.271 1.034-3.366.508-4.107 2.358l-.09 17.922c1.367 1.301 2.048 2.764 1.092 4.614-.331.47-.711.896-1.141 1.279-1.018-.243-.863-2.757-.867-4.139-.061-24.324-.077-48.648-.018-72.972.004-1.526-.143-3.394 1.004-4.592 2.981 2.955 2.301 6.59 1.772 10.133-.238 1.593-1.607 2.942-1.149 4.732 1.166 1.532 1.422 3.26 1.104 5.112.073 1.615-.278 3.04-1.758 3.962z"/><path fill="#B1A4C6" d="M1353.933 142.749l-.208-15.736c.052-8.417.143-16.834.122-25.251-.004-1.55.843-3.682-.85-4.516-1.479-.729-2.313 1.495-3.65 2.045-.455.188-.877.457-1.314.689l-.736-.161c-1.639-1.028-1.518-2.429-.834-3.948.486-1.841 1.253-3.343 3.579-2.958 4.244 1.535 3.421-2.07 3.529-3.891.313-5.265.123-10.556.312-15.831.051-1.42-1.188-3.354 1.123-4.231-.083 22.688-.147 45.377-.282 68.064-.013 1.912.214 5.725-.791 5.725z"/><path fill="#C9BFD6" d="M1363.954 68.831c.228-2.881 3.861-4.438 3.011-7.738l1.038-.051c.657.684 1.321.681 1.991.018 1.641-.082 3.288-.097 4.92-.26 3.139-.314 4.744.459 4.768 4.198.024 3.921-1.872 4.211-4.874 4.042-3.611-.202-7.236-.15-10.854-.209z"/><path fill="#F9EFF4" d="M364.881 66.953c1.447-2.672 2.9-5.172 4.746-8.494l6.438 12.472c.234 3.391-2.017 4.592-4.735 5.391-5.734-.916-7.291-3.179-6.449-9.369z"/><path fill="#7CA8CB" d="M791.058 84.954c2.912.753 2.694 2.241.96 4.086-.961 1.332.921 2.154.607 3.375.242 2.005-1.737 2.423-2.593 3.642-2.25 3.7-2.106 7.779-1.883 11.871.284.272.368.532.253.779-.112.241-.22.361-.322.361l-.017 33.801c-1.916-1.351-.991-3.347-1.003-5.029-.116-17.917-.139-35.835-.188-53.753a2.012 2.012 0 0 1 1.154-.757c1.349-.088 2.131.879 3.032 1.624z"/><path fill="#C8E4F0" d="M478.999 79.997c-.796.853-.971 1.905-.975 3.015.727.947.956 2.219 1.951 2.991l.176.11c-3.276 3.158-6.086 5.747-9.25 8.926-1.977-1.293-1.559-3.064-1.197-4.928.196-1.157-.768-.509-1.211-.701-1.759-.604-1.677-2.063-1.669-3.487 1.704-1.651 3.407-3.304 5.11-4.956 3.543-1.121 5.09-4.266 7.066-6.975l4.104-3.959c1.013 1.345-.025 2.635-.105 3.951-1.026 2.208-.609 5.377-4 6.013z"/><path fill="#F9F6FA" d="M59.003 105.001c7.028-.77 13.857-2.524 20.713-4.156 5.743-1.366 6.016-1.143 6.278 4.921l-26.988.072-.003-.837z"/><path fill="#B8D4E5" d="M999.022 102.239c5.018 2.707.544 5.974-.581 7.197-2.133 2.317-.839 2.679.687 3.638-3.023 1.635-4.512 2.093-7.773 3.093-.387-3.299-6.183-3.294-5.409-7.409.097-.883 1.659-.523 3.075-.661 2.246-.855 3.075-1.262 4.902-2.286l5.099-3.572z"/><path fill="#F0EAF2" d="M364.881 66.953c1.434 3.133 2.114 6.839 6.098 8.038 1.996 2.517-.386 2.916-1.291 5.175-.45.472-.833 1.466-1.433 1.974-1.748.95-3.253-.056-4.82-.594a4.461 4.461 0 0 1-1.282-.706c-.887-1.589-3.496-2.404-2.229-4.959 1.618-2.923 3.044-5.735 4.957-8.928z"/><path fill="#D4DEEB" d="M369.792 80.749c-.536-2.267.637-3.676 1.188-5.757l5.086-4.061c1.476 2.84 2.643 5.194 3.937 8.081-.376 1.362.048 2.872-.765 4.158-.238.44-.548.818-.929 1.143-2.815 1.919-5.195.865-7.442-1.09-.398-.895-.814-1.806-1.075-2.474z"/><path fill="#85C0DC" d="M540.98 61.051c3.789-.068 7.578-.186 11.367-.194 6.827-.018 7.459.89 5.671 7.877-4.769-4.2-4.769-4.2-7.026.127l-5.008-.017c-.663-.568-1.322-.563-1.977.015l-6.033-.021a5.991 5.991 0 0 1-.872-1.143c.025-2.954.359-5.73 3.878-6.644z"/><path fill="#F7EDF4" d="M238.665 133.172c2.635-1.637 1.696-5.002 3.422-7.077 1.001 1.825 2.818 2.998 3.846 4.802.422 1.998 1.14 3.826 2.896 5.062v9.114c-4.064-3.928-7.235-7.806-10.164-11.901z"/><path fill="#CAE7F2" d="M470.992 90.065c1.08 1.68.393 3 .189 4.693-.75.597-1.637 1.573-2.387 2.171-4.046-.757-3.424 3.883-5.82 5.034-3.148 1.044-4.27.189-3.176-3.162.852-2.61 1.435-5.309 2.137-7.968 1.77-1.845 3.19-3.146 4.888-4.911l2.203 3.067c1.118-.486 1.64.116 1.966 1.076z"/><path fill="#99C4DC" d="M813.979 127.005c-1.924 4.991-.687 10.968.021 15.957-1.895-.149-1.895-.149-1.858-3.147-.047-6.649-.065-13.301-.045-19.951.054-16.957.134-33.914.202-50.871l.366-.725.372.722c-.001 11.766-.052 23.532.036 35.297.021 2.876-.527 5.74 1.646 8.511 1.481 1.89-3.275 3.448-1.626 6.173 2.566 2.426-.08 5.429.886 8.034z"/><path fill="#B9D0E2" d="M509.072 119.032c.297-1.816 1.706-2.806 2.958-3.88 1.734-1.487 2.509-3.1 1.005-5.187 3.351-2.736 6.632-5.528 7.958-9.893.691.955 1.384 1.91 2.076 2.864-.27 1.004-.475 2.033-1.09 2.908-2.576.115-2.094 2.079-2.15 3.648-.066 1.827-.015 3.658-.014 5.487-1.888-.743-2.56 1.04-3.525 1.886-2.133 1.87-4.394 2.83-7.218 2.167z"/><path fill="#82B4D3" d="M729.033 82.102c-.791 1.313.547 3.427-1.466 4.165-.345.127-1.132-.955-1.715-1.479.03-3.27.03-6.371.063-9.746l.006.056c-.323-5.055-.172-9.236-.039-14.307 3.304 3.782 5.193 8.58 8.755 12.183-.011.95-.456 1.696-1.091 2.352-.789.79-1.024 1.805-1.139 2.872-.1.432-.257.838-.47 1.226-.639 1.25-2.238 1.457-2.904 2.678z"/><path fill="#9D99BF" d="M1264.162 137.938c3.789-.151 6.306-3.516 9.981-3.954 3.295 5.62 3.36 5.602 5.044 8.767-1.469.021-3.205.064-5.127.104"/><path fill="#E5E9EF" d="M37.273 128.971l-.264 13.649c-.175-.956-.5-1.913-.502-2.869-.057-25.223-.082-50.445-.104-75.668-.001-.976-.172-2.007.624-2.813 3.439 2.808.962 5.818.301 8.767.101 5.649-1.07 11.348.659 16.934.261.23.349.461.263.692-.085.232-.171.348-.258.348-.928 1.187-.85 2.546-.677 3.922-.021 4.635-.045 9.27-.068 13.904 1.105 1.265 1.692 2.716 1.603 4.413 1.169 5.258-.469 10.525.042 15.791.121 1.249-.733 2.143-1.619 2.93z"/><path fill="#B6D4E6" d="M993.998 131c.291 3.002-2.157 1.643-3.43 2.154-2.912-2.154-5.052-3.792-7.654-6.117 1.559-.46 1.984-1.485 1.602-3.013-.321-1.283-.635-3.021 1.064-3.197 2.197-.228.36 2.223 1.679 3.039 1.708-.246 1.993-2.08 2.943-3.246 1.555 1.161 2.75 2.099 4.01 3.3-.426 2.35-1.389 4.683-.214 7.08z"/><path fill="#C9D9E8" d="M1074.014 61.335l.002 81.303c-.188-1.117-.538-2.235-.539-3.353-.029-24.863-.026-49.727.008-74.589 0-1.121.344-2.241.529-3.361z"/><path fill="#7EABCE" d="M779.925 89.978c-3.462 4.509-7.614 8.327-11.952 11.959-1.288-.795-1.619-2.011-1.514-3.418.165-1.24.951-2.158 1.651-3.116.538-.614 1.046-1.252 1.129-2.119.137-1.248.592-2.402.973-3.572.318-1.005-.219-1.89-.407-2.822l2.991-3.019.632.11c.831.24 1.686.371 2.54.518.447.054.881.15 1.309.288a3.75 3.75 0 0 1 1.075.816c1.479 1.115.804 3.004 1.573 4.375z"/><path fill="#86C3DD" d="M529.997 68.819l-4.06.032c-3.145-1.337-6.05-3.114-8.964-4.875l.04.053c-.814-1.975 1.041-2.187 1.983-3.001l13.997.014c1.858 1.232 3.429 2.532 1.104 4.744-1.126 1.332-3.221 1.354-4.1 3.033z"/><path fill="#DAE4EE" d="M279.966 74.949c-.486.095-1.385.148-1.399.29-.713 7.146-3.097.728-5.316.158.985 2.659-1.53 4.233-.218 7.074.877 1.901-2.808 1.327-4.012 2.56-2.439-2.354-.861-4.74-.056-7.12 3.907-4.435 8.638-7.755 13.935-10.31 1.382 3.392-.712 5.396-2.934 7.348z"/><path fill="#D5D8E6" d="M1142.96 61.089c.435 2.883 1.024 5.705 3.091 7.952-.068 3.635-.138 7.269-.207 10.902-2.357-6.417-7.322-11.75-7.861-18.922l4.977.068z"/><path fill="#D7E3ED" d="M286.986 75.933c-1.151-1.003-2.575-.906-3.956-.98-2.547-3.021 2.061-5.107 1.038-7.93 1.516-.918 2.516-1.439 3.975-1.896 4.344-.523 4.547 4.568 7.691 5.672.187.152.374.307.56.46-3.103 1.557-6.206 3.116-9.308 4.674z"/><path fill="#CFE9F2" d="M433.462 83.865c-.063 1.25-2.022 3.663-4.135 4.311.287-4.386 2.098-7.939 4.347-10.926.966-1.283 4.26.298 6.196-1.217l2.041 2.252c-.709 4.403-2.86 6.506-6.79 6.636l-.061-.063c-.77-.563-.966-.733-1.598-.993z"/><path fill="#F7FBFC" d="M226.932 119.174c.05-4.3 1.234-8.4 2.194-12.54l.974 1.174c.728 3.456 2.259 6.233 6.022 7.124.282.061.558.042.828-.059l.064 1.076c1.859 2.656.611 4.896-.943 7.095-3.047 2.255-4.651-1.837-7.232-1.65l-1.907-2.22z"/><path fill="#8CC9E1" d="M733.969 73.02c-.65-.492-1.235-1.26-1.962-1.433-5.953-1.421-5.635-6.324-6.124-10.796.214-1.814 1.172-1.163 1.895-.473 1.884 1.801 3.682 3.689 5.515 5.543-.212 2.395 2.035 3.112 3.164 4.584.808 1.053 1.908 2.116.71 3.355-1.263 1.306-2.313.256-3.198-.78z"/><path fill="#BCDEEC" d="M509.077 76.007l-.024-14.86 5.943-.076c.585.621.608 1.234-.022 1.841-1.74 2.552-3.005 5.009 2.276 6.566-4.403.736-5.597 3.726-7.105 6.426-.322.382-.68.4-1.068.103z"/><path fill="#C9D9E8" d="M1081.001 61.051c1.284 4.987-.245 10.719 3.948 14.938l-.002 4.006c-5.34-5.2-7.057-12.111-8.948-18.939 1.667-.003 3.334-.004 5.002-.005z"/><path fill="#C9E6F1" d="M494.842 65.013c-.523.811-1.047 1.62-1.571 2.43-1.125 1.738-2.049 4.09-4.468 3.868-2.106-.193-1.796-2.787-2.755-4.191 2.813-2.9 5.327-5.088 8.441-8.098.199 2.353.353 4.134.353 5.991z"/><path fill="#F8F4F6" d="M123.028 105.068c-.506-3.294-2.754-6.444-.478-9.971.61-.946-.546-1.745-1.55-2.12 2.886-1.317 5.899-1.5 8.988-1.008-1.908 4.586-4.284 8.923-6.96 13.099z"/><path fill="#F2F9FB" d="M37.328 70.037l-.301-8.767c4.309-.84 8.639-.456 12.965-.219l-.99 2.946c-3.87-.021-6.906 2.054-10.002 3.979.726 1.15-.338 1.46-.936 1.988-.246.02-.491.044-.736.073z"/><path fill="#83BFDB" d="M541.978 142.825l-4.965.021c-1.011-1.224-2.468-1.584-3.909-1.996-1.25-.601-1.94-1.628-2.277-2.933-.153-1.189.412-2.085 1.181-2.896l10.989.016c2.384 2.953 1.431 5.469-1.019 7.788z"/><path fill="#D5DDE9" d="M1140.927 142.818c-6.894 0-6.894 0-6.921-6.392.012-3.457.097-6.914.148-10.371.74-.14 1.36.146 1.521.84 1.276 5.467 5.437 9.981 5.252 15.923z"/><path fill="#9FCDE2" d="M813.979 127.005c-1.585-2.536-.266-5.393-.887-8.035 4.136.198 7.811-.856 10.742-3.938l-.015 7.985c-1.296.136-2.839.791-3.846.314-4.107-1.942-5.077.709-5.994 3.674z"/><path fill="#AAA7C7" d="M1306.017 126.017c-2.948 2.774-6.179 5.054-10.254 5.854 1.196-2.308 1.676-4.62 2.225-6.873.622-.692.88-1.686 1.773-2.157 3.051-.569 5.696-1.882 7.772-4.248.961-.495 1.843-.301 2.672.318 0 1.714.186 2.673.104 4.36-.533.165-1.066.518-1.549.778-.802.539-1.77.781-2.508 1.428l-.235.54z"/><path fill="#D3DDE9" d="M381.891 82.313c2.924 5.339 5.731 10.552 8.656 15.891-.71.764-1.361.929-2.402.695-3.158-1.335-2.765-5.602-5.807-7.023-1.054-.43-2.178.035-3.251-.235-2.167-.768-3.283-2.278-3.253-4.599.401-1.519 1.393-2.723 2.17-4.043l-.011.007c1.25-.641 2.35-1.246 3.898-.693z"/><path fill="#96BAD8" d="M736.918 108.002c-.146.072-.341.105-.434.221-3.58 4.437-6.982 3.668-10.279-.337.316-2.865.287-5.918 3.849-6.997 1.593 2.826 5.571 2.961 6.886 6.101l-.022 1.012z"/><path fill="#8AC4DE" d="M779.925 89.978C777.852 89.46 777.87 87.403 777 86c1.614-1.755-.047-4.368 1.605-6.124 3.621-1.374 6.598.561 9.604 1.998.917.438 1.744 1.604-.21 2.129l-1.126.084a19624.41 19624.41 0 0 1-6.948 5.891z"/><path fill="#BCD9E9" d="M550.992 68.86c-.796-1.245-4.049-.239-3.082-2.82.883-2.355 3.229-3.137 5.739-3.037 1.767.069 3.844-.379 4.167 2.276.14 1.143.138 2.303.202 3.455l-7.026.126z"/><path fill="#E5E0EB" d="M411.983 142.848l-4.034-2.75c-.242-.699-.695-1.402.041-2.082.489-2.405-2.178-3.328-2.495-5.502-.5-3.426.988-2.526 2.74-1.575 1.912 3.425 3.495 6.519 5.35 9.905 1.151 2.102 1.144 2.019-1.602 2.004z"/><path fill="#F3ECF2" d="M296.995 141.878c-1.211-.303-1.776-.472-3.012-.954-2.737-3.247-4.947-6.677-3.886-11.236l10.153 4.153c-.798 2.795-2.516 5.218-3.255 8.037z"/><path fill="#B3D4E6" d="M959.375 136.917c3.693.046 7.877-2.862 11.575.078l.017 4.008c-1.657 1.548-3.591.994-5.479.702-1.936-.301-3.695 1.027-5.465.952-.651-.19-.651-.594-.648-5.74z"/><path fill="#B1CDE1" d="M1140.927 142.818l-6.772-16.763.015-5.061 8.889 21.815-2.132.009z"/><path fill="#91CCE2" d="M768.018 98.003l-.045 3.934-1.05 1.03c-2.313 2.111-5.052 2.026-5.899-1.975 1.187-2.659 2.063-5.539 4.967-6.975 2.447.427 3.255 1.688 2.027 3.986z"/><path fill="#F9F3F6" d="M234.98 123.057c.375-2.456 2.144-4.512 2.035-7.106l2.612-1.842c.314 6.079-2.736 11.309-2.673 16.999-1.686-1.597-2.641-3.014-4.1-4.888-.885-2.126 1.311-2.181 2.126-3.163z"/><path fill="#CBE7F0" d="M447.028 82.942c-.396 2.054-1.165 3.887-3.015 5.078-1.031.735-.963 2.224-2.017 2.944l-.202.332c-.826-.766-1.71-1.328-2.751-2.419-1.482-5.128 1-8.394 6.005-7.901l1.98 1.966z"/><path fill="#F9FBFC" d="M290.097 129.688c1.59 3.644 3.214 7.275 3.886 11.236-1.405-.455-1.702-.455-2.983-1.028-1.063-.922-.123-2.485-1.1-3.434-1.099-1.264-2.363-2.375-3.38-3.711-.987-1.079-2.228-.98-3.496-.754-1.191-2.275.483-4.578-.063-6.859l7.136 4.55z"/><path fill="#EDE8F0" d="M101.992 140.005c1.354.721 2.08-.927 3.078-1.253-.909 1.728-1.883 4.053-2.258 4.201-.391.155-1.912.064-3.325.105-2.702.078-5.423-.05-8.585-.05 1.072-2.459 2.003-4.078 3.109-5.981 1.857 3.149 5.12 2.526 7.981 2.978z"/><path fill="#A9C3DD" d="M736.939 106.989c-3.1-1.124-8.022-.189-6.887-6.1 2.844.273 4.792-1.58 6.955-2.923-.022 3.008-.044 6.015-.068 9.023z"/><path fill="#A39DC1" d="M1299.968 123.991l-1.98 1.007c.388-1.872.325-3.997.209-6.011 4.03 1.734 9.548-1.361 10.92-6.127.551 2.599.838 4.014 1.089 6.051l-2.224.949c-2.425 1.855-4.852 3.706-8.014 4.131z"/><path fill="#89B6D5" d="M708.98 61.25c-2.368 3.09-4.736 5.987-7.427 9.497-1.002-3.257-.292-6.398-.541-9.438 4.269.001 5.801-.059 7.968-.059z"/><path fill="#8BBED9" d="M733.969 73.02c.646.027 1.532.337 1.896.029 1.2-1.016-.194-1.567-.632-2.275-.94-1.523-4.399-2.045-1.94-4.912 2.533 2.385 5.066 4.771 7.6 7.155.051 1.541-.676 2.809-1.415 4.075-1.052 5.274-3.598 2.91-6.022 1.177a4.685 4.685 0 0 1-.783-1.09c-.14-1.07-1.349-1.91-.678-3.154.656-.336 1.316-.671 1.974-1.005z"/><path fill="#D9E3EE" d="M190.062 123.025c-.279-.784-.558-1.569-.836-2.356l.785-.665c1.51-2.086 3.051-4.075 5.951-1.978.926 1.494 2.329 2.02 4.012 1.978l-.037 7.998c-3.302-6.308-4.239-6.78-9.875-4.977z"/><path fill="#83B4D2" d="M518.028 136.012l1.142-1.19 1.836.227c1.162 1.078 2.212 2.266 3.327 3.394 1.294 1.294 2.15 2.656.697 4.384l-9.08.053c-1.209-2.866.2-4.938 2.078-6.868z"/><path fill="#FDF7F9" d="M237.156 77.026l4.846-.023c.917 1.65 2.655 3.125 1.003 5.287-1.721 2.251-3.809 1.179-5.841.715l-.008-5.979z"/><path fill="#C3CFE0" d="M432.678 118.232l.056-2.472c-.835-1.481-1.442-3.023-1.264-4.774-.041-1.679-.302-3.413 1.191-4.703l.311-13.535c1.358 12.005.529 24.041.433 36.066-.003.451-.839.896-1.288 1.343-.938-.562-.928-1.457-.844-2.379.103-.89.023-1.772-.12-2.652a13.834 13.834 0 0 1 .281-4.638c-.017-.991.422-1.729 1.244-2.256z"/><path fill="#C8D9E7" d="M445.049 80.977c-4.101 1.038-4.91 4.578-6.005 7.901-1.356-1.409-2.45-2.409-3.923-3.957 2.621-1.847 4.751-4.194 6.79-6.636 1.12 1.028 2.089 1.871 3.138 2.692z"/><path fill="#81B6D4" d="M787.999 84.003c-2.084-3.817-5.252-4.363-9.054-3-1.686-.033-1.637-.885-.959-2.033l1.98-2.021c2.25 2.621 5.48 3.322 8.513 3.185 4.983-.227 4.946 1.49 2.578 4.821-1.127.031-2.193-.138-3.058-.952z"/><path fill="#CFDEEC" d="M429.322 65.84c-2.939 1.356-3.472 4.237-4.407 6.886-.654 1.854-.918 3.923-2.655 5.232l.019-10.184c.616-2.455 2.903-2.83 4.719-3.793 1.002.8 1.408 1.144 2.324 1.859z"/><path fill="#E0E6EE" d="M47.983 142.646l-.284-6.816c-.887-1.272-1.852-2.516-1.588-4.222-.874-6.157.054-12.351-.373-18.52-.046-1.733.782-3.063 1.951-4.235.184-1.062.262-2.17 1.282-2.856-.139 10.436-.252 20.871-.44 31.306-.032 1.781.481 3.651-.548 5.343z"/><path fill="#C5D6E6" d="M462.974 101.964c.504-3.404-.252-7.204 3.226-9.915 1.339 1.405.561 3.972 2.594 4.881-2.168 2.445-3.606 3.977-5.785 6.093l-.035-1.059z"/><path fill="#DDE7F0" d="M248.837 66.027l-2.102 4.131c-.686-1.886 1.445-5.595-3.021-4.315-.918.263-.339-3.111.27-4.782 4.853.095 4.845.72 4.853 4.966z"/><path fill="#9ECFE4" d="M529.997 68.819c-2.403-3.719 1.654-3.414 2.991-4.803 2.578.188 5.132.407 5 3.991-.004.276-.008.553-.014.829l-7.977-.017z"/><path fill="#F1EDF3" d="M295.734 70.799c-3.416-.735-4.907-4.081-7.691-5.672 1.916-1.022 3.77-1.627 5.844-2.203 1.304.354 3.514-.078 3.254 1.949-.21 1.64-1.791.3-2.79.273-1.569-.042-1.374 1.182-.972 2.001.634 1.291 1.555 2.442 2.355 3.652z"/><path fill="#F5ECF3" d="M376.988 87.003c.775 1.511 1.43 3.111 3.007 4.021.187.135.374.269.562.402.423.596.558 1.255.435 1.972-.329.953-.929 1.586-1.986 1.676l-2.285-.974-3.82-6.933c1.235-3.242 2.637-2.318 4.087-.164z"/><path fill="#8FC7E0" d="M537.988 68.008c-.97-2.203-3.043-3.025-5-3.992 2.039-.988-1.45-1.984.004-2.974l7.988.009-2.992 6.957z"/><path fill="#F7EDF2" d="M355.01 95.995l-.997.011c-.738-.859-.855-2.189-.252-2.725 2.985-2.649 4.912-6.5 8.931-7.985 1.527.28 2.138 1.373 2.428 2.748l-2.082 4.024c-2.517.044-2.267 3.256-4.345 3.804-1.208.573-2.494-1.182-3.683.123z"/><path fill="#82BFDB" d="M547.011 135.069l5.027-.004c.823.484 1.628.981 1.558 2.122-.898 3.391-3.697 4.563-6.581 5.634l-1.958.022c-2.187-3.304-.498-5.635 1.954-7.774z"/><path fill="#EFCFE1" d="M1348.032 99.98c.316 5.369-3.626 12.305-4.988 13.988-.009-3.656-.017-7.313-.024-10.969 1.147-1.86 2.026-4.154 4.986-3.1l.026.081z"/><path fill="#81B1D1" d="M547.011 135.069l-1.955 7.774-3.079-.019 1.02-7.787 4.014.032z"/><path fill="#CCDCE9" d="M268.964 77.911c.883 2.366.851 4.74.056 7.119-1.894 2.678-3.493-.501-5.264-.265 1.424-2.755 3.113-4.748 5.208-6.854z"/><path fill="#87BBD6" d="M761.023 100.992c1.542 1.926 3.65 2.161 5.899 1.975-4.087 4.689-4.087 4.689-8.004 1.245-.514-1.868.12-2.985 2.105-3.22z"/><path fill="#8AC7E0" d="M813.037 68.989l-.369.004-.369-.001V58.764c2.076 1.985 3.076 2.777 4.493 4.349-1.29 1.935-3.354 3.373-3.755 5.876z"/><path fill="#F3F3F6" d="M357.922 95.021c1.572-1.216 1.466-5.339 5.117-2.953-1.257 3.258-3.109 6.517-5.117 9.497.068-2.015-.28-4.166-1.926-5.483.314-.948 1.343-.6 1.926-1.061z"/><path fill="#BCE1EE" d="M960.023 142.657c-.146-2.402.973-3.115 3.271-2.69 2.535.468 5.113.701 7.672 1.036 0 1.991 0 1.991-1.994 1.986-2.984-.007-5.965-.22-8.949-.332z"/><path fill="#DBECF3" d="M236.123 114.932c-6.416.528-7.524-.781-6.022-7.124 2.546 2.723 4.064 4.503 6.022 7.124z"/><path fill="#D0EAF3" d="M426.998 63.981c-.347 2.791-2.767 3.005-4.72 3.795-.108-2.525-.218-5.049-.327-7.572 2.862 1.89 3.466 2.422 5.047 3.777z"/><path fill="#92C6DE" d="M525.03 142.825l-2.097-3.765.056-.671c.146-1.871 1.643-2.535 2.983-3.339 1.335-.013 2.671-.025 4.006-.039.917 1.999-1.178 3.862-.254 5.861-.018.705-.319 1.304-.71 1.868l-3.984.085z"/><path fill="#CFE6F0" d="M234.98 123.057c1.318 2.416-1.192 2.26-2.126 3.163-1.545-1.596-2.589-2.894-4.015-4.826 3.745-5.717 3.867 1.946 6.141 1.663z"/><path fill="#EBE0EB" d="M432.721 128.207l-.604 1.95-.044-.085c-3.313.596-5.769-1.109-8.142-3.035-.652-.342-1.305-.685-1.958-1.026-.043-.335-.003-.582-.04-.888 1.686-2.36 4.209.206 6.103-1.078.679-.014 1.333.079 1.926.439 1.268.983 2.013 2.353 2.759 3.723z"/><path fill="#81B0D1" d="M547.015 142.821c1.717-2.208 3.631-4.216 5.946-5.813 1.052-.323 1.615.294 2.087 1.085.588 1.794.445 3.43-1.028 4.779l-7.005-.051z"/><path fill="#FCFCFD" d="M215.967 98.048c.039-1.877.583-3.568 1.831-5.003l3.226 3.898c-.668 2.574-3.15 2.915-4.986 4.052-.924-.961-.827-1.946-.071-2.947z"/><path fill="#A5CCE2" d="M873.003 77.979c-.794-1.843-2.031-3.079-4.186-3.063 1.589-1.292 2.62-2.479 4.089-4.067 2.476 2.344 4.308 4.697.097 7.13z"/><path fill="#CAE6F1" d="M493.002 83.001c-2.673-3.923.329-6.801 1.834-9.954l.002 12.928-1.836-2.974z"/><path fill="#8FCCE3" d="M751.003 89.956c5.922 2.232.541 4.267-.112 6.384l-2.853-2.502c-.496-2.428.901-3.41 2.965-3.882z"/><path fill="#DEF0F6" d="M284.068 67.022c3.338 3.126-1.035 5.242-1.038 7.931-1.021-.002-2.042-.002-3.064-.003l2.933-7.349 1.169-.579z"/><path fill="#C0DFED" d="M516.973 63.977c3.903-.057 6.986 1.393 8.964 4.875l-4.897-.028c-.93-1.973-3.535-2.541-4.067-4.847z"/><path fill="#CFD6E5" d="M318.814 115.028c-2.468-.111-4.835.211-6.98 1.558-1.692 1.063-3.303 1.268-4.688-.516-.066-.829-.052-1.81.995-1.794 3.88.057 7.047-.172 10.673.752z"/><path fill="#9FCDE3" d="M554.008 137.988l-1.047-.979-.923-1.943c7.149-.054 7.149-.054 5.935 7.614-1.041-.712-1.714-1.773-2.545-2.684-.444-.69-.786-1.452-1.42-2.008z"/><path fill="#88B9D7" d="M656.01 61.056c-.15 3.174-1.898 5.054-4.836 5.969.17-6.041.17-6.041 4.836-5.969z"/><path fill="#BDCDE0" d="M529.014 142.741l-.997-.839c.367-2.256.803-4.443 3.937-3.926l2.021 2.053c1.244.506 2.533.981 1.885 2.773l-6.846-.061z"/><path fill="#EFECF3" d="M263.756 84.766c.173 2.708 1.872 5.262 1.311 8.161-2.498.489-2.655-2.034-4.009-2.906.61-1.872 1.442-3.396 2.698-5.255z"/><path fill="#C5D6E5" d="M494.833 108.036c-1.435.592-3.292 3.176-4.293.523-1.197-3.172 2.013-3.791 4.292-4.575l.001 4.052z"/><path fill="#A7BED8" d="M736.996 75.995c1.183-1.144 2.188-2.521 3.896-2.979l3.136 3.011c.376 1.21-.043 2.133-1.028 2.854-3.08 1.287-4.504-.88-6.004-2.886z"/><path fill="#E2D3E3" d="M423.932 127.037c3.056.094 5.724 1.229 8.142 3.035.177.317.159.624-.053.92-1.575.951-3.338.954-5.091 1.006-1.802-1.169-2.5-3.005-2.998-4.961z"/><path fill="#DEE6EF" d="M259.917 93.961c1.741 2.036 3.451 4.081 2.093 7.039l-2.956 1.019c.087-2.722.165-5.175.863-8.058z"/><path fill="#D4AECC" d="M1348.006 99.9l-4.986 3.1-.027-5.989 3.046-1.013c.287-.5.59-.51.909-.029l1.058 3.931z"/><path fill="#B9D9E9" d="M993.998 131c-.959-2.391-6.047-4.907.214-7.08 1.444 1.08 2.601 1.955 3.882 3.042-2.663.029-4.114 1.29-4.096 4.038z"/><path fill="#9AC8E0" d="M798.833 108.99l-4.535-2.807c.326-2.035 2.227.324 2.631-1.463l-3.969-2.507.422-.894 5.453 2.628-.002 5.043z"/><path fill="#FDFCFC" d="M296.995 141.878c-1.369-3.673.796-5.914 3.255-8.037.438.081.438.081.754.202l-2.08 8.175-1.929-.34z"/><path fill="#E1E4EE" d="M376.988 87.003c-1.391-.672-2.779-1.246-4.087.164-.746-1.354-1.422-2.521-2.035-3.944 2.372-.305 4.798 1.119 7.137-.225-.019 1.416.04 2.852-1.015 4.005z"/><path fill="#BEDDEC" d="M518.028 136.012c-.205 2.437-1.041 4.682-2.077 6.866l-7.016-.03c0-.265.015-.528.045-.791 2.412-2.353 5.783-3.435 8.004-6.041l1.044-.004z"/><path fill="#C3D6E5" d="M479 73.992c-1.468 3.224-1.236 8.17-7.066 6.975A248.52 248.52 0 0 0 479 73.992z"/><path fill="#BEDDEB" d="M531.954 137.977l-3.937 3.927c-1.181-2.82-.562-5.127 1.962-6.892l2.029.011-.054 2.954z"/><path fill="#A1C5DD" d="M661.937 130.025c-2.305 1.752-5.393.329-7.74 1.91l-1.402-2.685c3.249-2.119 6.009 1.535 9.142.775z"/><path fill="#85BDD7" d="M756.039 87.929c-.598.873-1.296 1.727-2.083.274-.679-1.252-1.605-1.985-2.98-2.207-.79.384-1.302-.037-1.764-.609a2.56 2.56 0 0 1-.191-2.035c.213-.428.522-.768.928-1.021 2.754 2.247 4.098 3.685 6.09 5.598z"/><path fill="#7CACCE" d="M777.986 78.97c.32.678.641 1.355.96 2.033 1.517 2.509 2.402 4.772-1.946 4.997l.003.003c-1.714-1.4-1.365-3.27-1.16-5.106l2.143-1.927z"/><path fill="#ECE9F1" d="M381.891 82.313c-1.247 1.094-.328 2.372-.469 3.764-1.975-.496-2.229-2.274-3.429-3.071.222-1.557.845-2.911 2.009-3.994.669 1.087 1.142 2.148 1.889 3.301z"/><path fill="#FDFEFD" d="M199.951 114.998c-3.188-2.992-2.651-5.988-.007-8.985l.007 8.985z"/><path fill="#95B5D1" d="M1217.248 111.282c-.754-2.626-3.967-6.525 2.739-5.284-.987 1.815-1.604 3.381-2.739 5.284z"/><path fill="#A7D3E6" d="M857.668 85.866c1.266.812 3.146 1.957 2.072 3.353-1.313 1.706-3.338-.292-5.084-.361l3.012-2.992z"/><path fill="#E7E6EF" d="M362.968 80.022l1.03-.022c1.381 1.199 3.497 1.859 3.165 4.315l-1.044 1.736c-2.034.955-2.552-.849-3.478-1.909a5.106 5.106 0 0 0-.679-1.085l.046-.136c-.524-1.245.138-2.099.96-2.899z"/><path fill="#83B8D5" d="M749.948 82.331c.023.201.035.403.036.605-.712.561-1.027 1.462-1.74 2.025-1.07.661-2.153.506-3.239.044l-2.019-1.934c-.038-1.637 1.024-2.407 2.344-2.975.88-.178 1.769-.071 2.655-.064.909.952 1.328 1.419 1.963 2.299z"/><path fill="#8EC9E1" d="M769.805 86.889c1.826.274 3.859.338 3.201 3.143-1.84.765-3.676 1.513-4.851-.987l-.284-.085 1.934-2.071z"/><path fill="#C2D7E5" d="M421.881 128.759l.406 1.696c.249 1.427 1.272 2.856-.016 4.278l-.014 5.613c.422.816.645 1.614-.225 2.306.04-4.61-.136-8.881-.151-13.893z"/><path fill="#B5CDE1" d="M1173.042 142.833l10.909-1.832c-.118 1.99-1.154 2-2.492 1.986-2.806-.029-5.611-.1-8.417-.154z"/><path fill="#DFF1F6" d="M237.159 100.983c1.462.381 3.099.981 3.062 2.623-.042 1.846-1.908 1.179-3.068 1.405l.006-4.028z"/><path fill="#D4DCE9" d="M362.968 80.022l-.961 2.9c-2.079-.519-1.025-4.13-3.856-3.904l1.774-3.137c.328 1.885 1.471 3.172 3.043 4.141z"/><path fill="#82B7D5" d="M775.843 80.896c1.391 1.474 1.102 3.329 1.16 5.106-.347-.008-.693-.017-1.04-.024-.865-.704-2.027-.969-2.757-1.872l-.41-.236 3.047-2.974z"/><path fill="#81B5D3" d="M535.859 142.803l-1.885-2.773 3.268-2.192c.967 1.929-.511 3.414-.23 5.01-.384-.016-.768-.031-1.153-.045z"/><path fill="#BCD9E9" d="M521.979 105.846c-.708-1.371-.7-2.473 1.09-2.908 4.315-.246 1.133 1.779.884 2.916l-1.974-.008z"/><path fill="#F3EBF3" d="M388.037 97.966c.903.021 1.606.217 2.51.237.578 1.234.781 1.938 1.385 2.974l-.939.815c-1.61.566-2.818-.15-3.915-1.227-.6-.864-.86-1.769-.333-2.767.421-.328.852-.354 1.292-.032z"/><path fill="#8EB9D6" d="M711.949 94.006c-1.454.531-2.245-.15-2.426-1.513-.232-1.756 1.095-2.162 2.425-2.486l.001 3.999z"/><path fill="#C3CFE0" d="M432.972 142.657l.023-10.516c.561 3.672.547 6.859-.023 10.516z"/><path fill="#D5E1EC" d="M199.94 139.005c-2.207-2.011-3.26-4.016.03-5.999l-.03 5.999z"/><path fill="#DBDBE9" d="M485.994 142.836c-.346-.544-.979-1.089-.979-1.634.001-1.184.795-.487 1.325-.352 1.545.396 3.093.783 4.64 1.174.234.182.313.364.237.548-.076.185-.152.277-.23.277-1.664-.003-3.328-.008-4.993-.013z"/><path fill="#BDCFE1" d="M490.987 142.85c.006-.275.004-.55-.006-.825l.973-2.033c.859.016 1.4-.629 2.074-.998.263-.005.526-.007.789-.007.021 3.863.021 3.863-3.83 3.863z"/><path fill="#B9D0E2" d="M519.833 122.048c-.823.23-2.05 1.204-1.957-.678.081-1.631.858-3.102 1.958-4.353l-.001 5.031z"/><path fill="#7AAFD1" d="M654.993 133.017c2.524-.521 4.588-.581 2.991 3.003-1.215-1.036-1.734-1.631-2.991-3.003z"/><path fill="#86BED9" d="M554.008 137.988l1.943.951c.367 1.298 1.463 2.393 1.08 3.896l-3.012.037-.011-4.884z"/><path fill="#B2DDED" d="M925.005 139.997c1.458.747 3.018 1.35 3.964 2.816l-4.943.021c-.441-1.205.181-2.046.97-2.83l.009-.007z"/><path fill="#FAEDF4" d="M362.984 83.017l3.134 3.035c-.308.8-.541 1.115-.998 1.992l-2.125-2.05c-.909-.988-.725-1.982-.011-2.977z"/><path fill="#B9DAE9" d="M557.031 142.836c-.544-1.247-2.455-2.116-1.079-3.896 2.019.519 1.895 2.196 2.021 3.739l-.447.217-.495-.06z"/><path fill="#B8DFEE" d="M924.995 140.004l-.97 2.83h-1.021c-.011-1.348-1.468-2.641-.271-3.936.163-.176 1.48.711 2.262 1.106z"/><path fill="#87C4DC" d="M615.81 94.273c1.652-.996 2.687-.204 3.677 1.369-1.434.912-2.359-.313-3.417-.632a1.02 1.02 0 0 1-.26-.737z"/><path fill="#92C6DE" d="M522.933 139.061c-1.457-.946-1.954-2.354-1.927-4.013l2.986-.013c.55 1.484-.277 2.643-.912 3.846l-.147.18z"/><path fill="#B7DBEB" d="M514.974 62.911l.022-1.841 4-.042-1.983 3.001-2.039-1.118z"/><path fill="#ACA7C7" d="M1309.016 122.946l1.293.325c.021.739-.104 1.042-.235 1.728l-4.057 1.018-.014-.01c-.285-2.289 2.26-1.793 3.013-3.061z"/><path fill="#86BED9" d="M747.985 80.033l-1.999.969c-1.04.827-1.781.44-2.369-.58.006-1.415.415-2.457 2.123-2.301l2.245 1.912z"/><path fill="#83AECD" d="M745.74 78.121l-1.742 1.872c-.427.311-.846.286-1.257-.031-.349-.706-.326-1.36.268-1.937l1.02-1.998c.893 1.051 1.076 1.186 1.711 2.094z"/><path fill="#EDF0F6" d="M426.93 131.998c1.515-1.256 3.344-.922 5.091-1.006.175.285.292.593.352.923-1.813.122-3.604 1.685-5.443.083z"/><path fill="#D6C5DB" d="M1369.994 61.06c-.235.998.472 2.771-1.002 2.764-1.45-.008-.767-1.775-.989-2.781l1.991.017z"/><path fill="#B6DBEB" d="M523.081 138.881l.912-3.846 1.98.016c-.708 1.47-1.332 3.004-2.892 3.83z"/><path fill="#F3ECF2" d="M291.075 136.006c1.048 1.317.03 2.595-.075 3.89-.745-.255-.999-.353-2.034-.875.522-.641.328-1.292.028-1.945.38-.969 1.2-1.079 2.081-1.07z"/><path fill="#DBE1EB" d="M367.163 84.315L363.998 80l4.258 2.141-1.093 2.174z"/><path fill="#FDFDFD" d="M302.009 142.933c.574-.715 1.055-1.552 1.761-2.097.374-.289.863.275.781.813-.14.922-.964 1.13-1.681 1.423l-.417-.04-.444-.099z"/><path fill="#A7D4E7" d="M853.101 103.401c-.307-2.477.205-4.144 3.26-3.3l-3.26 3.3z"/><path fill="#96CAE2" d="M544.007 68.858c.182-.838-.499-2.281.731-2.346.953-.05 1.021 1.417 1.245 2.331-.658.006-1.317.011-1.976.015z"/><path fill="#E6EAF2" d="M199.963 92.002l-2.974-.046c-.7-1.358-.077-2.259 1.037-2.989l1.917 1.016.02 2.019z"/><path fill="#D2C6DA" d="M1337.973 68.845c1.017-2.186 2.033-2.104 3.05.001l-3.05-.001z"/><path fill="#ADB0CD" d="M1274.061 142.854c1.245-1.842 2.524-1.98 3.844-.077l-3.844.077z"/><path fill="#B2DDEC" d="M662.817 65.955c-.77-.107-2.142.139-1.98-.842.208-1.26 1.277-.269 1.981-.104.041.366.041.6-.001.946z"/><path fill="#96C0DB" d="M651.149 78.015c2.409.966 1.186 1.948.013 2.931l-.013-2.931z"/><path fill="#ECE9F1" d="M422.032 142.652c.074-.771.148-1.54.224-2.308 1.166.437 1.569 1.396 1.732 2.519l-1.956-.211z"/><path fill="#A9CEE3" d="M902.168 121.424c1.905 1.036 2.266 2.479 3.1 3.92-3.167-.548-3.167-.548-3.1-3.92z"/><path fill="#9EC8E0" d="M828.154 80.659c-.438.503-.748 1.09-.957 1.056-.57-.093-1.301-.308-1.593-.732-.429-.623-.082-1.362.739-1.305.551.038 1.067.556 1.811.981z"/><path fill="#9CC7DF" d="M824.374 73.018c.132.267.452.669.478 1.09.011.17-.705.601-.95.515-.337-.118-.541-.614-.802-.949.26-.135.52-.269 1.274-.656z"/><path fill="#C9D9E8" d="M1079.687 83.546c.616.198 1.323.396 1.223 1.197-.024.199-.792.501-1.132.416-.4-.101-.912-.519-1.008-.894-.152-.585.382-.752.917-.719z"/><path fill="#D6EDF4" d="M245.479 101.947c1.114.352 2.094.881 2.201 2.198.059.712-.368 1.329-1.105 1.182-1.177-.235-1.964-1.073-2.194-2.262-.145-.746.309-1.151 1.098-1.118z"/><path fill="#D8EEF4" d="M245.471 117.012c-.765-.056-1.118-.549-1.152-1.225-.049-.958.488-1.486 1.439-1.462.672.019 1.31.362 1.259 1.096-.06.865-.752 1.329-1.546 1.591z"/><path fill="#D1DFEC" d="M245.934 130.896c-1.844-1.152-3.541-2.421-3.847-4.803 1.844 1.152 3.55 2.414 3.847 4.803z"/><path fill="#CDC5DA" d="M1346.947 95.969c-.303.013-.606.022-.91.029l.001-10.908c2.483 2.414 3.711 4.931 4.003 7.824l-3.094 3.055z"/><path fill="#DFE3ED" d="M387.022 98.013l.965 1.985c-.19.928-.827 1.413-1.668 1.7-.747.244-1.601-.379-2.3.286l-5.014-6.912 1.046-2.084c.905-.598 1.825-.503 2.754-.066 2.115 1.109 3.212 3.061 4.217 5.091z"/><path fill="#F7E9F1" d="M407.99 138.016c.303.699.555 1.398-.041 2.081-2.424-.984-4.822-1.999-6.04-5.239 3.213-.412 4.133 2.387 6.081 3.158z"/><path fill="#E9E6EF" d="M386.001 101.006l1.986-1.008 3.005 1.994c-.559 1.458-1.633 2.416-3.002 3.085-.428-1.472-2.593-2.095-1.989-4.071z"/><path fill="#F5EBF3" d="M386.001 101.006l1.989 4.07c-1.324-1.029-2.647-2.061-3.971-3.092.175-1.309.97-1.364 1.982-.978z"/><path fill="#CDE9F2" d="M291.075 136.006c-.694.355-1.387.712-2.081 1.068l-3.037-3.033c-.699-2.031-.182-2.854 2.006-2.021l3.112 3.986z"/><path fill="#DAEAF3" d="M287.963 132.02c-1.107.238-1.736.951-2.005 2.021l-2.935-2.044c1.657-2.219 3.31-3.62 4.94.023z"/><path fill="#DAE5EF" d="M198.025 88.967l-1.037 2.99c-1.65 1.29-3.292 3.684-4.98.036 2.729-.538 3.948-2.285 3.982-4.979l2.035 1.953z"/><path fill="#D6E7F1" d="M215.967 98.048l.07 2.947c-1.331 2.192-2.144.474-2.488-.539-.719-2.108.896-2.308 2.418-2.408z"/><path fill="#A5C1DB" d="M701.15 118.253c.69-.26 1.281 2.601 1.515.453.23-2.119-.049-3.884 2.335-4.708 5.356 6.231 5.092 9.268-1.267 14.1-1.455-2.186 1.752-2.951 1.419-4.858-1.194-1.331-2.797 1.075-4.012-.31.005-1.56.008-3.118.01-4.677z"/><path fill="#9BBFDA" d="M704.998 92.993l-1.966-1.033c.281-1.209.352-2.532 2.052-3.322.569 1.524.323 2.935-.086 4.355z"/><path fill="#99C8DF" d="M788.08 109.068l.068-1.14c2.001-2.013 4.039-1.49 4.753.837.749 2.445 2.958 3.328 4.092 5.223-3.534-.621-5.959-3.25-8.913-4.92z"/><path fill="#94C7E0" d="M743.009 78.025l.09 1.85c.071 1.847-.89 1.767-2.139 1.145-2.848 1.366-5.295-.448-7.901-.995-1.078-1.424-.541-2.356.916-3.009 1.037.66 1.704 2.491 3.045 1.908 1.259-.546-.967-1.895-.023-2.929 1.91.951 3.773 2.048 6.012 2.03z"/><path fill="#8ECAE2" d="M745.005 85.006l2.999-1.032c1.15-.619 1.444.451 1.996 1.013l.976 1.01-.967 2.06c-3.148 1.41-3.907-1.098-5.004-3.051z"/><path fill="#8EC9E2" d="M733.154 80.95c.848 1.663 1.867 3.271 1.819 5.606-2.334-.89-3.479-2.42-4.012-4.52-.239-.213-.349-.449-.328-.708.021-.271.063-.407.128-.408.807-.719 1.599-.255 2.393.03z"/><path fill="#BDDCEC" d="M733.154 80.95c-.68.622-1.403.403-2.132.111-.661-.66-.566-1.346-.067-2.045.068-.316.119-.636.151-.958.632-1.247 1.358-2.23 2.872-1.038l-.004-.006-.916 3.01c.008.312.041.62.096.926z"/><path fill="#93C8E0" d="M740.96 81.02l2.138-1.144c.3.046.6.085.9.117l1.988 1.009-3 2.07a3945.14 3945.14 0 0 1-2.026-2.052z"/><path fill="#8BBED9" d="M730.955 79.017l.067 2.044c-.019.326-.038.65-.06.976l-1.93.064c-.832-1.946.687-2.427 1.923-3.084z"/><path fill="#FCFCFD" d="M362.984 83.017l.012 2.978c-2.406 3.864-7.08 5.695-8.982 10.012-1.812-2.547-.87-4.676 1.087-6.563 2.248-2.17 4.571-4.261 6.861-6.386l1.022-.041z"/><path fill="#D7DFEB" d="M351.319 105.439c-1.917-.305-2.763-1.411-2.292-2.413.548-1.165 1.277.019 1.7.583.265.353.299.878.592 1.83z"/><path fill="#D7E1EB" d="M357.922 95.021l-1.926 1.06a24.997 24.997 0 0 0-.985-.086c.427-1.949 1.619-1.608 2.911-.974z"/><path fill="#C5D6E6" d="M484.088 111.035l-.003-3.189c1.145-3.229 1.559-6.461.016-9.695l-.02-5.256c1.636-3.277 3.648-5.94 7.946-4.88-1.351 8.12-2.178 16.421-7.939 23.02z"/><path fill="#C7D6E6" d="M485.432 126.864c.389-3.82 2.691-5.191 4.414-6.984.458 3.19-.833 5.303-4.414 6.984z"/><path fill="#F2F9FB" d="M52.004 66l-3.003-2.001c1.213.349 3.455-.846 3.003 2.001z"/><path fill="#DBF0F5" d="M38.064 69.966L39 67.978c.702.126 1.925-.063 1.77.889-.229 1.41-1.695.947-2.706 1.099z"/><path fill="#DDEFF4" d="M43.986 89.973c-.71-.146-1.756.276-1.849-.916-.019-.241.666-.765 1.031-.77 1.33-.017 1.006.902.81 1.7l.008-.014z"/><path fill="#E4F3F6" d="M37.991 88.011l-.005-1.039c.626-.366 1.492-1.374 1.847-.106.23.824-1.07.959-1.842 1.145z"/><path fill="#E4E9F1" d="M195.961 118.026c-2.229-.08-4.059 1.042-5.951 1.978.459-1.874.792-3.981 2.986-4.531 1.858-.466 2.276 1.337 2.965 2.553z"/><path fill="#F0F2F5" d="M47.69 108.853l.026 4.308c-.229.611-.379 1.321-.78 1.786-5.095 5.895-3.726 11.464.766 16.905v3.979c-4.375-.923-7.252-4.121-10.43-6.86 0-6.274-.003-12.549-.005-18.823 2.296-3.217 5.905-1.09 8.731-2.146l1.692.851z"/><path fill="#E2EDF3" d="M45.998 108.001c-2.687 1.627-5.709 1.892-8.732 2.146l-.02-4.309 8.752 2.163z"/><path fill="#FBEDF3" d="M432.661 106.283l.061 4.525c-2.202 1.721-3.868-.107-5.697-.858-5.809-1.104-4.911-5.548-4.784-9.606 3.928 1.182 6.887 4.065 10.42 5.939z"/><path fill="#F3D7E6" d="M1348.984 125.948l-1.968-1.985 1.004-9.854c3.1 2.251 1.081 5.182 1.041 7.851l-.077 3.988z"/><path fill="#CBC9DD" d="M1349.062 121.959c-.335-2.62.661-5.416-1.041-7.853.456-1.172 1.439-1.786 1.709-.223.46 2.671.848 5.498-.668 8.076z"/><path fill="#AED3E6" d="M921.005 100.998c.392-1.26 1.047-2.14 2.494-1.399.237.122.411.983.241 1.177-.789.901-1.785.563-2.738.222h.003z"/><path fill="#A3CAE0" d="M478.999 79.997c.757-2.388 2.095-4.389 4-6.013 1.019 6.492.751 6.893-4 6.013z"/><path fill="#94C4DC" d="M479.975 86.003c-2.029-.098-2.687-1.091-1.951-2.991 1.602.376 2.018 1.526 1.951 2.991z"/><path fill="#A2C8DE" d="M455.886 98.986c-.812-.32-.736-.983-.444-1.538.277-.525.72-1.243 1.188-1.326.817-.146 1.023.639.843 1.308-.21.785-.639 1.466-1.587 1.556z"/><path fill="#CDE5F1" d="M453.021 88.975c-.356 1.014-.361 2.355-1.961 2.236-.2-.016-.542-.432-.529-.646.094-1.644 1.467-1.356 2.496-1.586l-.006-.004z"/><path fill="#ADD9E9" d="M441.997 90.965c.014-1.433.413-2.602 2.017-2.944.324 1.664.364 3.132-2.017 2.944z"/><path fill="#C2D0E1" d="M516.984 136.016c-1.87 3.072-3.089 7.005-8.004 6.04l.003-5.101c2.815.956 5.437.261 8.001-.939z"/><path fill="#BCD1E3" d="M509.021 85.082l.002-4.158c1.231-1.058 2.535-1.338 3.955-.368.643.743.712 1.544.233 2.396-.293 2.274.751 4.122 1.896 5.936-5.164 3.747-4.675-1.549-6.086-3.806z"/><path fill="#9CC8DE" d="M820.988 128.979c-1.327 1.433-1.327 1.433-3.957-.903.979-1.236 2.009.117 2.978-.07.894-.247 1.229.068.979.973z"/><path fill="#9BC5DD" d="M820.988 128.979l-.979-.974c-.143-.614-.434-1.366.378-1.638.866-.29 1.604.2 1.872 1.024.337 1.034-.479 1.348-1.271 1.588z"/><path fill="#C8E6F1" d="M484.1 98.15c3.193 3.238 2.319 6.47-.016 9.697l.016-9.697z"/><path fill="#85B3D2" d="M494.028 138.993c-.297.644-.431 1.517-.932 1.872-.661.469-.949-.308-1.142-.874.509-.712.935-1.595 2.074-.998z"/><path fill="#A7D3E6" d="M865.103 86.554c-.253.995-.998 1.257-1.884 1.146-.684-.085-1.388-.503-1.04-1.247.22-.472.979-.835 1.558-.96.697-.152 1.283.222 1.366 1.061z"/><path fill="#8DB3D3" d="M790.032 96.057l2.004-4.09c.332-.394.675-.402 1.027-.027 3.472 4.672-1.349 3.239-3.031 4.117z"/><path fill="#8FCAE2" d="M793.063 91.939l-1.027.027c-.759-.958-2.409-1.544-2.011-2.977.301-1.08 1.306-.135 1.992.05L794 90l-.937 1.939z"/><path fill="#F9EBF2" d="M432.678 118.232l-.016 2.755c-.875.778-1.75.855-2.626.001l-5.277-4.36c3.446-1.227 5.744-.119 7.919 1.604z"/><path fill="#DBE0EB" d="M427.024 109.95l5.698.859.013 4.952c-2.747-1.11-3.742-3.938-5.711-5.811z"/><path fill="#F8EBF1" d="M430.036 120.988l2.627-.001c-.694 1.242-.07 2.444.109 3.661-1.203 1.151-2.515.977-3.867.32l-.869-.925c.668-1.017 1.334-2.036 2-3.055z"/><path fill="#BFE0EE" d="M512.971 80.966c-1.316-.014-2.632-.026-3.948-.041l.054-4.918 1.068-.103c1.975-.556 4.671-2.44 3.875 2.104.231 1.192.214 2.296-1.049 2.958z"/><path fill="#81BAD5" d="M512.971 80.966l1.049-2.958c2.984 2.184.933 3.539-.81 4.945l-.239-1.987z"/><path fill="#84B7D5" d="M768.155 89.044c1.516.825 3.161 1.012 4.851.986-1.422.945-1.543 2.561-2.051 3.977-.51.569-.326 1.469-.947 1.984l-1.99 2.012c.087-1.717-.867-2.903-2.027-3.985 1.449-1.341 1.921-3.108 2.164-4.974z"/><path fill="#8CC1DC" d="M657.263 68.702c2.012.262 2.388 1.266 2.853 2.719-1.637-.122-2.185-1.012-2.853-2.719z"/><path fill="#F5E8F0" d="M422.271 134.733c.005-1.429.009-2.856.015-4.281 2.81 3.429 2.81 3.429-.015 4.281z"/><path fill="#ACDAEA" d="M470.992 90.065l-1.966-1.075c.099-1.886.302-3.797 2.647-4.127 1.072-.15 1.886.64 2.057 1.751.32 2.085-.945 2.997-2.738 3.451z"/><path fill="#BDDCEA" d="M989.021 108.097c2.271-.93 3.174-1.166 4.902-2.286.96 1.903.814 3.602-1.261 4.562-2.202 1.019-2.803-.905-3.641-2.276z"/><path fill="#97CBE2" d="M542.125 66.21c-.245-.167-.616-.284-.674-.489-.14-.495.087-.928.663-.87.191.02.476.428.477.659.001.232-.298.466-.466.7z"/><path fill="#94C7E0" d="M733.979 77.021c-.958.346-1.916.691-2.873 1.038-.272-1.051-.574-2.094-.814-3.152-.549-2.417.87-1.096 1.702-.882.739.947 2.87.971 1.985 2.996z"/><path fill="#8DCAE2" d="M725.922 75.098c.403-1.173 1.052-1.601 2.013-.549.276.303.534 1.123.445 1.184-1.042.707-1.595-.571-2.464-.69l.006.055z"/><path fill="#8DC6DF" d="M770.008 95.991c-.419-1.013-.344-1.789.947-1.984.113.866 1.994 2.576-.947 1.984z"/><path fill="#8DC8E1" d="M773.206 84.106c1.296.07 2.162.771 2.757 1.873-1.317-.038-2.553-.197-2.757-1.873z"/><path fill="#C2C5DB" d="M1299.968 123.991c2.494-1.72 5.03-3.357 8.014-4.13-1.805 3.057-4.293 4.791-8.014 4.13z"/><path fill="#BDBCD5" d="M1309.016 122.946l-3.013 3.061c-1.098-3.089 1.769-2.276 3.013-3.061z"/><path fill="#E7E7EF" d="M387.022 98.013c-2.655-.117-3.477-2.524-5.027-4.022-.536-1.309-.684-2.574.398-3.709.202-.094.404-.188.606-.28 3.338 1.605 3.823 5.017 5.038 7.965-.338.014-.677.03-1.015.046z"/><path fill="#EAE9F1" d="M379.996 91.023c.156-.909-.117-2.128 1.165-2.357.892-.16 1.383.663 1.839 1.335l.002-.003c-.738 1.148-1.524 2.154-3.026 1.005l.02.02z"/><path fill="#CBD7E6" d="M428.905 124.969c1.244-.663 2.543-.644 3.868-.318l-.051 3.556c-1.663-.619-2.929-1.706-3.817-3.238z"/><path fill="#EEF7F9" d="M47.701 131.852c-9.716-5.447-9.711-10.507.016-18.692l-.016 18.692z"/><path fill="#D3DDE9" d="M379.975 91.003l3.026-1.005-1.006 3.992-1.943-1.002-.077-1.985z"/><path fill="#7FB1D1" d="M750 84.986l-1.996-1.013c-.574-2.708 1.073-1.164 1.98-1.036l.016 2.049z"/><path fill="#9D99BF" d="M1274.061 142.854c-7.497 0-7.352 0-9.898-4.916 3.789-.151 6.306-3.516 9.981-3.954"/></g></svg>